<?xml version="1.0" encoding="utf-8"?>
<!-- Generator: Adobe Illustrator 16.0.0, SVG Export Plug-In . SVG Version: 6.00 Build 0)  -->
<!DOCTYPE svg PUBLIC "-//W3C//DTD SVG 1.1//EN" "http://www.w3.org/Graphics/SVG/1.1/DTD/svg11.dtd">
<svg version="1.1" id="Layer_1" xmlns="http://www.w3.org/2000/svg" xmlns:xlink="http://www.w3.org/1999/xlink" x="0px" y="0px"
	 width="190px" height="190px" viewBox="0 0 190 190" enable-background="new 0 0 190 190" xml:space="preserve">
<polygon fill="#3D3A39" points="7.225,107.656 7.797,111.164 10.067,110.793 9.061,104.619 10.849,104.329 12.198,112.582 
	2.693,114.136 1.4,106.217 3.205,105.923 4.159,111.759 6.006,111.458 5.434,107.949 "/>
<polygon fill="#3D3A39" points="0.894,90.685 6.126,94.498 10.517,94.496 10.519,96.617 6.128,96.619 0.898,100.454 0.898,97.832 
	4.241,95.486 0.894,93.161 "/>
<polygon fill="#3D3A39" points="7.808,79.696 7.245,83.206 9.519,83.57 10.508,77.393 12.3,77.676 10.98,85.938 1.464,84.42 
	2.73,76.494 4.538,76.787 3.604,82.625 5.455,82.922 6.015,79.409 "/>
<path fill="#3D3A39" d="M14.939,63.295c0.627,1.373,0.991,3.264,0.323,5.263c-1.015,3.032-3.847,4.304-6.527,3.408
	c-2.627-0.877-4.163-3.627-3.179-6.574c0.562-1.677,1.77-3.105,3.071-3.881l0.89,1.697c-1.007,0.595-1.842,1.619-2.17,2.596
	c-0.616,1.845,0.396,3.504,2.104,4.071c1.715,0.575,3.52-0.174,4.148-2.057c0.415-1.246,0.147-2.625-0.384-3.688L14.939,63.295z"/>
<path fill="#3D3A39" d="M11.654,51.854l0.857-1.597l10.594,0.61l-1.095,2.039l-2.209-0.184l-2.102,3.927l1.383,1.726l-1.055,1.965
	L11.654,51.854z M16.57,55.225l1.422-2.649l-3.696-0.324l-0.039,0.078L16.57,55.225z"/>
<path fill="#3D3A39" d="M25.841,46.86l-7.592-5.932l3.29-4.208c0.843-1.08,1.713-1.545,2.606-1.632
	c0.726-0.07,1.453,0.125,2.058,0.597c0.979,0.765,1.259,1.959,0.941,3.202l4.449,0.615l-1.49,1.905l-3.991-0.644l-1.761,2.254
	l2.789,2.182L25.841,46.86z M20.956,40.367l1.99,1.549l2.124-2.719c0.454-0.579,0.408-1.384-0.173-1.838
	c-0.258-0.202-0.562-0.289-0.874-0.25c-0.499,0.04-0.796,0.351-1.032,0.653L20.956,40.367z"/>
<polygon fill="#3D3A39" points="36.735,28.812 34.111,31.205 35.656,32.903 40.277,28.7 41.498,30.039 35.319,35.66 28.843,28.545 
	34.771,23.15 36,24.5 31.632,28.479 32.89,29.863 35.514,27.472 "/>
<path fill="#3D3A39" d="M53.206,13.656C52.684,13.614,51.75,13.71,51.203,14c-0.587,0.311-0.673,0.808-0.478,1.17
	c0.343,0.653,1.619,0.979,2.023,1.113l2.56,0.928c0.188-0.751,0.304-1.63,0.35-2.672l1.747-0.042
	c-0.076,1.274-0.26,2.375-0.509,3.291l2.741,0.982l-2.304,1.221l-1.11-0.394c-0.598,1.232-1.516,2.053-2.322,2.484
	c-1.289,0.68-3.452,0.975-4.555-1.106c-0.795-1.498-0.236-2.708,0.64-3.73c-0.472-0.264-0.835-0.572-1.099-1.066
	c-0.753-1.419,0.042-2.974,1.486-3.743c0.989-0.523,2.137-0.597,2.862-0.613L53.206,13.656z M51.354,17.84
	c-0.393,0.577-0.636,1.288-0.24,2.028c0.524,0.993,1.575,0.901,2.229,0.555c0.43-0.228,0.892-0.675,1.291-1.402l-2.549-0.935
	L51.354,17.84z"/>
<polygon fill="#3D3A39" points="77.556,3.044 75.532,13.468 73.757,13.909 67.102,5.632 69.421,5.059 74.009,11.127 74.097,11.103 
	75.323,3.597 "/>
<polygon fill="#3D3A39" points="84.829,11.825 83.808,2.26 85.902,2.034 86.923,11.604 "/>
<path fill="#3D3A39" d="M100.305,4.218c-0.563-0.445-1.753-1.082-3.345-1.127c-0.959-0.029-1.825,0.3-1.851,1.125
	c-0.023,0.854,1.241,0.95,2.493,1.091c1.75,0.168,4.486,0.452,4.408,3.105c-0.07,2.375-2.07,3.245-4.429,3.178
	c-2.491-0.074-4.144-1.109-5.236-2.055l1.237-1.411c0.792,0.673,2.136,1.684,4.08,1.74c1.223,0.038,2.209-0.407,2.23-1.306
	c0.031-0.926-0.952-1.163-2.391-1.321c-2.104-0.195-4.575-0.503-4.501-2.95c0.066-2.328,2.253-2.989,4.066-2.934
	c2.005,0.058,3.678,0.843,4.484,1.427L100.305,4.218z"/>
<rect x="104.344" y="6.567" transform="matrix(-0.1626 0.9867 -0.9867 -0.1626 134.421 -98.843)" fill="#3D3A39" width="9.622" height="2.107"/>
<path fill="#3D3A39" d="M123.035,5.708c2.905,0.921,4.552,3.837,3.705,6.504c-0.863,2.728-3.879,4.152-6.786,3.231
	c-2.909-0.917-4.498-3.804-3.636-6.527C117.161,6.247,120.124,4.788,123.035,5.708 M120.498,13.717
	c1.76,0.555,3.586-0.443,4.137-2.169c0.536-1.702-0.395-3.542-2.151-4.099c-1.727-0.545-3.522,0.432-4.059,2.133
	C117.877,11.311,118.771,13.171,120.498,13.717"/>
<polygon fill="#3D3A39" points="142.518,14.586 138.021,23.108 136.401,22.251 134.853,14.694 134.837,14.687 132.056,19.959 
	130.177,18.967 134.676,10.447 136.281,11.297 137.837,18.873 137.85,18.877 140.637,13.596 "/>
<polygon fill="#3D3A39" points="153.692,22.33 160.479,28.355 159.267,29.724 156.664,27.412 151.49,33.244 149.916,31.844 
	155.093,26.014 152.479,23.696 "/>
<polygon fill="#3D3A39" points="157.599,39.247 165.101,33.212 166.431,34.867 163.649,37.103 166.498,40.64 169.277,38.404 
	170.607,40.059 163.108,46.091 161.777,44.438 165.109,41.76 162.261,38.221 158.932,40.901 "/>
<polygon fill="#3D3A39" points="172.866,54.241 171.143,51.131 169.132,52.249 172.166,57.714 170.579,58.597 166.522,51.285 
	174.943,46.612 178.836,53.626 177.237,54.514 174.367,49.345 172.729,50.25 174.451,53.36 "/>
<path fill="#3D3A39" d="M172.721,63.462l9.078-3.213l1.78,5.033c0.456,1.29,0.382,2.271-0.022,3.072
	c-0.334,0.648-0.889,1.158-1.612,1.413c-1.167,0.414-2.325,0.014-3.207-0.93l-2.902,3.423l-0.807-2.283l2.69-3.014l-0.957-2.696
	l-3.334,1.181L172.721,63.462z M180.819,62.832l-2.374,0.84l1.147,3.251c0.25,0.697,0.947,1.089,1.643,0.845
	c0.307-0.11,0.543-0.318,0.682-0.602c0.235-0.443,0.132-0.861,0.005-1.221L180.819,62.832z"/>
<path fill="#3D3A39" d="M187.114,78.929l0.308,1.789l-8.744,6.026l-0.389-2.283l1.854-1.214l-0.748-4.389l-2.151-0.517l-0.375-2.198
	L187.114,78.929z M181.162,79.286l0.505,2.967l3.114-2.015l-0.016-0.087L181.162,79.286z"/>
<path fill="#3D3A39" d="M178.959,91.604l9.626,0.007l-0.005,5.339c-0.002,1.357-0.386,2.27-1.068,2.902
	c-0.56,0.501-1.238,0.783-1.973,0.783c-0.841-0.005-1.58-0.358-2.121-0.917c-0.575-0.608-0.928-1.463-0.926-2.775l0.004-3.229
	l-3.542-0.002L178.959,91.604z M186.799,93.72h-2.521l-0.004,3.301c0,0.368,0.058,0.779,0.366,1.104
	c0.239,0.239,0.562,0.385,0.885,0.385c0.341,0,0.634-0.132,0.871-0.354c0.34-0.321,0.399-0.751,0.399-1.133L186.799,93.72z"/>
<polygon fill="#3D3A39" points="186.535,115.478 181.993,110.865 177.659,110.149 178.004,108.054 182.338,108.77 188.122,105.841 
	187.697,108.425 184.015,110.196 186.937,113.036 "/>
<path fill="#3D3A39" d="M32.806,166.108l6-7.53l3.539,2.822c1.385,1.103,1.972,2.211,2.1,3.423c0.115,1.205-0.281,2.436-1.127,3.495
	c-0.874,1.096-2.043,1.786-3.298,1.918c-1.133,0.094-2.255-0.177-3.671-1.306L32.806,166.108z M37.42,167.466
	c0.863,0.688,1.378,0.778,2.045,0.743c0.787-0.088,1.518-0.483,2.124-1.248c0.568-0.714,0.827-1.489,0.751-2.248
	c-0.075-0.681-0.302-1.223-1.19-1.929l-1.833-1.463l-3.732,4.685L37.42,167.466z"/>
<path fill="#3D3A39" d="M53.54,168.888l1.593,0.87l-0.699,10.604l-2.032-1.112l0.201-2.211l-3.913-2.137l-1.741,1.37l-1.955-1.069
	L53.54,168.888z M50.123,173.782l2.642,1.445l0.353-3.689l-0.078-0.043L50.123,173.782z"/>
<polygon fill="#3D3A39" points="71.72,176.64 64.294,184.218 62.572,183.61 61.579,173.045 63.832,173.841 64.316,181.428 
	64.399,181.457 69.554,175.871 "/>
<rect x="71.816" y="181.57" transform="matrix(-0.2039 0.979 -0.979 -0.2039 271.0399 144.8385)" fill="#3D3A39" width="9.625" height="2.107"/>
<path fill="#3D3A39" d="M91.594,182.154c-0.542-0.467-1.706-1.156-3.292-1.268c-0.955-0.067-1.837,0.224-1.894,1.046
	c-0.062,0.853,1.2,1.002,2.443,1.196c1.743,0.239,4.463,0.642,4.273,3.289c-0.17,2.368-2.205,3.153-4.56,2.984
	c-2.484-0.176-4.09-1.282-5.144-2.273l1.296-1.354c0.762,0.704,2.06,1.773,4.002,1.909c1.217,0.09,2.225-0.313,2.29-1.209
	c0.064-0.929-0.904-1.203-2.34-1.423c-2.093-0.283-4.548-0.695-4.374-3.134c0.165-2.326,2.379-2.893,4.19-2.763
	c1.999,0.142,3.636,0.996,4.42,1.617L91.594,182.154z"/>
<polygon fill="#3D3A39" points="108.216,178.767 104.698,188.783 102.876,188.961 97.499,179.805 99.875,179.574 103.533,186.246 
	103.62,186.237 105.926,178.988 "/>
<rect x="110.405" y="181.036" transform="matrix(0.2318 0.9728 -0.9728 0.2318 265.6436 27.8031)" fill="#3D3A39" width="9.627" height="2.106"/>
<polygon fill="#3D3A39" points="123.228,174.722 126.076,181.995 131.347,179.934 132.009,181.62 124.775,184.455 121.264,175.489 
	"/>
<polygon fill="#3D3A39" points="134.989,169.442 138.804,176.253 143.74,173.49 144.623,175.068 137.852,178.863 133.15,170.472 "/>
<polygon fill="#3D3A39" points="151.934,164.634 149.146,166.835 150.575,168.638 155.475,164.761 156.6,166.183 150.048,171.365 
	144.076,163.824 150.36,158.849 151.497,160.279 146.861,163.946 148.022,165.413 150.811,163.211 "/>
<path fill="#AEA233" d="M11.646,133.24c-0.496-0.194-1.035-0.177-1.509,0.047c-0.453,0.215-0.798,0.595-0.973,1.073
	c-0.183,0.51-0.153,1.066,0.083,1.569c0.348,0.738,1.073,1.175,1.816,1.175c0.265,0,0.536-0.055,0.792-0.176
	c0.961-0.455,1.365-1.643,0.896-2.646C12.523,133.799,12.131,133.431,11.646,133.24"/>
<path fill="#AEA233" d="M16.19,141.191c-0.492-0.123-1-0.045-1.422,0.213c-0.433,0.259-0.737,0.673-0.861,1.171
	c-0.131,0.517-0.041,1.085,0.243,1.555c0.275,0.454,0.699,0.779,1.199,0.92c0.175,0.05,0.354,0.074,0.529,0.074
	c0.341,0,0.671-0.092,0.964-0.268c0.431-0.257,0.733-0.672,0.857-1.163c0.129-0.521,0.042-1.089-0.242-1.557
	C17.175,141.665,16.712,141.32,16.19,141.191"/>
<path fill="#AEA233" d="M19.826,149.272v0.002c-0.852,0.642-1,1.888-0.334,2.774c0.403,0.535,1.016,0.821,1.623,0.821
	c0.4,0,0.8-0.123,1.141-0.378c0.843-0.64,0.989-1.881,0.325-2.766C21.912,148.836,20.677,148.636,19.826,149.272"/>
<path fill="#AEA233" d="M167.256,150.907c-0.514,0.075-0.977,0.347-1.308,0.762c-0.683,0.874-0.56,2.12,0.276,2.777
	c0.334,0.263,0.741,0.402,1.165,0.402c0.077,0,0.155-0.004,0.233-0.013c0.537-0.067,1.021-0.341,1.361-0.774
	c0.337-0.43,0.494-0.979,0.432-1.51c-0.058-0.507-0.306-0.955-0.698-1.263C168.303,150.963,167.789,150.821,167.256,150.907"/>
<path fill="#AEA233" d="M173.57,143.3c-0.422-0.268-0.931-0.357-1.427-0.246c-0.524,0.116-0.988,0.447-1.279,0.903
	c-0.299,0.467-0.399,1.035-0.283,1.561c0.109,0.495,0.402,0.915,0.823,1.181c0.303,0.197,0.652,0.298,1.008,0.298
	c0.157,0,0.322-0.02,0.482-0.063c0.504-0.127,0.939-0.444,1.229-0.894C174.718,145.103,174.47,143.875,173.57,143.3"/>
<path fill="#AEA233" d="M178.021,135.024c-0.444-0.226-0.961-0.257-1.444-0.096c-0.509,0.167-0.938,0.543-1.181,1.03
	c-0.5,0.995-0.132,2.194,0.816,2.67c0.264,0.132,0.553,0.198,0.841,0.198c0.206,0,0.412-0.035,0.612-0.101
	c0.509-0.169,0.939-0.547,1.184-1.036C179.347,136.701,178.977,135.505,178.021,135.024"/>
<path fill="#AEA233" d="M138.84,90.558c0,5.745-2,11.412-5.995,17.017c-3.421,4.801-7.859,9.019-13.311,12.649
	c0.288,0.662,0.434,1.167,0.434,1.529c0,1.021-0.359,1.525-1.092,1.525c-0.288,0-0.798-0.577-1.526-1.74
	c-10.903,6.545-23.448,9.813-37.627,9.813c-1.527,0-2.986-0.037-4.365-0.107c-4.945-0.215-9.526-1.239-13.745-3.055
	c-5.666-2.401-8.508-5.635-8.508-9.711c0-4.865,2.294-8.866,6.871-11.996c3.998-2.614,8.584-4.067,13.745-4.365
	c3.272-7.631,6.835-14.94,10.688-21.918c1.164-2.254,2.873-5.129,5.127-8.617c1.238-1.604,3.094-2.4,5.563-2.4
	c1.022,0,1.528,0.289,1.528,0.87c0,0.224-0.073,0.436-0.215,0.655c-6.837,9.234-13.164,19.706-18.981,31.41
	c19.561,0.441,32.904,5.351,40.031,14.733c4.798-3.345,8.725-7.199,11.778-11.566c3.562-5.09,5.349-10.179,5.349-15.27
	c0-8.217-4.622-14.507-13.854-18.872c-7.128-3.269-15.309-4.905-24.548-4.905c-12.283,0-23.191,2.69-32.723,8.072
	c-0.577,0.291-1.048,0.434-1.412,0.434c-0.946,0-1.417-0.548-1.417-1.635c0-1.599,1.124-3.016,3.377-4.255
	c3.276-1.744,8.256-3.162,14.946-4.253c5.598-0.872,10.797-1.31,15.597-1.31c10.764,0,20.215,1.891,28.364,5.672
	C133.53,73.833,138.84,81.035,138.84,90.558 M115.06,118.479c-3.343-4.141-8.872-7.521-16.575-10.143
	c-6.911-2.397-13.42-3.596-19.527-3.596c-0.946,0-1.887,0.039-2.839,0.109c-4.364,9.309-6.543,15.527-6.543,18.653
	c0,0.217,0.037,0.507,0.115,0.865c0.068,0.366,0.107,0.657,0.107,0.876c0,0.943-0.4,1.415-1.197,1.415
	c-1.168,0-1.746-0.977-1.746-2.939c0-3.273,1.85-9.418,5.562-18.436c-9.674,1.601-14.512,6.072-14.512,13.418
	c0,3.273,2.218,5.852,6.656,7.745c3.34,1.451,6.98,2.249,10.908,2.397h2.727C92.011,128.845,104.296,125.393,115.06,118.479"/>
</svg>
