<?xml version="1.0" encoding="utf-8"?>
<!-- Generator: Adobe Illustrator 16.0.0, SVG Export Plug-In . SVG Version: 6.00 Build 0)  -->
<!DOCTYPE svg PUBLIC "-//W3C//DTD SVG 1.1//EN" "http://www.w3.org/Graphics/SVG/1.1/DTD/svg11.dtd">
<svg version="1.1" id="Layer_1" xmlns="http://www.w3.org/2000/svg" xmlns:xlink="http://www.w3.org/1999/xlink" x="0px" y="0px"
	 width="190px" height="190px" viewBox="0 0 190 190" enable-background="new 0 0 190 190" xml:space="preserve">
<text transform="matrix(-0.3484 -0.9374 0.9374 -0.3484 19.5352 123.3838)" fill="#3D3A37" font-family="'SweetSansPro-Bold'" font-size="16.5527"> </text>
<g>
	<path fill="#3D3A37" d="M16.155,112.864l-10.66,1.803l-0.848-5.012c-0.332-1.959,0.008-3.326,0.811-4.436
		c0.806-1.094,2.059-1.825,3.562-2.08c1.55-0.262,3.045,0.04,4.193,0.869c1.02,0.768,1.754,1.836,2.094,3.844L16.155,112.864z
		 M13.314,108.274c-0.207-1.226-0.571-1.684-1.154-2.155c-0.726-0.517-1.635-0.732-2.712-0.55c-1.012,0.171-1.809,0.625-2.313,1.315
		c-0.447,0.629-0.661,1.254-0.448,2.51l0.439,2.596l6.627-1.12L13.314,108.274z"/>
</g>
<g>
	<path fill="#3D3A37" d="M3.444,91.333l0.095-2.034l11.033-4.506l-0.121,2.597l-2.329,0.885l-0.233,4.995l2.236,1.082l-0.117,2.497
		L3.444,91.333z M10.058,92.372l0.158-3.374l-3.897,1.458l-0.005,0.099L10.058,92.372z"/>
</g>
<g>
	<path fill="#3D3A37" d="M7.842,65.772l9.204,7.57l-0.515,1.987L4.808,77.47l0.673-2.596l8.438-1.282l0.025-0.097l-6.75-5.223
		L7.842,65.772z"/>
</g>
<g>
	<path fill="#3D3A37" d="M20.882,62.423l-9.855-4.442l0.973-2.159l9.855,4.442L20.882,62.423z"/>
</g>
<g>
	<path fill="#3D3A37" d="M24.419,40.529c-0.765,0.251-2.102,0.969-3.133,2.43c-0.621,0.879-0.849,1.893-0.092,2.427
		c0.785,0.554,1.66-0.572,2.566-1.654c1.244-1.534,3.209-3.916,5.644-2.198c2.178,1.537,1.75,3.951,0.223,6.115
		c-1.613,2.286-3.608,3.188-5.171,3.625l-0.552-2.031c1.12-0.323,2.9-0.952,4.16-2.737c0.792-1.123,0.99-2.321,0.165-2.903
		c-0.853-0.602-1.681,0.171-2.726,1.42c-1.487,1.848-3.307,3.968-5.552,2.383c-2.138-1.509-1.396-3.964-0.222-5.628
		c1.298-1.839,3.072-2.918,4.12-3.313L24.419,40.529z"/>
</g>
<g>
	<path fill="#3D3A37" d="M38.78,21.937l3.425,11.416l-1.536,1.363l-10.928-4.756l2.006-1.78l7.722,3.638l0.074-0.066l-2.695-8.1
		L38.78,21.937z"/>
</g>
<g>
	<path fill="#3D3A37" d="M51.964,26.121l-5.622-9.233l2.022-1.231l5.622,9.233L51.964,26.121z"/>
</g>
<g>
	<path fill="#3D3A37" d="M59.992,9.852l3.241,8.154l5.907-2.349l0.752,1.892l-8.108,3.223l-3.993-10.046L59.992,9.852z"/>
</g>
<g>
	<path fill="#3D3A37" d="M76.891,4.679l1.633,8.621l6.246-1.184l0.379,2.001l-8.573,1.624L74.564,5.119L76.891,4.679z"/>
</g>
<g>
	<path fill="#3D3A37" d="M99.122,9.096l-3.989-0.085l-0.055,2.583l7.019,0.15l-0.044,2.036l-9.385-0.201L92.899,2.77l9.004,0.192
		l-0.044,2.053l-6.638-0.142l-0.045,2.102l3.99,0.085L99.122,9.096z"/>
</g>
<text transform="matrix(0.9822 0.188 -0.188 0.9822 108.4307 14.7334)" fill="#3D3A37" font-family="'SweetSansPro-Bold'" font-size="16.5525"> </text>
<g>
	<path fill="#3D3A37" d="M125.287,14.515l-3.768-1.313l-0.851,2.439l6.629,2.311l-0.67,1.923l-8.864-3.09l3.559-10.208l8.505,2.965
		l-0.676,1.938l-6.27-2.186l-0.692,1.985l3.768,1.313L125.287,14.515z"/>
</g>
<g>
	<path fill="#3D3A37" d="M147.296,18.934l-6.709,2.813l-2.551,4.223l-2.041-1.232l2.551-4.223l-0.646-7.257l2.522,1.524l0.31,4.577
		l4.183-1.863L147.296,18.934z"/>
</g>
<g>
	<path fill="#3D3A37" d="M155.243,33.673l-2.913-2.728l-1.766,1.885l5.125,4.798l-1.392,1.487l-6.853-6.416l7.389-7.892l6.574,6.156
		l-1.403,1.499l-4.847-4.538l-1.437,1.535l2.913,2.728L155.243,33.673z"/>
</g>
<text transform="matrix(0.6208 0.784 -0.784 0.6208 157.4189 42.8701)" fill="#3D3A37" font-family="'SweetSansPro-Bold'" font-size="16.5526"> </text>
<g>
	<path fill="#3D3A37" d="M170.667,60.159c-1.61-0.538-3.442-1.69-4.572-3.771c-1.715-3.157-0.589-6.462,2.204-7.979
		c2.735-1.485,6.172-0.639,7.839,2.431c0.947,1.745,1.196,3.834,0.838,5.498l-2.078-0.566c0.282-1.284,0.084-2.759-0.469-3.777
		c-1.043-1.921-3.185-2.359-4.959-1.396c-1.79,0.972-2.557,3.028-1.49,4.992c0.703,1.295,2.042,2.13,3.322,2.51L170.667,60.159z"/>
</g>
<g>
	<path fill="#3D3A37" d="M183.095,68.585l0.557,1.958l-9.025,7.784l-0.711-2.5l1.925-1.581l-1.367-4.809l-2.465-0.315l-0.684-2.404
		L183.095,68.585z M176.493,69.705l0.925,3.25l3.229-2.623l-0.026-0.096L176.493,69.705z"/>
</g>
<g>
	<path fill="#3D3A37" d="M175.701,85.599l10.796-0.571l0.315,5.985c0.082,1.537-0.312,2.569-1.002,3.302
		c-0.565,0.593-1.325,0.965-2.185,1.011c-1.389,0.073-2.509-0.729-3.157-2.021l-4.215,2.759l-0.144-2.711l3.854-2.393l-0.17-3.207
		l-3.969,0.21L175.701,85.599z M184.621,87.499l-2.827,0.149l0.204,3.869c0.044,0.826,0.676,1.472,1.502,1.429
		c0.363-0.02,0.688-0.168,0.922-0.43c0.394-0.403,0.418-0.884,0.395-1.313L184.621,87.499z"/>
</g>
<g>
	<path fill="#3D3A37" d="M179.119,110.936l0.667-3.934l-2.547-0.432l-1.174,6.92l-2.007-0.34l1.569-9.255l10.658,1.807l-1.506,8.879
		l-2.023-0.343l1.109-6.545l-2.072-0.352l-0.667,3.934L179.119,110.936z"/>
</g>
<text transform="matrix(0.3865 0.9223 -0.9223 0.3865 10.0435 126.8613)" fill="#B8AB31" font-family="'SweetSansPro-Bold'" font-size="14.1879">•</text>
<text transform="matrix(0.5127 0.8586 -0.8586 0.5127 15.4072 138.4951)" fill="#B8AB31" font-family="'SweetSansPro-Bold'" font-size="14.1879">•</text>
<text transform="matrix(0.6283 0.778 -0.778 0.6283 22.3169 149.1885)" fill="#B8AB31" font-family="'SweetSansPro-Bold'" font-size="14.1879">•</text>
<g>
	<path fill="#3D3A37" d="M38.961,153.043l7.79,6.582l-1.325,1.567l-2.984-2.521l-5.652,6.69l-1.809-1.528l5.652-6.689l-2.997-2.533
		L38.961,153.043z"/>
</g>
<g>
	<path fill="#3D3A37" d="M57.559,165.856c3.032,1.599,4.268,5.149,2.801,7.933c-1.498,2.841-5.118,3.815-8.15,2.217
		c-3.031-1.598-4.215-5.103-2.717-7.944C50.959,165.279,54.528,164.259,57.559,165.856z M53.159,174.205
		c1.832,0.965,4.054,0.228,5.003-1.574c0.934-1.771,0.271-3.993-1.561-4.958c-1.801-0.949-3.979-0.226-4.913,1.547
		C50.74,171.021,51.358,173.256,53.159,174.205z"/>
</g>
<g>
	<path fill="#3D3A37" d="M67.546,182.186l2.719-10.464l5.801,1.507c1.49,0.388,2.355,1.075,2.845,1.955
		c0.394,0.717,0.519,1.554,0.302,2.387c-0.35,1.347-1.452,2.172-2.88,2.399l1.357,4.851l-2.629-0.683l-1.116-4.396l-3.108-0.808
		l-1,3.846L67.546,182.186z M72.052,174.256l-0.712,2.74l3.75,0.975c0.801,0.208,1.608-0.198,1.816-1
		c0.092-0.352,0.047-0.705-0.132-1.009c-0.264-0.496-0.716-0.665-1.133-0.772L72.052,174.256z"/>
</g>
<g>
	<path fill="#3D3A37" d="M93.35,175.153c3.428,0.073,6.121,2.697,6.053,5.842c-0.068,3.212-2.869,5.702-6.297,5.629
		c-3.426-0.072-6.052-2.679-5.984-5.89C87.189,177.59,89.924,175.081,93.35,175.153z M93.149,184.589
		c2.07,0.044,3.729-1.61,3.771-3.646c0.043-2.003-1.544-3.692-3.614-3.736c-2.035-0.044-3.659,1.578-3.702,3.581
		C89.561,182.822,91.114,184.545,93.149,184.589z"/>
</g>
<g>
	<path fill="#3D3A37" d="M117.063,172.609l2.29,10.565l-2.006,0.435l-6.788-5.373l-0.017,0.004l1.417,6.537l-2.331,0.505
		l-2.29-10.565l1.991-0.432l6.809,5.386l0.016-0.004l-1.42-6.553L117.063,172.609z"/>
</g>
<g>
	<path fill="#3D3A37" d="M124.246,170.239l9.274-4.243l0.854,1.867l-3.554,1.625l3.644,7.965l-2.153,0.984l-3.643-7.965
		l-3.568,1.633L124.246,170.239z"/>
</g>
<g>
	<path fill="#3D3A37" d="M143.733,158.87c2.732-2.069,6.473-1.682,8.371,0.826c1.938,2.561,1.287,6.252-1.445,8.321
		c-2.732,2.068-6.41,1.654-8.349-0.906C140.412,164.604,141.001,160.938,143.733,158.87z M149.43,166.395
		c1.65-1.249,1.924-3.575,0.694-5.199c-1.209-1.597-3.501-1.938-5.151-0.688c-1.623,1.229-1.892,3.509-0.683,5.105
		C145.52,167.236,147.807,167.623,149.43,166.395z"/>
</g>
<text transform="matrix(0.6482 -0.7614 0.7614 0.6482 162.252 156.041)" fill="#B8AB31" font-family="'SweetSansPro-Bold'" font-size="14.1878">•</text>
<text transform="matrix(0.5359 -0.8443 0.8443 0.5359 170.1807 146.041)" fill="#B8AB31" font-family="'SweetSansPro-Bold'" font-size="14.1878">•</text>
<text transform="matrix(0.4134 -0.9106 0.9106 0.4134 176.6348 135.0469)" fill="#B8AB31" font-family="'SweetSansPro-Bold'" font-size="14.1879">•</text>
<path fill="#ADA230" d="M139.402,84.666c0,5.933-2.064,11.786-6.191,17.576c-3.531,4.958-8.114,9.313-13.747,13.063
	c0.301,0.684,0.448,1.206,0.448,1.58c0,1.053-0.369,1.575-1.122,1.575c-0.301,0-0.827-0.597-1.58-1.798
	c-11.26,6.76-24.217,10.134-38.861,10.134c-1.577,0-3.08-0.037-4.506-0.111c-5.11-0.221-9.84-1.279-14.195-3.154
	c-5.853-2.479-8.788-5.818-8.788-10.028c0-5.025,2.367-9.156,7.096-12.39c4.129-2.7,8.863-4.201,14.195-4.507
	c3.379-7.882,7.06-15.431,11.037-22.638c1.203-2.328,2.969-5.297,5.297-8.899c1.279-1.656,3.194-2.478,5.745-2.478
	c1.053,0,1.578,0.298,1.578,0.898c0,0.231-0.076,0.451-0.225,0.677c-7.059,9.538-13.597,20.352-19.602,32.441
	c20.203,0.455,33.982,5.525,41.341,15.215c4.956-3.455,9.011-7.436,12.167-11.946c3.677-5.255,5.521-10.511,5.521-15.769
	c0-8.486-4.771-14.982-14.308-19.49c-7.361-3.376-15.81-5.066-25.351-5.066c-12.687,0-23.952,2.778-33.796,8.336
	c-0.596,0.3-1.083,0.448-1.458,0.448c-0.977,0-1.463-0.565-1.463-1.686c0-1.654,1.161-3.118,3.488-4.397
	c3.383-1.801,8.527-3.265,15.436-4.393c5.781-0.9,11.153-1.353,16.108-1.353c11.117,0,20.875,1.954,29.293,5.858
	C133.92,67.393,139.402,74.831,139.402,84.666 M114.846,113.502c-3.455-4.277-9.163-7.769-17.121-10.475
	c-7.135-2.476-13.857-3.714-20.165-3.714c-0.979,0-1.95,0.039-2.932,0.113c-4.508,9.613-6.759,16.035-6.759,19.264
	c0,0.225,0.039,0.524,0.119,0.894c0.07,0.379,0.108,0.679,0.108,0.905c0,0.975-0.411,1.462-1.236,1.462
	c-1.206,0-1.802-1.009-1.802-3.036c0-3.382,1.913-9.727,5.747-19.041c-9.993,1.654-14.987,6.272-14.987,13.858
	c0,3.381,2.291,6.043,6.874,7.999c3.45,1.498,7.21,2.323,11.266,2.476h2.816C91.04,124.207,103.727,120.643,114.846,113.502"/>
</svg>
