<?xml version="1.0" encoding="utf-8"?>
<!-- Generator: Adobe Illustrator 16.0.0, SVG Export Plug-In . SVG Version: 6.00 Build 0)  -->
<!DOCTYPE svg PUBLIC "-//W3C//DTD SVG 1.1//EN" "http://www.w3.org/Graphics/SVG/1.1/DTD/svg11.dtd">
<svg version="1.1" id="Layer_1" xmlns="http://www.w3.org/2000/svg" xmlns:xlink="http://www.w3.org/1999/xlink" x="0px" y="0px"
	 width="36.75px" height="32.875px" viewBox="0 0 36.75 32.875" enable-background="new 0 0 36.75 32.875" xml:space="preserve">
<path fill-rule="evenodd" clip-rule="evenodd" stroke="#000000" stroke-miterlimit="10" d="M0.881,12.859c0-0.235,0-0.47,0-0.705
	c0.049-0.099,0.122-0.193,0.145-0.297C1.659,8.99,2.292,6.123,2.916,3.253c0.2-0.918,0.688-1.602,1.555-1.987
	c0.244-0.109,0.504-0.182,0.756-0.272c8.851,0,17.7,0,26.55,0c0.084,0.044,0.164,0.109,0.253,0.128
	c1.14,0.245,1.788,0.979,2.037,2.081c0.453,2.012,0.876,4.03,1.33,6.041c0.221,0.975,0.483,1.941,0.728,2.911
	c0,0.235,0,0.47,0,0.705c-0.046,0.104-0.119,0.203-0.133,0.311c-0.127,0.964-0.461,1.922-1.215,2.466
	c-1.045,0.754-1.045,1.713-0.991,2.772c0.011,0.234,0.001,0.469,0.001,0.704c0,3.305,0.006,6.61-0.002,9.916
	c-0.004,1.262-0.625,2.174-1.695,2.54c-0.22,0.075-0.443,0.137-0.664,0.206c-8.615,0-17.23,0-25.846,0
	c-0.046-0.035-0.087-0.088-0.139-0.103c-1.554-0.447-2.169-1.261-2.169-2.881c0-3.867-0.007-7.734,0.01-11.602
	c0.002-0.435-0.121-0.709-0.476-0.968c-0.9-0.656-1.438-1.573-1.73-2.64C1.011,13.341,0.946,13.1,0.881,12.859z M26.936,14.956
	c-1.049,1.492-2.426,2.325-4.215,2.329c-1.792,0.003-3.164-0.842-4.224-2.327c-1.063,1.501-2.442,2.331-4.235,2.327
	c-1.787-0.004-3.155-0.852-4.204-2.325c-1.354,1.88-3.13,2.613-5.395,2.224c-0.012,0.264-0.03,0.475-0.03,0.685
	c-0.001,3.641-0.002,7.282,0,10.922c0.001,1.12,0.445,1.573,1.561,1.574c8.241,0.002,16.481,0.003,24.724,0
	c1.072,0,1.499-0.431,1.5-1.484c0.001-3.68,0-7.36-0.001-11.04c0-0.208-0.018-0.417-0.028-0.663
	C30.09,17.586,28.301,16.843,26.936,14.956z M26.47,2.451c0,0.239-0.016,0.394,0.003,0.544c0.167,1.375,0.342,2.75,0.512,4.124
	c0.217,1.762,0.504,3.519,0.633,5.287c0.164,2.268,2.008,3.811,4.237,3.419c1.718-0.301,3.091-2.112,2.752-3.715
	c-0.608-2.879-1.257-5.75-1.9-8.623c-0.159-0.709-0.546-1.012-1.292-1.025c-1.113-0.019-2.229-0.01-3.343-0.012
	C27.55,2.45,27.028,2.451,26.47,2.451z M10.58,2.458c-1.697,0-3.299-0.01-4.899,0.004C4.773,2.47,4.453,2.769,4.253,3.68
	C3.8,5.736,3.331,7.789,2.889,9.847c-0.204,0.95-0.512,1.911-0.507,2.866c0.01,1.762,1.693,3.221,3.48,3.203
	c1.809-0.019,3.345-1.511,3.515-3.297c0.209-2.174,0.504-4.341,0.763-6.51C10.28,4.93,10.424,3.752,10.58,2.458z M17.789,2.486
	c-0.279-0.013-0.51-0.033-0.742-0.033c-1.448-0.003-2.897,0.025-4.345-0.015c-0.578-0.016-0.761,0.168-0.823,0.741
	c-0.264,2.407-0.605,4.806-0.871,7.213c-0.107,0.979-0.423,1.955-0.116,2.958c0.497,1.626,2.14,2.758,3.707,2.535
	c1.892-0.27,3.203-1.675,3.214-3.513c0.019-3.151,0.006-6.303,0.004-9.455C17.816,2.801,17.803,2.686,17.789,2.486z M19.193,2.451
	c0,3.486-0.061,6.852,0.023,10.214c0.045,1.81,1.685,3.227,3.477,3.25c1.714,0.022,3.262-1.279,3.478-3.028
	c0.079-0.643-0.044-1.317-0.121-1.971c-0.312-2.658-0.642-5.313-0.96-7.97c-0.041-0.342-0.176-0.51-0.559-0.5
	c-0.9,0.023-1.801,0.005-2.701,0.005C20.973,2.451,20.115,2.451,19.193,2.451z"/>
<path fill-rule="evenodd" clip-rule="evenodd" stroke="#000000" stroke-miterlimit="10" d="M28.564,21.114
	c-0.343,0.339-0.659,0.653-1.008,0.999c-0.656-0.507-1.404-0.759-2.188-0.547c-0.487,0.132-0.984,0.408-1.355,0.751
	c-0.83,0.767-0.982,2.074-0.461,3.084c0.496,0.96,1.621,1.57,2.619,1.419c1.168-0.177,1.854-0.776,2.045-1.846
	c-0.738,0-1.469,0-2.244,0c0-0.47,0-0.869,0-1.322c1.222,0,2.459,0,3.695,0c0.478,1.626-0.459,3.56-2.06,4.268
	c-1.891,0.836-4.112,0.172-5.21-1.558c-1.1-1.732-0.738-4.015,0.85-5.354C24.779,19.716,27.031,19.739,28.564,21.114z"/>
</svg>
