<?xml version="1.0" encoding="utf-8"?>
<!-- Generator: Adobe Illustrator 16.0.0, SVG Export Plug-In . SVG Version: 6.00 Build 0)  -->
<!DOCTYPE svg PUBLIC "-//W3C//DTD SVG 1.1//EN" "http://www.w3.org/Graphics/SVG/1.1/DTD/svg11.dtd">
<svg version="1.1" id="Layer_1" xmlns="http://www.w3.org/2000/svg" xmlns:xlink="http://www.w3.org/1999/xlink" x="0px" y="0px"
	 width="145px" height="145px" viewBox="0 0 145 145" enable-background="new 0 0 145 145" xml:space="preserve">
<path fill="#FFFFFF" d="M130.589,104.759c0,0-15.204,34.968-58.278,34.968c-43.076,0-58.278-34.968-58.278-34.968
	s12.669-34.967,58.278-34.967S130.589,104.759,130.589,104.759"/>
<path fill="#3E3B38" d="M72.311,141.912c-43.998,0-60.125-35.918-60.283-36.283c-0.222-0.511-0.24-1.09-0.05-1.616
	c0.132-0.362,13.732-36.406,60.333-36.406c46.602,0,60.2,36.044,60.334,36.406c0.188,0.526,0.171,1.105-0.051,1.616
	C132.436,105.994,116.312,141.912,72.311,141.912 M16.413,104.688c2.564,5.232,17.912,32.853,55.898,32.853
	s53.333-27.62,55.899-32.853c-2.221-5.254-15.748-32.711-55.899-32.711C32.161,71.978,18.633,99.435,16.413,104.688"/>
<path fill="#84A3AF" d="M37.344,104.759c0-19.312,15.656-34.967,34.967-34.967c19.312,0,34.967,15.655,34.967,34.967
	s-15.655,34.968-34.967,34.968C53,139.727,37.344,124.07,37.344,104.759"/>
<path fill="#3E3B38" d="M72.311,141.912c-20.484,0-37.153-16.67-37.153-37.153c0-20.486,16.668-37.152,37.153-37.152
	c20.485,0,37.153,16.666,37.153,37.152c0,2.362-0.225,4.726-0.662,7.028c-0.229,1.187-1.369,1.968-2.56,1.736
	c-1.185-0.225-1.962-1.371-1.734-2.553c0.387-2.034,0.585-4.123,0.585-6.212c0-18.076-14.707-32.781-32.782-32.781
	c-18.077,0-32.782,14.705-32.782,32.781c0,18.075,14.705,32.782,32.782,32.782c11.666,0,22.545-6.281,28.395-16.389
	c0.607-1.043,1.946-1.397,2.987-0.797c1.045,0.607,1.399,1.943,0.797,2.989C97.86,134.799,85.532,141.912,72.311,141.912"/>
<path fill="#FFFFFF" d="M51.912,103.302c0-11.265,9.134-20.396,20.399-20.396c11.265,0,20.397,9.132,20.397,20.396
	s-9.132,20.397-20.397,20.397C61.046,123.699,51.912,114.566,51.912,103.302"/>
<path fill="#3E3B38" d="M72.311,125.885c-12.453,0-22.584-10.129-22.584-22.583c0-12.453,10.131-22.582,22.584-22.582
	c12.454,0,22.583,10.129,22.583,22.582C94.894,115.756,84.765,125.885,72.311,125.885 M72.311,85.089
	c-10.043,0-18.213,8.17-18.213,18.213c0,10.041,8.17,18.212,18.213,18.212c10.043,0,18.213-8.171,18.213-18.212
	C90.524,93.259,82.354,85.089,72.311,85.089"/>
<path fill="#B9AD33" d="M70.671,94.377c0-5.731,4.651-10.378,10.382-10.378c5.733,0,10.38,4.646,10.38,10.378
	c0,5.733-4.646,10.382-10.38,10.382C75.322,104.759,70.671,100.11,70.671,94.377"/>
<path fill="#3E3B38" d="M81.052,106.945c-6.927,0-12.563-5.638-12.563-12.568c0-6.929,5.637-12.565,12.563-12.565
	c6.931,0,12.567,5.637,12.567,12.565C93.619,101.308,87.982,106.945,81.052,106.945 M81.052,86.183
	c-4.519,0-8.195,3.676-8.195,8.194c0,4.521,3.676,8.194,8.195,8.194c4.521,0,8.196-3.673,8.196-8.194
	C89.248,89.858,85.572,86.183,81.052,86.183"/>
<path fill="#3E3B38" d="M72.311,60.321c-1.208,0-2.186-0.981-2.186-2.186V43.567c0-1.206,0.978-2.186,2.186-2.186
	c1.207,0,2.186,0.979,2.186,2.186v14.568C74.497,59.339,73.518,60.321,72.311,60.321"/>
<rect x="66.483" y="31.911" fill="#FFFFFF" width="11.657" height="11.656"/>
<path fill="#3E3B38" d="M78.14,45.752H66.483c-1.206,0-2.186-0.979-2.186-2.186V31.911c0-1.206,0.979-2.186,2.186-2.186H78.14
	c1.206,0,2.186,0.979,2.186,2.186v11.656C80.325,44.773,79.346,45.752,78.14,45.752 M68.668,41.381h7.284v-7.283h-7.284V41.381z"/>
<rect x="63.569" y="5.684" fill="#D9854B" width="17.485" height="26.227"/>
<path fill="#3E3B38" d="M81.054,34.096H63.569c-1.206,0-2.186-0.979-2.186-2.186V5.686c0-1.206,0.979-2.186,2.186-2.186h17.485
	c1.206,0,2.186,0.979,2.186,2.186v26.225C83.239,33.117,82.26,34.096,81.054,34.096 M65.754,29.725h13.112V7.874H65.754V29.725z"/>
<path fill="#3E3B38" d="M57.743,60.321h-14.57c-1.207,0-2.186-0.981-2.186-2.186c0-1.206,0.979-2.186,2.186-2.186h14.57
	c1.204,0,2.186,0.979,2.186,2.186C59.928,59.339,58.947,60.321,57.743,60.321"/>
<path fill="#3E3B38" d="M54.827,48.667c-0.331,0-0.663-0.075-0.975-0.231l-5.829-2.916c-1.081-0.54-1.519-1.851-0.979-2.93
	c0.541-1.081,1.853-1.51,2.932-0.978l5.828,2.912c1.081,0.542,1.519,1.854,0.979,2.932C56.4,48.224,55.625,48.667,54.827,48.667"/>
<path fill="#3E3B38" d="M89.796,48.667c-0.801,0-1.573-0.442-1.957-1.21c-0.539-1.078-0.103-2.39,0.978-2.932l5.828-2.912
	c1.083-0.532,2.393-0.103,2.935,0.978c0.539,1.079,0.101,2.39-0.979,2.93l-5.828,2.916C90.456,48.592,90.124,48.667,89.796,48.667"
	/>
<path fill="#3E3B38" d="M98.536,60.321H86.882c-1.208,0-2.186-0.981-2.186-2.186c0-1.206,0.978-2.186,2.186-2.186h11.654
	c1.208,0,2.186,0.979,2.186,2.186C100.722,59.339,99.744,60.321,98.536,60.321"/>
</svg>
