<?xml version="1.0" encoding="utf-8"?>
<!-- Generator: Adobe Illustrator 16.0.0, SVG Export Plug-In . SVG Version: 6.00 Build 0)  -->
<!DOCTYPE svg PUBLIC "-//W3C//DTD SVG 1.1//EN" "http://www.w3.org/Graphics/SVG/1.1/DTD/svg11.dtd">
<svg version="1.1" id="Layer_1" xmlns="http://www.w3.org/2000/svg" xmlns:xlink="http://www.w3.org/1999/xlink" x="0px" y="0px"
	 width="145px" height="145px" viewBox="0 0 145 145" enable-background="new 0 0 145 145" xml:space="preserve">
<path fill="#D9854B" d="M66.651,104.422c0,17.516-14.2,31.716-31.716,31.716c-17.518,0-31.714-14.2-31.714-31.716
	s14.197-31.716,31.714-31.716C52.451,72.706,66.651,86.906,66.651,104.422"/>
<path fill="#3E3B38" d="M34.935,138.402c-18.737,0-33.981-15.245-33.981-33.98c0-18.736,15.244-33.981,33.981-33.981
	c18.737,0,33.981,15.245,33.981,33.981C68.917,123.157,53.672,138.402,34.935,138.402 M34.935,74.972
	c-16.24,0-29.449,13.212-29.449,29.45c0,16.237,13.209,29.45,29.449,29.45c16.238,0,29.449-13.213,29.449-29.45
	C64.384,88.184,51.173,74.972,34.935,74.972"/>
<path fill="#3E3B38" d="M9.26,104.422h-6.04H9.26z"/>
<path fill="#3E3B38" d="M9.26,106.688h-6.04c-1.252,0-2.267-1.016-2.267-2.266s1.014-2.264,2.267-2.264h6.04
	c1.252,0,2.267,1.014,2.267,2.264S10.513,106.688,9.26,106.688"/>
<path fill="#FFFFFF" d="M11.732,115.412l-5.459,2.587L11.732,115.412z"/>
<path fill="#3E3B38" d="M6.273,120.265c-0.848,0-1.659-0.477-2.046-1.296c-0.538-1.129-0.054-2.48,1.075-3.017l5.459-2.587
	c1.141-0.529,2.481-0.05,3.019,1.077c0.535,1.129,0.051,2.479-1.077,3.016l-5.459,2.588C6.927,120.194,6.599,120.265,6.273,120.265"
	/>
<path fill="#FFFFFF" d="M6.272,90.845l5.459,2.587L6.272,90.845z"/>
<path fill="#3E3B38" d="M11.731,95.697c-0.325,0-0.654-0.071-0.97-0.219l-5.459-2.588c-1.128-0.536-1.612-1.887-1.075-3.019
	c0.535-1.129,1.882-1.608,3.016-1.074l5.459,2.585c1.128,0.538,1.612,1.889,1.077,3.019C13.392,95.218,12.579,95.697,11.731,95.697"
	/>
<path fill="#D9854B" d="M78.731,104.422c0,17.516,14.2,31.716,31.718,31.716c17.516,0,31.714-14.2,31.714-31.716
	s-14.198-31.716-31.714-31.716C92.932,72.706,78.731,86.906,78.731,104.422"/>
<path fill="#3E3B38" d="M110.449,138.402c-18.738,0-33.98-15.245-33.98-33.98c0-18.736,15.242-33.981,33.98-33.981
	c18.736,0,33.981,15.245,33.981,33.981C144.431,123.157,129.186,138.402,110.449,138.402 M110.449,74.972
	c-16.239,0-29.45,13.212-29.45,29.45c0,16.237,13.211,29.45,29.45,29.45c16.24,0,29.45-13.213,29.45-29.45
	C139.899,88.184,126.689,74.972,110.449,74.972"/>
<path fill="#FFFFFF" d="M136.124,104.422h6.039H136.124z"/>
<path fill="#3E3B38" d="M142.163,106.688h-6.037c-1.255,0-2.268-1.016-2.268-2.266s1.013-2.264,2.268-2.264h6.037
	c1.255,0,2.268,1.014,2.268,2.264S143.418,106.688,142.163,106.688"/>
<path fill="#FFFFFF" d="M133.652,115.412l5.458,2.587L133.652,115.412z"/>
<path fill="#3E3B38" d="M139.11,120.265c-0.324,0-0.652-0.07-0.97-0.219l-5.46-2.588c-1.127-0.536-1.61-1.887-1.077-3.016
	c0.539-1.13,1.885-1.608,3.019-1.077l5.46,2.587c1.127,0.536,1.61,1.888,1.077,3.017
	C140.771,119.788,139.959,120.265,139.11,120.265"/>
<path fill="#FFFFFF" d="M139.11,90.845l-5.458,2.587L139.11,90.845z"/>
<path fill="#3E3B38" d="M133.652,95.697c-0.849,0-1.66-0.479-2.049-1.296c-0.533-1.13-0.05-2.48,1.077-3.019l5.46-2.585
	c1.141-0.531,2.479-0.055,3.019,1.074c0.533,1.132,0.05,2.482-1.077,3.019l-5.46,2.588
	C134.308,95.626,133.977,95.697,133.652,95.697"/>
<path fill="#FFFFFF" d="M124.041,142.179h-21.144c-13.347,0-24.166-10.819-24.166-24.164V69.686h45.31l-3.019,33.226
	L124.041,142.179z"/>
<path fill="#3E3B38" d="M124.038,144.444h-21.141c-14.572,0-26.429-11.854-26.429-26.432V69.686c0-1.25,1.013-2.266,2.263-2.266
	h45.307c0.639,0,1.246,0.269,1.677,0.737c0.427,0.47,0.642,1.1,0.584,1.734l-3.004,33.034l3.004,39.078
	c0.049,0.63-0.166,1.255-0.595,1.716C125.275,144.182,124.673,144.444,124.038,144.444 M80.999,71.951v46.062
	c0,12.078,9.825,21.9,21.898,21.9h18.695l-2.829-36.828c-0.01-0.126-0.01-0.254,0-0.381l2.797-30.753H80.999z"/>
<path fill="#FFFFFF" d="M42.486,142.179H21.343l3.021-39.268l-3.021-33.226H66.65v48.329
	C66.65,131.359,55.831,142.179,42.486,142.179"/>
<path fill="#3E3B38" d="M42.485,144.444H21.344c-0.633,0-1.234-0.263-1.665-0.726c-0.429-0.463-0.645-1.086-0.595-1.713
	l3.004-39.081l-3.002-33.034c-0.058-0.634,0.154-1.264,0.584-1.734c0.428-0.468,1.036-0.737,1.673-0.737h45.307
	c1.25,0,2.265,1.015,2.265,2.266v48.327C68.916,132.59,57.058,144.444,42.485,144.444 M23.79,139.913h18.695
	c12.076,0,21.9-9.822,21.9-21.9V71.951H23.823l2.796,30.753c0.011,0.127,0.011,0.258,0.002,0.381L23.79,139.913z"/>
<rect x="33.425" y="45.521" fill="#84A3AF" width="78.535" height="24.164"/>
<path fill="#3E3B38" d="M111.96,71.951H33.425c-1.249,0-2.266-1.015-2.266-2.265V45.521c0-1.252,1.017-2.266,2.266-2.266h78.535
	c1.25,0,2.263,1.013,2.263,2.266v24.164C114.223,70.936,113.21,71.951,111.96,71.951 M35.689,67.42h74.003V47.787H35.689V67.42z"/>
<path fill="#B9AD33" d="M48.527,99.891c0-5.006,4.056-9.063,9.063-9.063c5.004,0,9.06,4.057,9.06,9.063s-4.056,9.063-9.06,9.063
	C52.583,108.953,48.527,104.896,48.527,99.891"/>
<path fill="#3E3B38" d="M57.59,111.219c-6.247,0-11.329-5.084-11.329-11.328c0-6.245,5.082-11.325,11.329-11.325
	c6.245,0,11.327,5.08,11.327,11.325C68.917,106.135,63.834,111.219,57.59,111.219 M57.59,93.094c-3.748,0-6.797,3.051-6.797,6.797
	s3.049,6.797,6.797,6.797s6.796-3.051,6.796-6.797S61.337,93.094,57.59,93.094"/>
<path fill="#FFFFFF" d="M36.446,124.055c0-3.336,2.706-6.04,6.039-6.04c3.339,0,6.042,2.704,6.042,6.04
	c0,3.338-2.703,6.041-6.042,6.041C39.151,130.096,36.446,127.393,36.446,124.055"/>
<path fill="#3E3B38" d="M42.486,132.361c-4.579,0-8.306-3.726-8.306-8.307c0-4.582,3.727-8.303,8.306-8.303
	c4.582,0,8.309,3.721,8.309,8.303C50.794,128.636,47.067,132.361,42.486,132.361 M42.486,120.278c-2.082,0-3.776,1.697-3.776,3.776
	c0,2.083,1.694,3.775,3.776,3.775c2.084,0,3.776-1.692,3.776-3.775C46.262,121.976,44.57,120.278,42.486,120.278"/>
<path fill="#B9AD33" d="M96.856,99.891c0,5.006-4.057,9.063-9.061,9.063c-5.008,0-9.062-4.057-9.062-9.063s4.054-9.063,9.062-9.063
	C92.8,90.828,96.856,94.885,96.856,99.891"/>
<path fill="#3E3B38" d="M87.794,111.219c-6.247,0-11.328-5.084-11.328-11.328c0-6.245,5.081-11.325,11.328-11.325
	s11.328,5.08,11.328,11.325C99.122,106.135,94.041,111.219,87.794,111.219 M87.794,93.094c-3.746,0-6.795,3.051-6.795,6.797
	s3.049,6.797,6.795,6.797c3.748,0,6.799-3.051,6.799-6.797S91.542,93.094,87.794,93.094"/>
<path fill="#FFFFFF" d="M108.939,124.055c0,3.338-2.706,6.041-6.042,6.041c-3.338,0-6.041-2.703-6.041-6.041
	c0-3.336,2.703-6.04,6.041-6.04C106.233,118.015,108.939,120.719,108.939,124.055"/>
<path fill="#3E3B38" d="M102.897,132.361c-4.581,0-8.31-3.726-8.31-8.307c0-4.582,3.729-8.303,8.31-8.303
	c4.579,0,8.305,3.721,8.305,8.303C111.202,128.636,107.477,132.361,102.897,132.361 M102.897,120.278
	c-2.085,0-3.775,1.697-3.775,3.776c0,2.083,1.69,3.775,3.775,3.775c2.081,0,3.776-1.692,3.776-3.775
	C106.674,121.976,104.979,120.278,102.897,120.278"/>
<path fill="#FFFFFF" d="M133.103,63.644c0,6.674-5.409,12.083-12.08,12.083c-6.676,0-12.083-5.409-12.083-12.083
	c0-6.671,5.407-12.081,12.083-12.081C127.693,51.563,133.103,56.973,133.103,63.644"/>
<path fill="#3E3B38" d="M121.022,77.992c-7.913,0-14.349-6.436-14.349-14.349c0-7.91,6.436-14.344,14.349-14.344
	c7.907,0,14.346,6.434,14.346,14.344C135.368,71.556,128.93,77.992,121.022,77.992 M121.022,53.826c-5.414,0-9.82,4.406-9.82,9.817
	c0,5.415,4.406,9.817,9.82,9.817c5.411,0,9.814-4.403,9.814-9.817C130.837,58.232,126.434,53.826,121.022,53.826"/>
<path fill="#FFFFFF" d="M36.446,63.644c0,6.674-5.409,12.083-12.083,12.083c-6.672,0-12.082-5.409-12.082-12.083
	c0-6.671,5.41-12.081,12.082-12.081C31.037,51.563,36.446,56.973,36.446,63.644"/>
<path fill="#3E3B38" d="M24.363,77.992c-7.91,0-14.348-6.436-14.348-14.349c0-7.91,6.438-14.344,14.348-14.344
	c7.911,0,14.35,6.434,14.35,14.344C38.712,71.556,32.274,77.992,24.363,77.992 M24.363,53.826c-5.411,0-9.817,4.406-9.817,9.817
	c0,5.415,4.407,9.817,9.817,9.817c5.413,0,9.817-4.403,9.817-9.817C34.18,58.232,29.775,53.826,24.363,53.826"/>
<path fill="#FFFFFF" d="M24.363,63.644h-3.019H24.363z"/>
<path fill="#3E3B38" d="M24.363,65.909c-1.238,0-2.264-1.026-2.264-2.266c0-1.239,1.026-2.265,2.264-2.265
	c1.239,0,2.267,1.026,2.267,2.265C26.629,64.883,25.602,65.909,24.363,65.909"/>
<path fill="#FFFFFF" d="M36.446,84.789h-3.021H36.446z"/>
<path fill="#3E3B38" d="M36.446,87.053c-1.239,0-2.267-1.024-2.267-2.266c0-1.239,1.028-2.264,2.267-2.264
	c1.235,0,2.266,1.024,2.266,2.264C38.711,86.028,37.681,87.053,36.446,87.053"/>
<path fill="#FFFFFF" d="M121.022,63.644h-3.021H121.022z"/>
<path fill="#3E3B38" d="M121.022,65.909c-1.239,0-2.269-1.026-2.269-2.266c0-1.239,1.029-2.265,2.269-2.265
	c1.234,0,2.266,1.026,2.266,2.265C123.288,64.883,122.257,65.909,121.022,65.909"/>
<path fill="#FFFFFF" d="M111.96,84.789h-3.021H111.96z"/>
<path fill="#3E3B38" d="M111.96,87.053c-1.239,0-2.268-1.024-2.268-2.266c0-1.239,1.028-2.264,2.268-2.264
	c1.236,0,2.266,1.024,2.266,2.264C114.226,86.028,113.196,87.053,111.96,87.053"/>
<path fill="#3E3B38" d="M96.856,59.868H48.527c-1.25,0-2.266-1.018-2.266-2.265c0-1.25,1.016-2.266,2.266-2.266h48.329
	c1.252,0,2.268,1.015,2.268,2.266C99.124,58.85,98.108,59.868,96.856,59.868"/>
<path fill="#D9854B" d="M63.63,66.665c0-5.006,4.056-9.062,9.063-9.062c5.003,0,9.06,4.056,9.06,9.062s-4.057,9.062-9.06,9.062
	C67.686,75.727,63.63,71.67,63.63,66.665"/>
<path fill="#3E3B38" d="M72.692,77.992c-6.247,0-11.329-5.083-11.329-11.328s5.082-11.328,11.329-11.328
	c6.244,0,11.328,5.083,11.328,11.328S78.937,77.992,72.692,77.992 M72.692,59.868c-3.748,0-6.797,3.051-6.797,6.797
	s3.049,6.796,6.797,6.796c3.749,0,6.797-3.05,6.797-6.796S76.441,59.868,72.692,59.868"/>
<rect x="66.652" y="12.295" fill="#B9AD33" width="12.08" height="33.229"/>
<path fill="#3E3B38" d="M78.731,47.787H66.65c-1.25,0-2.264-1.015-2.264-2.266V12.295c0-1.252,1.013-2.265,2.264-2.265h12.082
	c1.25,0,2.268,1.013,2.268,2.265v33.226C80.999,46.772,79.981,47.787,78.731,47.787 M68.917,43.256h7.552V14.563h-7.552V43.256z"/>
<rect x="102.897" y="3.233" fill="#D9854B" width="12.081" height="21.143"/>
<path fill="#3E3B38" d="M114.979,26.642h-12.081c-1.252,0-2.268-1.016-2.268-2.266V3.233c0-1.25,1.016-2.266,2.268-2.266h12.081
	c1.252,0,2.266,1.015,2.266,2.266v21.143C117.244,25.626,116.23,26.642,114.979,26.642 M105.163,22.111h7.552V5.501h-7.552V22.111z"
	/>
<rect x="78.731" y="12.295" fill="#FFFFFF" width="24.166" height="12.081"/>
<path fill="#3E3B38" d="M102.897,26.642H78.731c-1.248,0-2.263-1.016-2.263-2.266V12.295c0-1.252,1.015-2.265,2.263-2.265h24.166
	c1.25,0,2.266,1.013,2.266,2.265v12.081C105.163,25.626,104.147,26.642,102.897,26.642 M80.999,22.111h19.636v-7.547H80.999V22.111z
	"/>
<path fill="#3E3B38" d="M90.814,14.561c-1.25,0-2.266-1.015-2.266-2.266V9.275c0-1.25,1.016-2.266,2.266-2.266
	s2.266,1.015,2.266,2.266v3.021C93.08,13.546,92.064,14.561,90.814,14.561"/>
<path fill="#3E3B38" d="M90.814,29.663c-1.25,0-2.266-1.015-2.266-2.266v-3.021c0-1.25,1.016-2.266,2.266-2.266
	s2.266,1.015,2.266,2.266v3.021C93.08,28.647,92.064,29.663,90.814,29.663"/>
</svg>
