<?xml version="1.0" encoding="utf-8"?>
<!-- Generator: Adobe Illustrator 16.0.0, SVG Export Plug-In . SVG Version: 6.00 Build 0)  -->
<!DOCTYPE svg PUBLIC "-//W3C//DTD SVG 1.1//EN" "http://www.w3.org/Graphics/SVG/1.1/DTD/svg11.dtd">
<svg version="1.1" id="Layer_1" xmlns="http://www.w3.org/2000/svg" xmlns:xlink="http://www.w3.org/1999/xlink" x="0px" y="0px"
	 width="162px" height="145px" viewBox="0 0 162 145" enable-background="new 0 0 162 145" xml:space="preserve">
<g opacity="0.1">
	<g>
		<defs>
			<rect id="SVGID_1_" x="17.047" y="12.447" width="131.877" height="115.069"/>
		</defs>
		<clipPath id="SVGID_2_">
			<use xlink:href="#SVGID_1_"  overflow="visible"/>
		</clipPath>
		<path clip-path="url(#SVGID_2_)" fill="#84A3AF" d="M17.047,68.365c0-32.669,34.694-55.92,71.109-55.92
			c36.42,0,60.769,23.251,60.769,55.92s-29.521,59.151-65.936,59.151C46.568,127.517,17.047,101.034,17.047,68.365"/>
	</g>
</g>
<path fill="#FFFFFF" d="M28.834,88.817c0-11.952,10.294-16.229,22.992-16.229c12.7,0,22.995,4.277,22.995,16.229
	s-10.295,21.641-22.995,21.641C39.129,110.458,28.834,100.77,28.834,88.817"/>
<path fill="#FFFFFF" d="M91.052,88.817c0-11.952,10.294-16.229,22.993-16.229s22.991,4.277,22.991,16.229
	s-10.292,21.641-22.991,21.641S91.052,100.77,91.052,88.817"/>
<path fill="#3E3B38" d="M139.773,77.079h-3.986c-0.343,0-0.666,0.051-0.97,0.133c-4.123-4.353-11.161-6.655-20.772-6.655
	c-11.908,0-19.863,3.537-23.217,10.122c-3.902-3.804-11.88-3.804-15.783,0c-3.354-6.585-11.31-10.122-23.218-10.122
	c-9.63,0-16.677,2.312-20.793,6.678c-0.335-0.098-0.694-0.155-1.074-0.155h-3.988c-1.653,0-2.991,1.018-2.991,2.269
	c0,1.253,1.338,2.27,2.991,2.27h2.2c-0.9,2.117-1.366,4.519-1.366,7.2c0,13.052,11.223,23.669,25.021,23.669
	s25.021-10.617,25.021-23.669c0-0.722-0.033-1.423-0.1-2.105c0.059-0.19,0.1-0.39,0.1-0.601c0-3.45,3.982-4.364,6.087-4.364
	c1.688,0,3.299,0.45,4.413,1.234c1.125,0.785,1.671,1.809,1.671,3.13c0,0.211,0.044,0.41,0.102,0.601
	c-0.063,0.683-0.102,1.384-0.102,2.105c0,5.437,1.996,10.742,5.62,14.946c0.731,0.849,2.013,0.944,2.861,0.213
	c0.851-0.73,0.942-2.012,0.214-2.859c-3.031-3.519-4.637-7.773-4.637-12.3c0-11.738,11.401-14.201,20.967-14.201
	c9.562,0,20.965,2.463,20.965,14.201c0,10.814-9.405,19.612-20.965,19.612c-2.918,0-5.738-0.55-8.382-1.63
	c-1.038-0.43-2.224,0.076-2.646,1.109c-0.424,1.038,0.073,2.222,1.108,2.646c3.134,1.281,6.472,1.931,9.919,1.931
	c13.795,0,25.021-10.617,25.021-23.669c0-2.682-0.466-5.083-1.366-7.2h2.073c1.65,0,2.991-1.017,2.991-2.27
	C142.765,78.097,141.424,77.079,139.773,77.079 M51.827,108.43c-11.56,0-20.964-8.798-20.964-19.612
	c0-11.738,11.399-14.201,20.964-14.201s20.964,2.463,20.964,14.201C72.791,99.632,63.388,108.43,51.827,108.43"/>
<path fill="#FFFFFF" d="M102.127,50.494c0-5.942,5.118-8.069,11.433-8.069c6.312,0,11.43,2.127,11.43,8.069
	c0,5.942-5.118,10.759-11.43,10.759C107.245,61.253,102.127,56.437,102.127,50.494"/>
<path fill="#FFFFFF" d="M133.058,50.494c0-5.942,5.116-8.069,11.43-8.069s11.432,2.127,11.432,8.069
	c0,5.942-5.118,10.759-11.432,10.759S133.058,56.437,133.058,50.494"/>
<path fill="#B9AD33" d="M158.125,43.512h-2.389c-0.437,0-0.831,0.123-1.142,0.32c-2.184-1.896-5.591-2.901-10.107-2.901
	c-6.109,0-10.005,1.553-11.786,4.703c-1.024-0.722-2.354-1.094-3.678-1.094c-1.351,0-2.709,0.386-3.742,1.136
	c-1.847-3.118-5.803-4.745-11.725-4.745c-4.427,0-7.787,0.968-9.974,2.792c-0.278-0.132-0.604-0.211-0.954-0.211h-2.389
	c-0.988,0-1.791,0.605-1.791,1.355c0,0.752,0.803,1.36,1.791,1.36h1.335c-0.615,1.226-0.94,2.646-0.94,4.267
	c0,6.755,5.796,12.251,12.922,12.251c7.127,0,12.923-5.497,12.923-12.251c0-0.341-0.015-0.67-0.044-0.996
	c0.029-0.111,0.044-0.228,0.044-0.351c0-1.664,2.519-1.683,2.544-1.683c0.743,0,1.442,0.19,1.917,0.525
	c0.43,0.302,0.625,0.659,0.625,1.158c0,0.118,0.016,0.232,0.044,0.341c-0.028,0.327-0.044,0.657-0.044,1.005
	c0,2.818,1.032,5.569,2.908,7.746c0.26,0.302,0.622,0.485,1.017,0.515c0.398,0.03,0.785-0.095,1.092-0.357
	c0.301-0.26,0.482-0.622,0.515-1.019c0.027-0.399-0.1-0.784-0.359-1.086c-1.431-1.659-2.188-3.665-2.188-5.798
	c0-5.434,5.401-6.576,9.938-6.576c8.213,0,9.939,3.577,9.939,6.576c0,5.109-4.459,9.264-9.939,9.264c-1.384,0-2.726-0.26-3.98-0.773
	c-0.369-0.151-0.773-0.151-1.146,0.002c-0.366,0.156-0.653,0.443-0.807,0.815c-0.307,0.761,0.058,1.634,0.818,1.948
	c1.618,0.661,3.336,0.996,5.114,0.996c7.127,0,12.925-5.497,12.925-12.251c0-1.62-0.325-3.041-0.942-4.267h1.655
	c0.988,0,1.789-0.608,1.789-1.36C159.914,44.118,159.113,43.512,158.125,43.512 M123.494,50.494c0,5.109-4.456,9.264-9.938,9.264
	c-5.477,0-9.934-4.155-9.934-9.264c0-5.434,5.401-6.576,9.934-6.576C121.77,43.918,123.494,47.496,123.494,50.494"/>
<path fill="#FFFFFF" d="M7.374,45.875c0-8.904,7.67-12.091,17.131-12.091c9.46,0,17.13,3.188,17.13,12.091
	c0,8.904-7.67,16.123-17.13,16.123C15.044,61.998,7.374,54.779,7.374,45.875"/>
<path fill="#FFFFFF" d="M53.726,45.875c0-8.904,7.67-12.091,17.13-12.091s17.131,3.188,17.131,12.091
	c0,8.904-7.671,16.123-17.131,16.123S53.726,54.779,53.726,45.875"/>
<path fill="#D9854B" d="M89.763,35.409h-3.899c-0.265,0-0.516,0.033-0.762,0.079c-3.133-2.317-7.865-3.458-14.245-3.458
	c-9.116,0-15.303,1.321-17.729,7.073c-1.497-1.124-3.508-1.665-5.448-1.665c-2.016,0-4.112,0.585-5.623,1.806
	c-2.49-4.896-8.293-7.296-17.552-7.296c-6.083,0-10.803,1.223-14.015,3.559c-0.268-0.058-0.549-0.098-0.846-0.098H5.748
	c-1.614,0-2.924,0.912-2.924,2.036s1.31,2.038,2.924,2.038h1.255c-0.965,1.822-1.465,3.96-1.465,6.391
	c0,9.902,8.51,17.959,18.966,17.959c10.456,0,18.965-8.057,18.965-17.959c0-0.652-0.034-1.279-0.095-1.885
	c0.004-0.044,0.015-0.086,0.015-0.13c0-2.379,2.806-3.008,4.29-3.008c1.21,0,2.358,0.32,3.152,0.875
	c0.768,0.536,1.142,1.234,1.142,2.133c0,0.142,0.021,0.281,0.054,0.411c-0.033,0.515-0.054,1.047-0.054,1.604
	c0,4.11,1.506,8.12,4.243,11.294c0.307,0.355,0.729,0.569,1.198,0.606c0.469,0.04,0.921-0.114,1.278-0.42
	c0.729-0.634,0.813-1.743,0.182-2.475c-2.222-2.577-3.393-5.687-3.393-9.006c0-8.542,8.362-10.336,15.375-10.336
	c7.015,0,15.378,1.794,15.378,10.336c0,7.924-6.899,14.371-15.378,14.371c-2.139,0-4.209-0.404-6.151-1.196
	c-0.434-0.179-0.908-0.179-1.341,0.002c-0.436,0.181-0.773,0.52-0.948,0.956c-0.367,0.894,0.063,1.92,0.96,2.287
	c2.365,0.968,4.882,1.458,7.48,1.458c10.413,0,18.883-8.02,18.883-17.878c0-2.465-0.437-4.591-1.31-6.391h1.333
	c1.61,0,2.921-0.915,2.921-2.038S91.373,35.409,89.763,35.409 M39.8,45.873c0,7.878-6.863,14.289-15.295,14.289
	c-8.433,0-15.296-6.411-15.296-14.289c0-8.478,8.317-10.253,15.296-10.253C31.48,35.62,39.8,37.396,39.8,45.873"/>
<path fill="#3E3B38" d="M96.614,104.89c-0.468,0-0.937-0.16-1.322-0.497c-0.88-0.759-0.999-2.109-0.268-3.018l13.814-17.151
	c0.735-0.909,2.042-1.035,2.919-0.273c0.881,0.759,0.998,2.109,0.265,3.02l-13.815,17.148
	C97.798,104.627,97.209,104.89,96.614,104.89"/>
<path fill="#3E3B38" d="M112.547,104.244c-0.486,0-0.97-0.176-1.364-0.532c-0.861-0.777-0.949-2.135-0.195-3.024l19.341-22.866
	c0.757-0.886,2.063-0.979,2.925-0.199c0.86,0.777,0.948,2.136,0.195,3.024l-19.341,22.866
	C113.696,103.998,113.123,104.244,112.547,104.244"/>
<path fill="#3E3B38" d="M35.429,104.885c-0.468,0-0.939-0.16-1.325-0.497c-0.879-0.759-0.998-2.11-0.266-3.017l13.814-17.152
	c0.735-0.91,2.042-1.035,2.919-0.273c0.88,0.76,0.998,2.11,0.263,3.02l-13.814,17.149C36.613,104.622,36.023,104.885,35.429,104.885
	"/>
<path fill="#3E3B38" d="M51.361,104.239c-0.485,0-0.97-0.177-1.363-0.531c-0.862-0.777-0.95-2.136-0.197-3.024l19.341-22.866
	c0.755-0.887,2.063-0.979,2.924-0.199c0.862,0.777,0.95,2.135,0.195,3.024l-19.339,22.866
	C52.511,103.993,51.938,104.239,51.361,104.239"/>
</svg>
