<?xml version="1.0" encoding="utf-8"?>
<!-- Generator: Adobe Illustrator 16.0.0, SVG Export Plug-In . SVG Version: 6.00 Build 0)  -->
<!DOCTYPE svg PUBLIC "-//W3C//DTD SVG 1.1//EN" "http://www.w3.org/Graphics/SVG/1.1/DTD/svg11.dtd">
<svg version="1.1" id="Layer_1" xmlns="http://www.w3.org/2000/svg" xmlns:xlink="http://www.w3.org/1999/xlink" x="0px" y="0px"
	 width="145px" height="145px" viewBox="0 0 145 145" enable-background="new 0 0 145 145" xml:space="preserve">
<path fill="#FFFFFF" d="M132.763,70.16c0,0-15.632,35.956-59.925,35.956c-44.293,0-59.925-35.956-59.925-35.956
	s13.027-35.956,59.925-35.956S132.763,70.16,132.763,70.16"/>
<path fill="#3E3B38" d="M72.838,108.362c-45.244,0-61.826-36.933-61.987-37.307c-0.229-0.527-0.249-1.12-0.052-1.664
	c0.138-0.373,14.118-37.436,62.039-37.436c47.921,0,61.903,37.063,62.037,37.436c0.196,0.543,0.179,1.136-0.05,1.664
	C134.664,71.429,118.079,108.362,72.838,108.362 M15.359,70.087c2.639,5.38,18.418,33.781,57.479,33.781
	c39.059,0,54.84-28.401,57.479-33.781c-2.283-5.402-16.193-33.636-57.479-33.636C31.552,36.451,17.641,64.685,15.359,70.087"/>
<path fill="#B9AD33" d="M36.882,70.16c0-19.857,16.098-35.956,35.956-35.956s35.956,16.098,35.956,35.956
	c0,19.857-16.099,35.956-35.956,35.956S36.882,90.017,36.882,70.16"/>
<path fill="#3E3B38" d="M72.838,108.362c-21.063,0-38.203-17.137-38.203-38.203c0-21.064,17.14-38.203,38.203-38.203
	s38.203,17.139,38.203,38.203c0,2.426-0.231,4.861-0.682,7.229c-0.235,1.22-1.419,2.019-2.632,1.783
	c-1.218-0.231-2.017-1.41-1.783-2.626c0.398-2.091,0.602-4.239,0.602-6.386c0-18.585-15.122-33.708-33.708-33.708
	c-18.588,0-33.708,15.123-33.708,33.708c0,18.587,15.12,33.708,33.708,33.708c11.995,0,23.182-6.457,29.197-16.853
	c0.623-1.072,2.003-1.435,3.071-0.819c1.075,0.625,1.439,1.999,0.819,3.074C99.111,101.048,86.433,108.362,72.838,108.362"/>
<path fill="#FFFFFF" d="M51.862,68.661c0-11.583,9.393-20.973,20.976-20.973s20.976,9.39,20.976,20.973s-9.393,20.976-20.976,20.976
	S51.862,80.244,51.862,68.661"/>
<path fill="#3E3B38" d="M72.838,91.882c-12.805,0-23.223-10.415-23.223-23.221c0-12.803,10.417-23.22,23.223-23.22
	c12.806,0,23.221,10.417,23.221,23.22C96.059,81.467,85.644,91.882,72.838,91.882 M72.838,49.936
	c-10.327,0-18.728,8.401-18.728,18.726c0,10.327,8.401,18.729,18.728,18.729s18.729-8.401,18.729-18.729
	C91.566,58.336,83.165,49.936,72.838,49.936"/>
<path fill="#D9854B" d="M3.923,36.451c-1.24,0-2.248-1.007-2.248-2.247V22.22c0-1.243,1.007-2.248,2.248-2.248h11.983
	c1.243,0,2.248,1.005,2.248,2.248c0,1.24-1.005,2.248-2.248,2.248H6.17v9.736C6.17,35.444,5.166,36.451,3.923,36.451"/>
<path fill="#D9854B" d="M141.753,36.451c-1.243,0-2.248-1.007-2.248-2.247v-9.736h-9.736c-1.242,0-2.247-1.007-2.247-2.248
	c0-1.243,1.005-2.248,2.247-2.248h11.984c1.24,0,2.247,1.005,2.247,2.248v11.984C144,35.444,142.993,36.451,141.753,36.451"/>
<path fill="#D9854B" d="M141.753,120.349h-11.984c-1.242,0-2.247-1.007-2.247-2.247s1.005-2.248,2.247-2.248h9.736v-9.738
	c0-1.24,1.005-2.247,2.248-2.247c1.24,0,2.247,1.007,2.247,2.247v11.986C144,119.342,142.993,120.349,141.753,120.349"/>
<path fill="#D9854B" d="M15.909,120.349H3.923c-1.24,0-2.248-1.007-2.248-2.247v-11.986c0-1.24,1.007-2.247,2.248-2.247
	s2.247,1.007,2.247,2.247v9.738h9.739c1.24,0,2.247,1.008,2.247,2.248S17.149,120.349,15.909,120.349"/>
<path fill="#84A3AF" d="M24.898,72.407H3.923c-1.24,0-2.248-1.007-2.248-2.247s1.007-2.245,2.248-2.245h20.975
	c1.238,0,2.248,1.005,2.248,2.245S26.137,72.407,24.898,72.407"/>
<path fill="#84A3AF" d="M141.753,72.407h-20.974c-1.24,0-2.249-1.007-2.249-2.247s1.009-2.245,2.249-2.245h20.974
	c1.24,0,2.247,1.005,2.247,2.245S142.993,72.407,141.753,72.407"/>
<path fill="#84A3AF" d="M96.81,72.407H48.866c-1.24,0-2.245-1.007-2.245-2.247s1.005-2.245,2.245-2.245H96.81
	c1.238,0,2.245,1.005,2.245,2.245S98.048,72.407,96.81,72.407"/>
<path fill="#84A3AF" d="M72.838,96.377c-1.24,0-2.248-1.005-2.248-2.248V46.19c0-1.238,1.007-2.248,2.248-2.248
	s2.247,1.009,2.247,2.248v47.939C75.085,95.372,74.078,96.377,72.838,96.377"/>
</svg>
