<?xml version="1.0" encoding="utf-8"?>
<!-- Generator: Adobe Illustrator 16.0.0, SVG Export Plug-In . SVG Version: 6.00 Build 0)  -->
<!DOCTYPE svg PUBLIC "-//W3C//DTD SVG 1.1//EN" "http://www.w3.org/Graphics/SVG/1.1/DTD/svg11.dtd">
<svg version="1.1" id="Layer_1" xmlns="http://www.w3.org/2000/svg" xmlns:xlink="http://www.w3.org/1999/xlink" x="0px" y="0px"
	 width="145px" height="145px" viewBox="0 0 145 145" enable-background="new 0 0 145 145" xml:space="preserve">
<rect x="89.083" y="105.203" fill="#FFFFFF" width="47.27" height="35.455"/>
<path fill="#3E3B38" d="M136.353,142.874h-47.27c-1.226,0-2.219-0.991-2.219-2.216v-35.454c0-1.222,0.993-2.216,2.219-2.216h47.27
	c1.223,0,2.219,0.994,2.219,2.216v35.454C138.571,141.883,137.575,142.874,136.353,142.874 M91.296,138.441h42.84v-31.019h-42.84
	V138.441z"/>
<polygon fill="#B9AD33" points="109.763,105.204 89.08,105.204 92.035,93.386 103.855,93.386 "/>
<path fill="#3E3B38" d="M109.76,107.421H89.08c-0.683,0-1.327-0.314-1.745-0.853c-0.422-0.538-0.568-1.241-0.404-1.901l2.955-11.816
	c0.246-0.986,1.134-1.681,2.149-1.681h11.818c0.839,0,1.607,0.474,1.982,1.228l5.909,11.817c0.344,0.686,0.305,1.501-0.1,2.155
	C111.244,107.021,110.527,107.421,109.76,107.421 M91.919,102.988h14.261l-3.694-7.386h-8.721L91.919,102.988z"/>
<rect x="92.035" y="72.706" fill="#FFFFFF" width="11.818" height="20.68"/>
<path fill="#3E3B38" d="M103.854,95.603H92.035c-1.224,0-2.216-0.993-2.216-2.217v-20.68c0-1.223,0.992-2.216,2.216-2.216h11.818
	c1.223,0,2.216,0.994,2.216,2.216v20.68C106.069,94.609,105.076,95.603,103.854,95.603 M94.251,91.17h7.387V74.922h-7.387V91.17z"/>
<rect x="115.669" y="52.026" fill="#84A3AF" width="23.636" height="29.544"/>
<path fill="#3E3B38" d="M139.308,83.785h-23.639c-1.222,0-2.213-0.992-2.213-2.215V52.024c0-1.224,0.991-2.212,2.213-2.212h23.639
	c1.222,0,2.213,0.988,2.213,2.212V81.57C141.521,82.793,140.529,83.785,139.308,83.785 M117.886,79.354h19.205V54.239h-19.205
	V79.354z"/>
<rect x="92.035" y="60.888" fill="#D9854B" width="11.818" height="11.818"/>
<path fill="#3E3B38" d="M103.854,74.922H92.035c-1.224,0-2.216-0.993-2.216-2.216V60.888c0-1.223,0.992-2.216,2.216-2.216h11.818
	c1.223,0,2.216,0.993,2.216,2.216v11.818C106.069,73.929,105.076,74.922,103.854,74.922 M94.251,70.49h7.387v-7.387h-7.387V70.49z"
	/>
<path fill="#D9854B" d="M124.533,122.931c0-3.264-2.644-5.908-5.909-5.908c-3.262,0-5.909,2.645-5.909,5.908
	c0,3.265,2.647,5.909,5.909,5.909C121.89,128.84,124.533,126.195,124.533,122.931"/>
<path fill="#3E3B38" d="M118.626,131.056c-4.482,0-8.127-3.645-8.127-8.125c0-4.481,3.645-8.121,8.127-8.121
	c4.481,0,8.124,3.64,8.124,8.121C126.75,127.411,123.107,131.056,118.626,131.056 M118.626,119.237c-2.04,0-3.693,1.659-3.693,3.693
	c0,2.037,1.653,3.692,3.693,3.692c2.035,0,3.691-1.655,3.691-3.692C122.317,120.896,120.661,119.237,118.626,119.237"/>
<path fill="#3E3B38" d="M42.257,142.874c-1.223,0-2.215-0.994-2.215-2.216v-14.772c0-1.224,0.992-2.218,2.215-2.218h11.814
	c9.439,0,9.6-12.048,9.602-12.561V90.432c0-1.152,0.879-2.109,2.026-2.207l10.346-0.889c0.537-0.009,0.723-0.225,0.803-0.354
	c0.083-0.132,0.195-0.405,0.032-0.729C66.626,59.033,66.626,58.446,66.626,57.933c0-1.797,0.135-3.774,0.277-5.865
	c0.267-3.959,0.571-8.444-0.2-11.276C60.339,17.401,44.599,6.97,15.675,6.97c-2.468,0-6.845,0.877-11.148,2.236
	C3.357,9.583,2.117,8.93,1.746,7.76C1.378,6.596,2.025,5.348,3.192,4.982c3.739-1.183,8.981-2.444,12.483-2.444
	c30.847,0,48.42,11.785,55.304,37.089c0.967,3.553,0.65,8.224,0.343,12.743c-0.125,1.868-0.251,3.682-0.262,5.295
	c0.67,2.189,6.334,17.407,9.87,26.805c0.723,1.391,0.649,3.281-0.302,4.828c-0.946,1.54-2.586,2.462-4.392,2.462l-8.131,0.703v18.65
	c0,5.877-2.935,16.987-14.033,16.987h-9.599v12.558C44.473,141.88,43.482,142.874,42.257,142.874"/>
<path fill="#3E3B38" d="M42.257,128.101H27.491c-10.1,0-15.439-4.519-18.139-8.308c-0.711-1-0.478-2.381,0.519-3.094
	c0.995-0.707,2.379-0.477,3.088,0.518c3.049,4.282,7.939,6.454,14.532,6.454h14.767c1.225,0,2.216,0.991,2.216,2.215
	C44.473,127.107,43.482,128.101,42.257,128.101"/>
<rect x="38.857" y="31.343" fill="#B9AD33" width="11.816" height="109.315"/>
<path fill="#3E3B38" d="M50.673,142.874H38.857c-1.225,0-2.217-0.994-2.217-2.216V31.343c0-1.223,0.992-2.215,2.217-2.215h11.816
	c1.223,0,2.216,0.993,2.216,2.215v14.773c0,1.224-0.993,2.216-2.216,2.216c-1.223,0-2.217-0.993-2.217-2.216V33.56h-7.385v104.882
	h7.385V57.933c0-1.223,0.994-2.216,2.217-2.216c1.223,0,2.216,0.993,2.216,2.216v82.725C52.89,141.88,51.896,142.874,50.673,142.874
	"/>
<polygon fill="#FFFFFF" points="74.31,43.162 50.675,43.162 50.675,31.343 71.355,31.343 "/>
<path fill="#3E3B38" d="M74.31,45.378H50.673c-1.222,0-2.214-0.993-2.214-2.216V31.343c0-1.223,0.992-2.215,2.214-2.215h20.683
	c1.015,0,1.9,0.692,2.148,1.68l2.955,11.816c0.167,0.661,0.015,1.364-0.401,1.901C75.635,45.063,74.992,45.378,74.31,45.378
	 M52.89,40.946h18.58l-1.843-7.387H52.89V40.946z"/>
<polygon fill="#84A3AF" points="68.4,125.886 68.4,114.068 50.675,114.068 50.675,131.795 59.537,137.704 89.08,137.704 
	89.08,125.886 "/>
<path fill="#3E3B38" d="M89.08,139.919H59.537c-0.437,0-0.864-0.129-1.23-0.372l-8.861-5.909c-0.617-0.409-0.987-1.103-0.987-1.843
	v-17.727c0-1.225,0.992-2.216,2.217-2.216H68.4c1.223,0,2.217,0.991,2.217,2.216v9.6H89.08c1.224,0,2.216,0.994,2.216,2.218v11.818
	C91.296,138.926,90.304,139.919,89.08,139.919 M60.208,135.487h26.659v-7.387H68.4c-1.223,0-2.216-0.993-2.216-2.215v-9.601H52.889
	v14.324L60.208,135.487z"/>
<path fill="#3E3B38" d="M127.487,60.148c-1.222,0-2.215-0.995-2.215-2.215v-5.909c0-1.224,0.993-2.214,2.215-2.214
	c1.227,0,2.217,0.99,2.217,2.214v5.909C129.704,59.154,128.714,60.148,127.487,60.148"/>
<path fill="#3E3B38" d="M100.898,125.146H89.083c-1.226,0-2.216-0.994-2.216-2.216c0-1.224,0.99-2.217,2.216-2.217h11.815
	c1.224,0,2.216,0.993,2.216,2.217C103.114,124.152,102.122,125.146,100.898,125.146"/>
<path fill="#3E3B38" d="M127.487,107.421c-1.222,0-2.215-0.993-2.215-2.217V81.57c0-1.225,0.993-2.216,2.215-2.216
	c1.227,0,2.217,0.991,2.217,2.216v23.634C129.704,106.428,128.714,107.421,127.487,107.421"/>
<path fill="#FFFFFF" d="M68.4,125.886h-2.955H68.4z"/>
<path fill="#3E3B38" d="M68.4,128.101h-2.955c-1.223,0-2.216-0.993-2.216-2.215c0-1.224,0.993-2.215,2.216-2.215H68.4
	c1.223,0,2.217,0.991,2.217,2.215C70.617,127.107,69.623,128.101,68.4,128.101"/>
</svg>
