<?xml version="1.0" encoding="utf-8"?>
<!-- Generator: Adobe Illustrator 16.0.0, SVG Export Plug-In . SVG Version: 6.00 Build 0)  -->
<!DOCTYPE svg PUBLIC "-//W3C//DTD SVG 1.1//EN" "http://www.w3.org/Graphics/SVG/1.1/DTD/svg11.dtd">
<svg version="1.1" id="Layer_1" xmlns="http://www.w3.org/2000/svg" xmlns:xlink="http://www.w3.org/1999/xlink" x="0px" y="0px"
	 width="150.711px" height="80.719px" viewBox="0 0 150.711 80.719" enable-background="new 0 0 150.711 80.719"
	 xml:space="preserve">
<path fill="#AEA230" d="M47.952,41.595c0-0.031,0.002-0.064,0.002-0.095c-0.002-1.275-1.037-2.31-2.311-2.308H14.831
	c-1.275,0-2.31,1.036-2.31,2.31c0,1.275,1.035,2.311,2.31,2.311h30.813c1.273,0,2.309-1.036,2.309-2.311V41.595z"/>
<path fill="#AEA230" d="M22.406,21.939c-1.276,0-2.309,1.034-2.309,2.31c0,1.275,1.033,2.309,2.309,2.309h18.478
	c1.276,0,2.308-1.034,2.308-2.309c0-1.276-1.032-2.31-2.308-2.31H22.406z"/>
<path fill="#AEA230" d="M71.075,62.771V62.68H52.709l9.03-57.877H88.16L86.015,18.66c-0.103,0.663,0.092,1.339,0.53,1.849
	c0.438,0.512,1.079,0.808,1.754,0.808h11.41c1.152,0.013,2.136-0.826,2.308-1.964l2.312-14.504h26.352l-6.7,42.8
	c1.553-0.77,3.22-1.311,4.944-1.641L135.67,2.84c0.095-0.668-0.11-1.343-0.556-1.849c-0.438-0.512-1.078-0.808-1.754-0.808H59.774
	c-1.143-0.015-2.123,0.809-2.309,1.94l-9.746,62.52c-0.193,1.261,0.676,2.438,1.937,2.628c0.124,0.021,0.249,0.03,0.372,0.028
	h21.047v-0.107V62.771z M92.849,4.803h6.722l-1.848,11.849h-6.676L92.849,4.803z"/>
<path fill="#AEA230" d="M47.952,10.646c0-1.276-1.035-2.31-2.309-2.31H2.544c-1.274,0-2.309,1.034-2.309,2.31
	c0,1.275,1.034,2.309,2.309,2.309h43.099C46.917,12.956,47.952,11.921,47.952,10.646"/>
<path fill="#AEA230" d="M36.265,52.218h-9.239c-1.276,0-2.311,1.036-2.311,2.309c0,1.276,1.034,2.313,2.311,2.313h9.239
	c1.276,0,2.308-1.036,2.308-2.313C38.573,53.254,37.542,52.218,36.265,52.218"/>
<path fill="#3D3939" d="M147.999,62.771c-1.081-7.579-7.706-13.4-15.45-13.4c-1.461,0-2.886,0.217-4.246,0.604
	c-1.853,0.523-3.563,1.406-5.083,2.542c-2.052,1.537-3.753,3.546-4.857,5.945c-1.545-1.331-3.517-2.071-5.595-2.071
	c-2.079,0-4.053,0.74-5.598,2.071c-2.523-5.491-8.053-9.091-14.186-9.091c-7.711,0-14.31,5.773-15.433,13.309
	c-0.004,0.031-0.011,0.061-0.019,0.092h-2.714v4.422h2.714c0.008,0.036,0.015,0.07,0.019,0.107
	c1.133,7.526,7.729,13.293,15.433,13.293c7.819-0.002,14.296-5.787,15.421-13.293c0.114-0.758,0.191-1.527,0.191-2.316
	c0.001-0.852,0.263-1.641,0.704-2.305c0.749-1.122,2.021-1.863,3.464-1.865c1.443,0.002,2.719,0.743,3.468,1.865
	c0.442,0.662,0.704,1.453,0.705,2.305c0,0.787,0.079,1.559,0.191,2.316c1.128,7.509,7.604,13.293,15.42,13.293
	c7.744,0,14.369-5.82,15.45-13.4h2.712v-4.422H147.999z M104.172,64.98c0,0.795-0.09,1.57-0.249,2.32
	c-1.082,5.049-5.574,8.859-10.938,8.871c-5.364-0.013-9.859-3.822-10.938-8.871c-0.16-0.749-0.248-1.523-0.249-2.316
	c0.001-0.79,0.087-1.559,0.246-2.305c1.071-5.059,5.572-8.877,10.941-8.888c5.367,0.011,9.871,3.83,10.944,8.888
	C104.085,63.423,104.172,64.193,104.172,64.98 M132.549,76.172c-5.363-0.012-9.859-3.822-10.941-8.871
	c-0.156-0.749-0.244-1.523-0.248-2.319c0.004-0.788,0.087-1.559,0.245-2.302c0.017-0.067,0.038-0.131,0.054-0.198
	c0.757-3.265,2.941-5.982,5.858-7.466c1.515-0.773,3.222-1.218,5.03-1.224c6.16,0.014,11.181,5.032,11.188,11.187
	C143.728,71.14,138.708,76.159,132.549,76.172"/>
</svg>
