<?xml version="1.0" encoding="utf-8"?>
<!-- Generator: Adobe Illustrator 16.0.0, SVG Export Plug-In . SVG Version: 6.00 Build 0)  -->
<!DOCTYPE svg PUBLIC "-//W3C//DTD SVG 1.1//EN" "http://www.w3.org/Graphics/SVG/1.1/DTD/svg11.dtd">
<svg version="1.1" id="Layer_1" xmlns="http://www.w3.org/2000/svg" xmlns:xlink="http://www.w3.org/1999/xlink" x="0px" y="0px"
	 width="39.583px" height="39.247px" viewBox="0 0 39.583 39.247" enable-background="new 0 0 39.583 39.247" xml:space="preserve">
<path fill="#B9AC31" d="M38.857,15.265l-3.721-1.176l-0.136-0.037l-0.07,0.12c-0.184,0.325-0.377,0.66-0.564,1.041l-0.092,0.18
	l3.604,1.154v19.135l-7.893-2.481V22.024l-0.002-0.222l-0.214,0.055c-0.369,0.092-0.683,0.087-1.048,0l-0.217-0.057v11.444
	l-7.893,2.481V16.546l3.603-1.154l-0.09-0.18c-0.189-0.384-0.385-0.721-0.568-1.046l-0.071-0.122l-3.519,1.158l-9.205-2.864
	L0.97,15.269c-0.333,0.134-0.533,0.405-0.533,0.727v20.721c0,0.275,0.153,0.463,0.285,0.595c0.148,0.146,0.346,0.146,0.454,0.146
	c0.072,0,0.145-0.004,0.239-0.056l9.179-2.855l9.132,2.855l0.027,0.008l9.493-2.863l9.177,2.855l0.048,0.014
	c0.038,0.016,0.104,0.042,0.194,0.042c0.179,0,0.305-0.064,0.425-0.122c0.189-0.128,0.311-0.371,0.311-0.618V15.996
	C39.401,15.662,39.19,15.376,38.857,15.265 M19.229,16.546v19.135l-7.894-2.481V14.066L19.229,16.546z M9.857,14.066v19.133
	l-7.894,2.481V16.546L9.857,14.066z"/>
<path fill="#B9AC31" d="M25.043,13.765c0.05,0.086,0.098,0.175,0.149,0.265c0.144,0.263,0.296,0.533,0.467,0.772
	c1.178,2.008,2.462,3.875,2.959,4.561c0.05,0.101,0.105,0.16,0.109,0.16h-0.004c0.128,0.188,0.367,0.312,0.615,0.312
	c0.247,0,0.49-0.124,0.594-0.286c0.013-0.014,0.072-0.073,0.112-0.163c0.399-0.549,1.684-2.458,2.975-4.577
	c0.233-0.378,0.423-0.707,0.618-1.052c0.186-0.368,0.373-0.697,0.564-1.032c1.295-2.445,1.951-4.296,1.951-5.498
	c0-1.79-0.702-3.505-1.982-4.832c-1.297-1.297-2.969-1.981-4.832-1.981c-1.762,0-3.523,0.722-4.828,1.978l-0.002,0.004
	c-1.299,1.298-1.985,2.967-1.985,4.832c0,1.201,0.658,3.053,1.963,5.515C24.666,13.059,24.857,13.389,25.043,13.765 M24.052,7.273
	c0-2.942,2.39-5.336,5.337-5.336c0.025,0,0.056-0.002,0.081-0.002c1.355,0,2.634,0.529,3.615,1.493
	c1.025,1.011,1.593,2.359,1.593,3.798c0,0.959-0.663,2.674-1.909,4.952c-0.094,0.168-0.189,0.345-0.286,0.524
	c-0.092,0.176-0.188,0.351-0.281,0.515c-0.878,1.55-1.812,3.001-2.447,3.956c-0.134,0.234-0.268,0.447-0.403,0.632
	c-0.028-0.042-0.062-0.084-0.092-0.128c-0.107-0.151-0.229-0.323-0.339-0.515c-0.487-0.732-1.222-1.845-1.979-3.11
	c-0.118-0.178-0.216-0.353-0.31-0.519c-0.054-0.096-0.105-0.188-0.151-0.262c-0.193-0.386-0.385-0.721-0.564-1.041
	C24.373,9.384,24.052,7.964,24.052,7.273"/>
<path fill="#B9AC31" d="M29.341,10.273c1.707,0,3.046-1.338,3.046-3.046S31.048,4.18,29.341,4.18c-1.682,0-3.049,1.368-3.049,3.046
	C26.292,8.935,27.631,10.273,29.341,10.273 M27.866,7.227c0-0.84,0.683-1.522,1.521-1.522c0.823,0,1.522,0.697,1.522,1.522
	c0,0.84-0.683,1.522-1.522,1.522C28.549,8.749,27.866,8.066,27.866,7.227"/>
</svg>
