<?xml version="1.0" encoding="utf-8"?>
<!-- Generator: Adobe Illustrator 16.0.0, SVG Export Plug-In . SVG Version: 6.00 Build 0)  -->
<!DOCTYPE svg PUBLIC "-//W3C//DTD SVG 1.1//EN" "http://www.w3.org/Graphics/SVG/1.1/DTD/svg11.dtd">
<svg version="1.1" id="Layer_1" xmlns="http://www.w3.org/2000/svg" xmlns:xlink="http://www.w3.org/1999/xlink" x="0px" y="0px"
	 width="220.844px" height="66.797px" viewBox="0 0 220.844 66.797" enable-background="new 0 0 220.844 66.797"
	 xml:space="preserve">
<path fill="#3D3A37" d="M56.772,19.785c0,3.797-1.323,7.544-3.966,11.252c-2.26,3.174-5.195,5.961-8.8,8.364
	c0.19,0.437,0.288,0.77,0.288,1.011c0,0.673-0.238,1.008-0.721,1.008c-0.19,0-0.528-0.384-1.009-1.149
	c-7.211,4.327-15.505,6.486-24.881,6.486c-1.01,0-1.974-0.025-2.885-0.07c-3.272-0.143-6.301-0.82-9.089-2.02
	c-3.747-1.59-5.625-3.726-5.625-6.423c0-3.216,1.515-5.863,4.542-7.931c2.645-1.729,5.675-2.69,9.09-2.887
	c2.163-5.044,4.519-9.878,7.067-14.493c0.768-1.492,1.9-3.391,3.389-5.699c0.819-1.061,2.045-1.586,3.68-1.586
	c0.675,0,1.009,0.192,1.009,0.577c0,0.147-0.048,0.288-0.144,0.431c-4.52,6.107-8.703,13.031-12.549,20.77
	c12.934,0.292,21.755,3.539,26.469,9.74c3.172-2.21,5.768-4.762,7.789-7.645c2.353-3.365,3.536-6.731,3.536-10.098
	c0-5.434-3.057-9.592-9.161-12.479C40.085,4.785,34.678,3.703,28.57,3.703c-8.122,0-15.335,1.778-21.638,5.337
	C6.551,9.231,6.239,9.327,5.998,9.327c-0.626,0-0.937-0.362-0.937-1.081c0-1.059,0.743-1.998,2.234-2.814
	c2.165-1.153,5.458-2.092,9.882-2.813c3.703-0.577,7.14-0.866,10.314-0.866c7.115,0,13.365,1.25,18.754,3.749
	C53.262,8.724,56.772,13.486,56.772,19.785 M41.049,38.244c-2.209-2.736-5.867-4.973-10.96-6.705
	c-4.569-1.584-8.873-2.377-12.912-2.377c-0.625,0-1.248,0.025-1.877,0.073c-2.885,6.155-4.328,10.267-4.328,12.333
	c0,0.144,0.025,0.335,0.076,0.573c0.046,0.242,0.071,0.433,0.071,0.578c0,0.623-0.267,0.938-0.793,0.938
	c-0.772,0-1.153-0.649-1.153-1.945c0-2.164,1.225-6.229,3.678-12.189c-6.398,1.055-9.595,4.013-9.595,8.872
	c0,2.164,1.465,3.867,4.402,5.122C9.867,44.475,12.273,45,14.871,45.1h1.803C25.807,45.1,33.932,42.815,41.049,38.244"/>
<path fill="#3D3A37" d="M80.862,34.141c0,0.241-0.144,0.583-0.431,1.017c-2.118,3.441-4.111,5.648-5.987,6.617
	c-0.867,0.439-1.731,0.656-2.599,0.656c-2.931,0-4.398-2.084-4.398-6.257c0-0.68,0.048-1.406,0.144-2.183
	c-3.22,5.722-6.083,8.581-8.58,8.581c-1.489,0-2.237-0.816-2.237-2.448c0-2.5,1.202-5.52,3.607-9.054
	c2.404-3.533,4.734-5.684,6.994-6.454c0.821-0.334,1.613-0.505,2.383-0.505c1.73,0,2.979,0.604,3.749,1.803
	c0.146,0.243,0.218,0.407,0.218,0.504c0,0.05-0.172,0.123-0.507,0.218c-0.334,0.097-0.577,0.263-0.72,0.5
	c-1.155,1.878-1.732,4.692-1.732,8.441c0,3.465,0.747,5.192,2.237,5.192c1.056,0,2.56-1.165,4.508-3.495
	c1.946-2.332,2.992-3.498,3.136-3.498C80.791,33.777,80.862,33.896,80.862,34.141 M70.259,26.565
	c-0.19-0.046-0.409-0.073-0.649-0.073c-1.92,0-3.919,1.226-5.986,3.678c-2.928,3.559-4.399,6.465-4.399,8.727
	c0,1.008,0.334,1.515,1.011,1.515c1.055,0,2.426-1.107,4.111-3.317C66.7,34.111,68.676,30.604,70.259,26.565"/>
<path fill="#3D3A37" d="M104.083,33.902c0,0.187-0.048,0.35-0.149,0.489c-1.393,2.528-3.387,3.783-5.981,3.783
	c-2.885,0-4.588-1.416-5.122-4.25c-0.719,1.452-2.135,3.174-4.253,5.163c-2.31,2.229-4.113,3.345-5.408,3.345
	c-1.733,0-2.599-1.258-2.599-3.781c0-1.693,0.411-3.487,1.226-5.379c-0.05,0.048-0.095,0.123-0.146,0.216
	c-0.625,1.299-1.342,2.309-2.16,3.03c-0.387,0.337-0.674,0.506-0.867,0.506c-0.144,0-0.217-0.098-0.217-0.289
	c0-0.335,0.986-1.733,2.956-4.186c1.829-2.308,3.055-3.748,3.678-4.322c0.435-0.39,0.915-0.579,1.444-0.579
	c0.577,0,0.864,0.189,0.864,0.579c0,0.188-0.094,0.433-0.287,0.715c-3.172,4.377-4.762,7.838-4.762,10.388
	c0,1.01,0.483,1.512,1.444,1.512c1.394,0,3.078-1.149,5.049-3.458c1.583-1.825,2.811-3.632,3.675-5.412v-0.358
	c0-0.338-0.022-0.818-0.069-1.442c-0.046-0.627-0.073-1.083-0.073-1.37c0-2.743,1.038-4.497,3.102-5.266
	c0.335-0.142,0.623-0.216,0.864-0.216c0.625,0,0.938,0.431,0.938,1.299c0,2.019-0.914,4.374-2.738,7.07v0.431
	c-0.047,1.2,0.331,2.343,1.151,3.421c0.816,1.083,1.804,1.627,2.958,1.627c1.155,0,2.307-0.649,3.46-1.948
	c1.157-1.295,1.686-1.948,1.585-1.948C103.935,33.271,104.083,33.482,104.083,33.902"/>
<path fill="#3D3A37" d="M116.633,33.923c0,0.333-0.171,0.719-0.504,1.151c-4.375,5.816-8.104,8.727-11.18,8.727
	c-2.644,0-3.969-1.418-3.969-4.254c0-1.444,0.479-3.415,1.444-5.915c0.866-2.307,1.778-4.111,2.739-5.406
	c0.291-0.437,0.625-0.653,1.01-0.653c0.433,0,0.833,0.195,1.189,0.577c0.36,0.388,0.544,0.793,0.544,1.226
	c0,0.245-0.103,0.507-0.291,0.795c-2.406,3.752-3.605,6.876-3.605,9.376c0,1.731,0.622,2.594,1.874,2.594
	c1.397,0,2.958-0.766,4.691-2.303c1.152-1.016,2.423-2.407,3.819-4.186c1.202-1.541,1.831-2.311,1.875-2.311
	C116.513,33.341,116.633,33.535,116.633,33.923 M111.8,20.866c0,0.579-0.229,1.093-0.686,1.551c-0.456,0.456-1,0.684-1.623,0.684
	c-1.152,0-1.73-0.578-1.73-1.729c0-0.577,0.227-1.095,0.686-1.552c0.454-0.455,0.996-0.686,1.623-0.686
	C111.223,19.134,111.8,19.713,111.8,20.866"/>
<path fill="#3D3A37" d="M135.525,34.063c0,0.192-0.047,0.387-0.14,0.579c-1.587,2.5-4.257,4.113-8.008,4.834
	c-0.291,1.44-1.024,2.598-2.2,3.46c-1.182,0.865-2.518,1.302-4.003,1.302c-2.213,0-4.254-0.832-6.132-2.49
	c-1.873-1.659-2.811-3.573-2.811-5.738c0-1.392,0.385-2.085,1.152-2.085c0.479,0,0.984,0.332,1.517,1.01
	c0.766-0.775,1.958-2.565,3.566-5.378c1.611-2.813,2.949-4.819,4.006-6.021c1.682-1.924,3.39-2.885,5.121-2.885
	c0.673,0,1.353,0.216,2.053,0.648c0.7,0.435,1.049,0.965,1.049,1.588c0,0.385-0.555,0.578-1.657,0.578
	c-1.109,0-2.117,0.351-3.034,1.043c-0.913,0.702-1.37,1.574-1.37,2.629c0,0.39,0.075,0.799,0.217,1.232
	c0.626,1.586,1.228,3.147,1.803,4.685c0.626,1.88,0.94,3.512,0.94,4.906c2.834-0.433,5.215-1.85,7.138-4.257
	c0.146-0.144,0.266-0.217,0.36-0.217C135.386,33.486,135.525,33.679,135.525,34.063 M124.061,39.763
	c-3.996,0.046-7.24-0.795-9.737-2.526l-0.217,0.22c1.297,3.173,3.344,4.759,6.132,4.759
	C122.11,42.215,123.387,41.396,124.061,39.763 M124.419,37.456c0-1.055-0.409-3.031-1.225-5.917
	c-0.818-2.693-1.153-4.421-1.008-5.191c-2.552,4.04-4.762,7.187-6.638,9.448c2.929,1.44,5.889,2.235,8.87,2.378V37.456z"/>
<path fill="#3D3A37" d="M158.534,33.902c0,0.187-0.051,0.35-0.148,0.489c-1.394,2.528-3.389,3.783-5.983,3.783
	c-2.885,0-4.593-1.416-5.12-4.25c-0.724,1.452-2.141,3.174-4.255,5.163c-2.31,2.229-4.114,3.345-5.408,3.345
	c-1.731,0-2.596-1.258-2.596-3.781c0-1.693,0.404-3.487,1.223-5.379c-0.049,0.048-0.097,0.123-0.144,0.216
	c-0.628,1.299-1.348,2.309-2.163,3.03c-0.386,0.337-0.673,0.506-0.866,0.506c-0.142,0-0.213-0.098-0.213-0.289
	c0-0.335,0.981-1.733,2.956-4.186c1.826-2.308,3.051-3.748,3.677-4.322c0.433-0.39,0.909-0.579,1.44-0.579
	c0.578,0,0.866,0.189,0.866,0.579c0,0.188-0.097,0.433-0.288,0.715c-3.174,4.377-4.762,7.838-4.762,10.388
	c0,1.01,0.48,1.512,1.444,1.512c1.396,0,3.078-1.149,5.05-3.458c1.586-1.825,2.812-3.632,3.678-5.412v-0.358
	c0-0.338-0.025-0.818-0.072-1.442c-0.048-0.627-0.071-1.083-0.071-1.37c0-2.743,1.031-4.497,3.098-5.266
	c0.339-0.142,0.629-0.216,0.866-0.216c0.629,0,0.94,0.431,0.94,1.299c0,2.019-0.917,4.374-2.74,7.07v0.431
	c-0.047,1.2,0.335,2.343,1.153,3.421c0.815,1.083,1.803,1.627,2.956,1.627s2.311-0.649,3.464-1.948
	c1.149-1.295,1.681-1.948,1.586-1.948C158.386,33.271,158.534,33.482,158.534,33.902"/>
<path fill="#3D3A37" d="M171.079,33.923c0,0.333-0.166,0.719-0.504,1.151c-4.373,5.816-8.101,8.727-11.175,8.727
	c-2.648,0-3.971-1.418-3.971-4.254c0-1.444,0.483-3.415,1.444-5.915c0.865-2.307,1.779-4.111,2.739-5.406
	c0.288-0.437,0.626-0.653,1.012-0.653c0.433,0,0.826,0.195,1.19,0.577c0.361,0.388,0.544,0.793,0.544,1.226
	c0,0.245-0.104,0.507-0.294,0.795c-2.404,3.752-3.605,6.876-3.605,9.376c0,1.731,0.626,2.594,1.877,2.594
	c1.391,0,2.956-0.766,4.688-2.303c1.153-1.016,2.429-2.407,3.819-4.186c1.203-1.541,1.829-2.311,1.88-2.311
	C170.961,33.341,171.079,33.535,171.079,33.923 M166.249,20.866c0,0.579-0.227,1.093-0.687,1.551
	c-0.453,0.456-0.998,0.684-1.62,0.684c-1.153,0-1.734-0.578-1.734-1.729c0-0.577,0.227-1.095,0.688-1.552
	c0.455-0.455,0.996-0.686,1.625-0.686C165.674,19.134,166.249,19.713,166.249,20.866"/>
<path fill="#3D3A37" d="M195.457,2.979c0,3.271-3.101,8.827-9.304,16.661c-4.901,6.105-9.474,11.133-13.701,15.072
	c0,5.24,1.319,7.861,3.964,7.861c2.648,0,6.396-2.712,11.252-8.146c0.193-0.241,0.386-0.364,0.579-0.364
	c0.24,0,0.361,0.17,0.361,0.507c0,0.19-0.074,0.387-0.22,0.575c-1.685,2.213-3.605,4.136-5.767,5.771
	c-2.743,2.116-5.171,3.171-7.288,3.171c-3.603,0-5.408-2.959-5.408-8.867c0-4.04,1.992-9.474,5.986-16.302
	c3.268-5.578,6.754-10.41,10.461-14.496c2.642-2.885,4.854-4.327,6.633-4.327c0.574,0,1.129,0.325,1.66,0.974
	C195.19,1.717,195.457,2.356,195.457,2.979 M192.356,3.269c0-0.912-0.312-1.371-0.938-1.371c-1.396,0-3.102,1.349-5.12,4.04
	c-2.307,3.126-4.928,7.526-7.863,13.197c-3.221,6.203-5.145,10.844-5.771,13.921c2.648-2.31,6.203-6.537,10.674-12.693
	c4.617-6.444,7.407-11.109,8.368-13.99C192.14,5.023,192.356,3.992,192.356,3.269"/>
<path fill="#3D3A37" d="M213.129,2.979c0,3.271-3.102,8.827-9.304,16.661c-4.908,6.105-9.478,11.133-13.705,15.072
	c0,5.24,1.323,7.861,3.968,7.861c2.642,0,6.393-2.712,11.249-8.146c0.189-0.241,0.386-0.364,0.578-0.364
	c0.24,0,0.365,0.17,0.365,0.507c0,0.19-0.081,0.387-0.22,0.575c-1.685,2.213-3.605,4.136-5.773,5.771
	c-2.739,2.116-5.168,3.171-7.281,3.171c-3.605,0-5.408-2.959-5.408-8.867c0-4.04,1.992-9.474,5.982-16.302
	c3.271-5.578,6.755-10.41,10.458-14.496c2.645-2.885,4.856-4.327,6.636-4.327c0.575,0,1.133,0.325,1.66,0.974
	C212.862,1.717,213.129,2.356,213.129,2.979 M210.027,3.269c0-0.912-0.314-1.371-0.939-1.371c-1.394,0-3.099,1.349-5.121,4.04
	c-2.307,3.126-4.928,7.526-7.86,13.197c-3.223,6.203-5.144,10.844-5.77,13.921c2.645-2.31,6.203-6.537,10.674-12.693
	c4.613-6.444,7.403-11.109,8.364-13.99C209.808,5.023,210.027,3.992,210.027,3.269"/>
<path fill="#3D3A37" d="M220.77,34.425c0,0.099-0.047,0.241-0.142,0.429c-1.201,1.878-3.007,3.609-5.408,5.196
	c-2.547,1.686-4.884,2.522-6.994,2.522c-3.031,0-4.55-1.897-4.55-5.695c0-2.498,1.086-5.242,3.251-8.219
	c2.307-3.176,4.684-4.762,7.14-4.762c0.48,0,0.901,0.215,1.26,0.649c0.363,0.429,0.539,0.886,0.539,1.367
	c0,1.491-1.126,3.293-3.389,5.411c-2.02,1.874-3.869,3.125-5.55,3.749c-0.339,1.2-0.504,2.208-0.504,3.028
	c0,1.972,0.889,2.959,2.665,2.959c1.684,0,3.585-0.698,5.702-2.094c1.823-1.202,3.386-2.566,4.685-4.113
	c0.331-0.474,0.673-0.717,1.008-0.717C220.675,34.138,220.77,34.233,220.77,34.425 M213.704,26.78c0-0.576-0.287-0.866-0.869-0.866
	c-0.717,0-1.775,1.108-3.169,3.32c-1.201,1.873-1.951,3.341-2.232,4.397c1.245-0.53,2.547-1.467,3.89-2.812
	C212.906,29.28,213.704,27.936,213.704,26.78"/>
<g>
	<g>
		<defs>
			<rect id="SVGID_1_" x="48.104" y="57.212" width="128.111" height="9.731"/>
		</defs>
		<clipPath id="SVGID_2_">
			<use xlink:href="#SVGID_1_"  overflow="visible"/>
		</clipPath>
		<polygon clip-path="url(#SVGID_2_)" fill="#3D3A37" points="48.32,57.506 55.863,57.506 55.863,58.857 49.723,58.857 
			49.723,61.26 55.15,61.26 55.15,62.609 49.723,62.609 49.723,65.247 55.863,65.247 55.863,66.597 48.32,66.597 		"/>
		
			<polygon clip-path="url(#SVGID_2_)" fill="none" stroke="#3D3A37" stroke-width="0.25" stroke-linecap="round" stroke-linejoin="round" points="
			48.32,57.506 55.863,57.506 55.863,58.857 49.723,58.857 49.723,61.26 55.15,61.26 55.15,62.609 49.723,62.609 49.723,65.247 
			55.863,65.247 55.863,66.597 48.32,66.597 		"/>
		<path clip-path="url(#SVGID_2_)" fill="#3D3A37" d="M48.591,66.326h7.003v-0.808h-5.873c-0.149,0-0.27-0.122-0.27-0.271v-2.636
			c0-0.15,0.121-0.272,0.27-0.272h5.159V61.53h-5.159c-0.149,0-0.27-0.121-0.27-0.271v-2.401c0-0.15,0.121-0.272,0.27-0.272h5.873
			v-0.808h-7.003V66.326z"/>
		
			<path clip-path="url(#SVGID_2_)" fill="none" stroke="#3D3A37" stroke-width="0.25" stroke-linecap="round" stroke-linejoin="round" d="
			M48.591,66.326h7.003v-0.808h-5.873c-0.149,0-0.27-0.122-0.27-0.271v-2.636c0-0.15,0.121-0.272,0.27-0.272h5.159V61.53h-5.159
			c-0.149,0-0.27-0.121-0.27-0.271v-2.401c0-0.15,0.121-0.272,0.27-0.272h5.873v-0.808h-7.003V66.326z"/>
		<polygon clip-path="url(#SVGID_2_)" fill="#3D3A37" points="75.298,57.506 70.934,63.104 70.934,66.597 69.531,66.597 
			69.531,63.208 64.908,57.506 66.856,57.506 70.247,61.896 73.558,57.506 		"/>
		
			<polygon clip-path="url(#SVGID_2_)" fill="none" stroke="#3D3A37" stroke-width="0.25" stroke-linecap="round" stroke-linejoin="round" points="
			75.298,57.506 70.934,63.104 70.934,66.597 69.531,66.597 69.531,63.208 64.908,57.506 66.856,57.506 70.247,61.896 
			73.558,57.506 		"/>
		<path clip-path="url(#SVGID_2_)" fill="#3D3A37" d="M69.802,66.326h0.862v-3.222c0-0.061,0.02-0.12,0.055-0.167l4.025-5.159
			h-1.051l-3.23,4.28c-0.05,0.067-0.129,0.107-0.215,0.107h-0.002c-0.084,0-0.162-0.037-0.214-0.104l-3.307-4.283h-1.249
			l4.267,5.261c0.038,0.047,0.06,0.108,0.06,0.169V66.326z"/>
		
			<path clip-path="url(#SVGID_2_)" fill="none" stroke="#3D3A37" stroke-width="0.25" stroke-linecap="round" stroke-linejoin="round" d="
			M69.802,66.326h0.862v-3.222c0-0.061,0.02-0.12,0.055-0.167l4.025-5.159h-1.051l-3.23,4.28c-0.05,0.067-0.129,0.107-0.215,0.107
			h-0.002c-0.084,0-0.162-0.037-0.214-0.104l-3.307-4.283h-1.249l4.267,5.261c0.038,0.047,0.06,0.108,0.06,0.169V66.326z"/>
		<polygon clip-path="url(#SVGID_2_)" fill="#3D3A37" points="84.628,57.506 92.172,57.506 92.172,58.857 86.03,58.857 86.03,61.26 
			91.457,61.26 91.457,62.609 86.03,62.609 86.03,65.247 92.172,65.247 92.172,66.597 84.628,66.597 		"/>
		
			<polygon clip-path="url(#SVGID_2_)" fill="none" stroke="#3D3A37" stroke-width="0.25" stroke-linecap="round" stroke-linejoin="round" points="
			84.628,57.506 92.172,57.506 92.172,58.857 86.03,58.857 86.03,61.26 91.457,61.26 91.457,62.609 86.03,62.609 86.03,65.247 
			92.172,65.247 92.172,66.597 84.628,66.597 		"/>
		<path clip-path="url(#SVGID_2_)" fill="#3D3A37" d="M84.898,66.326h7.004v-0.808h-5.874c-0.149,0-0.27-0.122-0.27-0.271v-2.636
			c0-0.15,0.121-0.272,0.27-0.272h5.159V61.53h-5.159c-0.149,0-0.27-0.121-0.27-0.271v-2.401c0-0.15,0.121-0.272,0.27-0.272h5.874
			v-0.808h-7.004V66.326z"/>
		
			<path clip-path="url(#SVGID_2_)" fill="none" stroke="#3D3A37" stroke-width="0.25" stroke-linecap="round" stroke-linejoin="round" d="
			M84.898,66.326h7.004v-0.808h-5.874c-0.149,0-0.27-0.122-0.27-0.271v-2.636c0-0.15,0.121-0.272,0.27-0.272h5.159V61.53h-5.159
			c-0.149,0-0.27-0.121-0.27-0.271v-2.401c0-0.15,0.121-0.272,0.27-0.272h5.874v-0.808h-7.004V66.326z"/>
		<path clip-path="url(#SVGID_2_)" fill="#3D3A37" d="M120.596,65.247c-0.244,0.2-0.574,0.416-0.988,0.649
			c-0.416,0.233-0.893,0.43-1.431,0.591c-0.536,0.16-1.105,0.24-1.715,0.24c-0.733,0-1.42-0.108-2.056-0.33
			c-0.637-0.224-1.194-0.536-1.67-0.943c-0.475-0.406-0.848-0.896-1.116-1.474c-0.269-0.574-0.402-1.219-0.402-1.929
			c0-0.665,0.138-1.279,0.414-1.844c0.277-0.562,0.662-1.052,1.15-1.468c0.49-0.414,1.051-0.737,1.683-0.967
			c0.631-0.229,1.297-0.346,1.997-0.346c0.591,0,1.153,0.074,1.691,0.222c0.534,0.147,1.024,0.338,1.461,0.571
			c0.437,0.235,0.785,0.478,1.045,0.728l-0.832,1.182c-0.467-0.382-0.987-0.696-1.559-0.946c-0.57-0.252-1.216-0.379-1.934-0.379
			c-0.461,0-0.907,0.077-1.351,0.229c-0.441,0.149-0.839,0.365-1.19,0.649c-0.349,0.281-0.628,0.621-0.836,1.019
			s-0.313,0.849-0.313,1.35c0,0.546,0.11,1.024,0.326,1.436c0.217,0.411,0.508,0.758,0.876,1.04c0.369,0.28,0.788,0.49,1.26,0.629
			s0.959,0.206,1.461,0.206c0.52,0,0.982-0.065,1.393-0.199c0.403-0.136,0.768-0.301,1.089-0.501
			c0.319-0.199,0.608-0.394,0.869-0.585L120.596,65.247z"/>
		
			<path clip-path="url(#SVGID_2_)" fill="none" stroke="#3D3A37" stroke-width="0.25" stroke-linecap="round" stroke-linejoin="round" d="
			M120.596,65.247c-0.244,0.2-0.574,0.416-0.988,0.649c-0.416,0.233-0.893,0.43-1.431,0.591c-0.536,0.16-1.105,0.24-1.715,0.24
			c-0.733,0-1.42-0.108-2.056-0.33c-0.637-0.224-1.194-0.536-1.67-0.943c-0.475-0.406-0.848-0.896-1.116-1.474
			c-0.269-0.574-0.402-1.219-0.402-1.929c0-0.665,0.138-1.279,0.414-1.844c0.277-0.562,0.662-1.052,1.15-1.468
			c0.49-0.414,1.051-0.737,1.683-0.967c0.631-0.229,1.297-0.346,1.997-0.346c0.591,0,1.153,0.074,1.691,0.222
			c0.534,0.147,1.024,0.338,1.461,0.571c0.437,0.235,0.785,0.478,1.045,0.728l-0.832,1.182c-0.467-0.382-0.987-0.696-1.559-0.946
			c-0.57-0.252-1.216-0.379-1.934-0.379c-0.461,0-0.907,0.077-1.351,0.229c-0.441,0.149-0.839,0.365-1.19,0.649
			c-0.349,0.281-0.628,0.621-0.836,1.019s-0.313,0.849-0.313,1.35c0,0.546,0.11,1.024,0.326,1.436
			c0.217,0.411,0.508,0.758,0.876,1.04c0.369,0.28,0.788,0.49,1.26,0.629s0.959,0.206,1.461,0.206c0.52,0,0.982-0.065,1.393-0.199
			c0.403-0.136,0.768-0.301,1.089-0.501c0.319-0.199,0.608-0.394,0.869-0.585L120.596,65.247z"/>
		<path clip-path="url(#SVGID_2_)" fill="#3D3A37" d="M116.464,57.698c-0.665,0-1.308,0.11-1.909,0.328
			c-0.597,0.219-1.135,0.528-1.597,0.92c-0.458,0.39-0.823,0.854-1.081,1.382c-0.258,0.522-0.389,1.103-0.389,1.725
			c0,0.667,0.127,1.277,0.378,1.814c0.25,0.538,0.602,1.002,1.047,1.382c0.447,0.384,0.979,0.684,1.581,0.892
			c1.101,0.384,2.476,0.426,3.605,0.088c0.516-0.154,0.977-0.345,1.373-0.566c0.306-0.171,0.564-0.335,0.771-0.485l-0.409-0.704
			c-0.197,0.136-0.412,0.276-0.643,0.42c-0.338,0.21-0.727,0.389-1.148,0.527c-0.847,0.281-2.002,0.293-3.012-0.003
			c-0.502-0.149-0.955-0.376-1.346-0.677c-0.399-0.303-0.721-0.682-0.954-1.126c-0.236-0.45-0.354-0.975-0.354-1.562
			c0-0.543,0.114-1.04,0.341-1.476c0.224-0.43,0.531-0.802,0.907-1.106c0.375-0.299,0.803-0.532,1.271-0.693
			c0.468-0.162,0.953-0.243,1.438-0.243c0.753,0,1.439,0.135,2.042,0.4c0.504,0.22,0.969,0.489,1.393,0.809l0.529-0.753
			c-0.218-0.181-0.488-0.358-0.813-0.532c-0.416-0.222-0.89-0.404-1.404-0.546C117.568,57.77,117.025,57.698,116.464,57.698"/>
		
			<path clip-path="url(#SVGID_2_)" fill="none" stroke="#3D3A37" stroke-width="0.25" stroke-linecap="round" stroke-linejoin="round" d="
			M116.464,57.698c-0.665,0-1.308,0.11-1.909,0.328c-0.597,0.219-1.135,0.528-1.597,0.92c-0.458,0.39-0.823,0.854-1.081,1.382
			c-0.258,0.522-0.389,1.103-0.389,1.725c0,0.667,0.127,1.277,0.378,1.814c0.25,0.538,0.602,1.002,1.047,1.382
			c0.447,0.384,0.979,0.684,1.581,0.892c1.101,0.384,2.476,0.426,3.605,0.088c0.516-0.154,0.977-0.345,1.373-0.566
			c0.306-0.171,0.564-0.335,0.771-0.485l-0.409-0.704c-0.197,0.136-0.412,0.276-0.643,0.42c-0.338,0.21-0.727,0.389-1.148,0.527
			c-0.847,0.281-2.002,0.293-3.012-0.003c-0.502-0.149-0.955-0.376-1.346-0.677c-0.399-0.303-0.721-0.682-0.954-1.126
			c-0.236-0.45-0.354-0.975-0.354-1.562c0-0.543,0.114-1.04,0.341-1.476c0.224-0.43,0.531-0.802,0.907-1.106
			c0.375-0.299,0.803-0.532,1.271-0.693c0.468-0.162,0.953-0.243,1.438-0.243c0.753,0,1.439,0.135,2.042,0.4
			c0.504,0.22,0.969,0.489,1.393,0.809l0.529-0.753c-0.218-0.181-0.488-0.358-0.813-0.532c-0.416-0.222-0.89-0.404-1.404-0.546
			C117.568,57.77,117.025,57.698,116.464,57.698z"/>
		<path clip-path="url(#SVGID_2_)" fill="#3D3A37" d="M138.365,66.599l-1.038-2.131h-5.39l-1.039,2.131h-1.482l4.442-9.091h1.637
			l4.416,9.091H138.365z M133.924,60.391l-1.325,2.727h4.065l-1.352-2.779c-0.12-0.252-0.236-0.49-0.35-0.72
			c-0.112-0.23-0.226-0.48-0.339-0.746c-0.111,0.277-0.227,0.536-0.343,0.778C134.164,59.892,134.044,60.139,133.924,60.391"/>
		
			<path clip-path="url(#SVGID_2_)" fill="none" stroke="#3D3A37" stroke-width="0.25" stroke-linecap="round" stroke-linejoin="round" d="
			M138.365,66.599l-1.038-2.131h-5.39l-1.039,2.131h-1.482l4.442-9.091h1.637l4.416,9.091H138.365z M133.924,60.391l-1.325,2.727
			h4.065l-1.352-2.779c-0.12-0.252-0.236-0.49-0.35-0.72c-0.112-0.23-0.226-0.48-0.339-0.746c-0.111,0.277-0.227,0.536-0.343,0.778
			C134.164,59.892,134.044,60.139,133.924,60.391z"/>
		<path clip-path="url(#SVGID_2_)" fill="#3D3A37" d="M138.534,66.326h0.943l-4.151-8.548h-1.299l-4.179,8.548h0.881l0.964-1.977
			c0.046-0.093,0.141-0.152,0.244-0.152h5.39c0.103,0,0.197,0.06,0.243,0.152L138.534,66.326z M136.664,63.388h-4.065
			c-0.093,0-0.18-0.048-0.229-0.126c-0.051-0.079-0.056-0.179-0.016-0.264l1.683-3.467c0.113-0.236,0.228-0.491,0.337-0.761
			c0.042-0.104,0.141-0.171,0.25-0.171c0.11,0,0.208,0.064,0.251,0.168c0.109,0.26,0.221,0.507,0.331,0.73l1.701,3.5
			c0.041,0.085,0.035,0.185-0.014,0.264C136.843,63.34,136.757,63.388,136.664,63.388"/>
		
			<path clip-path="url(#SVGID_2_)" fill="none" stroke="#3D3A37" stroke-width="0.25" stroke-linecap="round" stroke-linejoin="round" d="
			M138.534,66.326h0.943l-4.151-8.548h-1.299l-4.179,8.548h0.881l0.964-1.977c0.046-0.093,0.141-0.152,0.244-0.152h5.39
			c0.103,0,0.197,0.06,0.243,0.152L138.534,66.326z M136.664,63.388h-4.065c-0.093,0-0.18-0.048-0.229-0.126
			c-0.051-0.079-0.056-0.179-0.016-0.264l1.683-3.467c0.113-0.236,0.228-0.491,0.337-0.761c0.042-0.104,0.141-0.171,0.25-0.171
			c0.11,0,0.208,0.064,0.251,0.168c0.109,0.26,0.221,0.507,0.331,0.73l1.701,3.5c0.041,0.085,0.035,0.185-0.014,0.264
			C136.843,63.34,136.757,63.388,136.664,63.388z"/>
		<path clip-path="url(#SVGID_2_)" fill="#3D3A37" d="M157.655,60.3c0,0.433-0.093,0.832-0.279,1.2
			c-0.186,0.367-0.439,0.688-0.759,0.961c-0.32,0.273-0.684,0.479-1.091,0.617l2.661,3.532l-1.752-0.012l-2.52-3.35H150.8v3.35
			h-1.404v-9.091h5.313c0.536,0,1.027,0.123,1.475,0.37c0.444,0.247,0.803,0.58,1.07,0.999
			C157.521,59.297,157.655,59.771,157.655,60.3 M154.318,58.858H150.8v3.037h3.519c0.337,0,0.645-0.072,0.922-0.22
			c0.277-0.146,0.501-0.342,0.67-0.585c0.167-0.242,0.252-0.507,0.252-0.791c0-0.27-0.085-0.511-0.252-0.728
			c-0.169-0.217-0.393-0.391-0.67-0.521C154.963,58.923,154.655,58.858,154.318,58.858"/>
		
			<path clip-path="url(#SVGID_2_)" fill="none" stroke="#3D3A37" stroke-width="0.25" stroke-linecap="round" stroke-linejoin="round" d="
			M157.655,60.3c0,0.433-0.093,0.832-0.279,1.2c-0.186,0.367-0.439,0.688-0.759,0.961c-0.32,0.273-0.684,0.479-1.091,0.617
			l2.661,3.532l-1.752-0.012l-2.52-3.35H150.8v3.35h-1.404v-9.091h5.313c0.536,0,1.027,0.123,1.475,0.37
			c0.444,0.247,0.803,0.58,1.07,0.999C157.521,59.297,157.655,59.771,157.655,60.3z M154.318,58.858H150.8v3.037h3.519
			c0.337,0,0.645-0.072,0.922-0.22c0.277-0.146,0.501-0.342,0.67-0.585c0.167-0.242,0.252-0.507,0.252-0.791
			c0-0.27-0.085-0.511-0.252-0.728c-0.169-0.217-0.393-0.391-0.67-0.521C154.963,58.923,154.655,58.858,154.318,58.858z"/>
		<polygon clip-path="url(#SVGID_2_)" fill="#3D3A37" points="168.453,57.506 175.998,57.506 175.998,58.857 169.854,58.857 
			169.854,61.26 175.283,61.26 175.283,62.609 169.854,62.609 169.854,65.247 175.998,65.247 175.998,66.597 168.453,66.597 		"/>
		
			<polygon clip-path="url(#SVGID_2_)" fill="none" stroke="#3D3A37" stroke-width="0.25" stroke-linecap="round" stroke-linejoin="round" points="
			168.453,57.506 175.998,57.506 175.998,58.857 169.854,58.857 169.854,61.26 175.283,61.26 175.283,62.609 169.854,62.609 
			169.854,65.247 175.998,65.247 175.998,66.597 168.453,66.597 		"/>
		<path clip-path="url(#SVGID_2_)" fill="#3D3A37" d="M168.724,66.326h7.004v-0.808h-5.873c-0.148,0-0.271-0.122-0.271-0.271v-2.636
			c0-0.15,0.122-0.272,0.271-0.272h5.158V61.53h-5.158c-0.148,0-0.271-0.121-0.271-0.271v-2.401c0-0.15,0.122-0.272,0.271-0.272
			h5.873v-0.808h-7.004V66.326z"/>
		
			<path clip-path="url(#SVGID_2_)" fill="none" stroke="#3D3A37" stroke-width="0.25" stroke-linecap="round" stroke-linejoin="round" d="
			M168.724,66.326h7.004v-0.808h-5.873c-0.148,0-0.271-0.122-0.271-0.271v-2.636c0-0.15,0.122-0.272,0.271-0.272h5.158V61.53h-5.158
			c-0.148,0-0.271-0.121-0.271-0.271v-2.401c0-0.15,0.122-0.272,0.271-0.272h5.873v-0.808h-7.004V66.326z"/>
	</g>
</g>
</svg>
