<?xml version="1.0" encoding="utf-8"?>
<!-- Generator: Adobe Illustrator 16.0.0, SVG Export Plug-In . SVG Version: 6.00 Build 0)  -->
<!DOCTYPE svg PUBLIC "-//W3C//DTD SVG 1.1//EN" "http://www.w3.org/Graphics/SVG/1.1/DTD/svg11.dtd">
<svg version="1.1" id="Layer_1" xmlns="http://www.w3.org/2000/svg" xmlns:xlink="http://www.w3.org/1999/xlink" x="0px" y="0px"
	 width="127.442px" height="38.403px" viewBox="0 0 127.442 38.403" enable-background="new 0 0 127.442 38.403"
	 xml:space="preserve">
<path fill="#3E3B38" d="M32.737,11.37c0,2.193-0.764,4.356-2.29,6.498c-1.305,1.833-3,3.442-5.082,4.83
	c0.11,0.252,0.166,0.444,0.166,0.584c0,0.389-0.137,0.582-0.416,0.582c-0.111,0-0.305-0.222-0.583-0.664
	c-4.164,2.499-8.955,3.746-14.368,3.746c-0.583,0-1.14-0.015-1.667-0.041c-1.889-0.082-3.638-0.474-5.248-1.166
	C1.085,24.821,0,23.588,0,22.03c0-1.857,0.876-3.386,2.624-4.58c1.527-0.998,3.277-1.553,5.248-1.666
	c1.249-2.914,2.61-5.705,4.081-8.37c0.444-0.861,1.098-1.958,1.957-3.291c0.474-0.612,1.182-0.916,2.125-0.916
	c0.39,0,0.583,0.111,0.583,0.333c0,0.085-0.027,0.166-0.082,0.249c-2.61,3.527-5.026,7.525-7.248,11.995
	c7.47,0.168,12.564,2.043,15.286,5.625c1.832-1.277,3.331-2.75,4.498-4.416c1.359-1.943,2.042-3.887,2.042-5.831
	c0-3.138-1.765-5.539-5.29-7.206c-2.723-1.248-5.846-1.873-9.374-1.873c-4.69,0-8.855,1.027-12.495,3.082
	c-0.22,0.111-0.4,0.166-0.539,0.166c-0.362,0-0.541-0.209-0.541-0.624c0-0.611,0.429-1.153,1.289-1.625
	c1.251-0.666,3.153-1.208,5.708-1.624c2.137-0.333,4.123-0.5,5.955-0.5c4.11,0,7.719,0.722,10.83,2.165
	C30.71,4.983,32.737,7.733,32.737,11.37 M23.657,22.03c-1.277-1.58-3.388-2.871-6.33-3.872c-2.638-0.915-5.124-1.373-7.455-1.373
	c-0.362,0-0.721,0.015-1.085,0.042c-1.666,3.555-2.499,5.929-2.499,7.122c0,0.083,0.015,0.193,0.044,0.331
	c0.027,0.14,0.041,0.25,0.041,0.334c0,0.359-0.153,0.541-0.457,0.541c-0.446,0-0.666-0.375-0.666-1.123
	c0-1.25,0.706-3.597,2.123-7.039c-3.694,0.609-5.541,2.317-5.541,5.123c0,1.25,0.847,2.233,2.542,2.958
	c1.276,0.554,2.666,0.857,4.165,0.915h1.042C14.855,25.989,19.546,24.67,23.657,22.03"/>
<path fill="#3E3B38" d="M46.649,19.661c0,0.139-0.083,0.336-0.25,0.587c-1.222,1.987-2.374,3.262-3.457,3.821
	c-0.5,0.254-1,0.379-1.5,0.379c-1.694,0-2.541-1.203-2.541-3.613c0-0.393,0.029-0.812,0.083-1.26
	c-1.86,3.305-3.512,4.955-4.955,4.955c-0.86,0-1.292-0.472-1.292-1.414c0-1.443,0.694-3.188,2.083-5.229
	c1.388-2.04,2.735-3.282,4.039-3.727c0.474-0.193,0.931-0.292,1.376-0.292c0.999,0,1.72,0.349,2.165,1.041
	c0.084,0.14,0.126,0.235,0.126,0.291c0,0.029-0.098,0.071-0.293,0.126c-0.193,0.056-0.333,0.152-0.416,0.289
	c-0.667,1.085-1,2.71-1,4.875c0,2,0.431,2.998,1.292,2.998c0.61,0,1.478-0.673,2.603-2.018c1.124-1.348,1.728-2.021,1.811-2.021
	C46.607,19.45,46.649,19.52,46.649,19.661 M40.525,15.286c-0.11-0.027-0.236-0.042-0.375-0.042c-1.109,0-2.262,0.708-3.457,2.124
	c-1.691,2.055-2.54,3.734-2.54,5.04c0,0.582,0.194,0.875,0.584,0.875c0.609,0,1.401-0.64,2.374-1.916
	C38.471,19.644,39.611,17.618,40.525,15.286"/>
<path fill="#3E3B38" d="M60.059,19.522c0,0.108-0.028,0.203-0.086,0.283c-0.804,1.459-1.956,2.184-3.454,2.184
	c-1.666,0-2.65-0.817-2.958-2.454c-0.415,0.839-1.233,1.833-2.456,2.981c-1.334,1.287-2.375,1.932-3.123,1.932
	c-1.001,0-1.501-0.727-1.501-2.184c0-0.977,0.237-2.014,0.708-3.105c-0.029,0.027-0.055,0.07-0.084,0.124
	c-0.361,0.751-0.775,1.333-1.248,1.751c-0.223,0.193-0.389,0.291-0.5,0.291c-0.083,0-0.125-0.057-0.125-0.167
	c0-0.193,0.569-1.001,1.707-2.417c1.056-1.332,1.764-2.164,2.124-2.496c0.251-0.225,0.528-0.334,0.834-0.334
	c0.333,0,0.499,0.109,0.499,0.334c0,0.109-0.055,0.25-0.166,0.414c-1.832,2.527-2.75,4.525-2.75,5.998
	c0,0.583,0.279,0.873,0.834,0.873c0.805,0,1.777-0.664,2.916-1.996c0.914-1.055,1.623-2.098,2.122-3.125v-0.208
	c0-0.195-0.013-0.472-0.04-0.833c-0.027-0.362-0.042-0.625-0.042-0.791c0-1.584,0.599-2.597,1.791-3.041
	c0.194-0.082,0.36-0.125,0.499-0.125c0.361,0,0.542,0.249,0.542,0.75c0,1.166-0.528,2.526-1.581,4.083v0.249
	c-0.027,0.693,0.191,1.354,0.665,1.976c0.471,0.625,1.042,0.94,1.708,0.94c0.667,0,1.332-0.375,1.998-1.125
	c0.668-0.749,0.973-1.125,0.915-1.125C59.973,19.159,60.059,19.28,60.059,19.522"/>
<path fill="#3E3B38" d="M67.306,19.534c0,0.192-0.099,0.416-0.291,0.666c-2.527,3.358-4.68,5.039-6.456,5.039
	c-1.527,0-2.292-0.819-2.292-2.457c0-0.834,0.277-1.972,0.834-3.416c0.5-1.332,1.027-2.374,1.582-3.122
	c0.168-0.252,0.361-0.377,0.583-0.377c0.25,0,0.481,0.113,0.687,0.333c0.208,0.224,0.314,0.458,0.314,0.708
	c0,0.141-0.059,0.293-0.168,0.459c-1.389,2.167-2.082,3.971-2.082,5.415c0,1,0.359,1.498,1.082,1.498
	c0.807,0,1.708-0.442,2.709-1.33c0.665-0.586,1.399-1.39,2.205-2.416c0.694-0.891,1.058-1.335,1.083-1.335
	C67.236,19.199,67.306,19.311,67.306,19.534 M64.515,11.995c0,0.334-0.133,0.631-0.396,0.896c-0.263,0.263-0.577,0.395-0.937,0.395
	c-0.665,0-0.999-0.334-0.999-0.998c0-0.334,0.131-0.633,0.396-0.897c0.262-0.263,0.575-0.396,0.937-0.396
	C64.182,10.995,64.515,11.329,64.515,11.995"/>
<path fill="#3E3B38" d="M78.216,19.616c0,0.11-0.027,0.223-0.081,0.334c-0.916,1.443-2.458,2.375-4.624,2.791
	c-0.168,0.832-0.592,1.5-1.271,1.998c-0.683,0.5-1.455,0.752-2.312,0.752c-1.278,0-2.457-0.48-3.541-1.438
	c-1.082-0.958-1.623-2.063-1.623-3.313c0-0.804,0.221-1.204,0.665-1.204c0.277,0,0.568,0.191,0.876,0.583
	c0.442-0.447,1.131-1.481,2.06-3.105c0.931-1.624,1.703-2.783,2.313-3.477c0.972-1.111,1.957-1.666,2.957-1.666
	c0.39,0,0.781,0.125,1.186,0.374c0.404,0.251,0.605,0.558,0.605,0.917c0,0.223-0.32,0.334-0.957,0.334
	c-0.642,0-1.224,0.203-1.752,0.603c-0.526,0.405-0.791,0.909-0.791,1.518c0,0.225,0.043,0.461,0.125,0.711
	c0.36,0.916,0.709,1.817,1.041,2.707c0.36,1.084,0.543,2.026,0.543,2.832c1.637-0.25,3.012-1.068,4.122-2.457
	c0.084-0.084,0.153-0.126,0.208-0.126C78.135,19.283,78.216,19.394,78.216,19.616 M71.595,22.907
	c-2.308,0.026-4.181-0.459-5.623-1.459l-0.125,0.127c0.749,1.832,1.931,2.748,3.541,2.748
	C70.469,24.323,71.205,23.851,71.595,22.907 M71.802,21.575c0-0.609-0.235-1.75-0.707-3.417c-0.474-1.555-0.666-2.553-0.582-2.998
	c-1.474,2.333-2.75,4.15-3.833,5.456c1.691,0.832,3.4,1.293,5.122,1.373V21.575z"/>
<path fill="#3E3B38" d="M91.503,19.522c0,0.108-0.029,0.203-0.086,0.283c-0.805,1.459-1.957,2.184-3.455,2.184
	c-1.666,0-2.652-0.817-2.957-2.454c-0.418,0.839-1.236,1.833-2.457,2.981c-1.334,1.287-2.376,1.932-3.123,1.932
	c-1,0-1.499-0.727-1.499-2.184c0-0.977,0.233-2.014,0.706-3.105c-0.028,0.027-0.056,0.07-0.083,0.124
	c-0.362,0.751-0.778,1.333-1.249,1.751c-0.223,0.193-0.389,0.291-0.5,0.291c-0.082,0-0.123-0.057-0.123-0.167
	c0-0.193,0.566-1.001,1.707-2.417c1.055-1.332,1.762-2.164,2.123-2.496c0.25-0.225,0.525-0.334,0.832-0.334
	c0.334,0,0.5,0.109,0.5,0.334c0,0.109-0.056,0.25-0.166,0.414c-1.833,2.527-2.75,4.525-2.75,5.998c0,0.583,0.277,0.873,0.834,0.873
	c0.806,0,1.777-0.664,2.916-1.996c0.916-1.055,1.624-2.098,2.124-3.125v-0.208c0-0.195-0.015-0.472-0.042-0.833
	c-0.027-0.362-0.041-0.625-0.041-0.791c0-1.584,0.596-2.597,1.789-3.041c0.195-0.082,0.363-0.125,0.5-0.125
	c0.363,0,0.543,0.249,0.543,0.75c0,1.166-0.529,2.526-1.582,4.083v0.249c-0.027,0.693,0.193,1.354,0.666,1.976
	c0.471,0.625,1.041,0.94,1.707,0.94s1.334-0.375,2-1.125c0.664-0.749,0.971-1.125,0.916-1.125
	C91.417,19.159,91.503,19.28,91.503,19.522"/>
<path fill="#3E3B38" d="M98.747,19.534c0,0.192-0.096,0.416-0.291,0.666c-2.525,3.358-4.678,5.039-6.453,5.039
	c-1.529,0-2.293-0.819-2.293-2.457c0-0.834,0.279-1.972,0.834-3.416c0.5-1.332,1.027-2.374,1.582-3.122
	c0.166-0.252,0.361-0.377,0.584-0.377c0.25,0,0.478,0.113,0.687,0.333c0.209,0.224,0.315,0.458,0.315,0.708
	c0,0.141-0.061,0.293-0.17,0.459c-1.389,2.167-2.082,3.971-2.082,5.415c0,1,0.361,1.498,1.084,1.498c0.803,0,1.707-0.442,2.707-1.33
	c0.666-0.586,1.402-1.39,2.205-2.416c0.695-0.891,1.057-1.335,1.086-1.335C98.679,19.199,98.747,19.311,98.747,19.534
	 M95.958,11.995c0,0.334-0.131,0.631-0.396,0.896c-0.262,0.263-0.576,0.395-0.936,0.395c-0.666,0-1.002-0.334-1.002-0.998
	c0-0.334,0.131-0.633,0.396-0.897c0.264-0.263,0.576-0.396,0.939-0.396C95.626,10.995,95.958,11.329,95.958,11.995"/>
<path fill="#3E3B38" d="M112.825,1.666c0,1.889-1.791,5.097-5.373,9.621c-2.83,3.526-5.471,6.429-7.912,8.705
	c0,3.026,0.762,4.539,2.289,4.539c1.529,0,3.693-1.566,6.498-4.705c0.111-0.139,0.223-0.209,0.334-0.209
	c0.139,0,0.209,0.098,0.209,0.293c0,0.109-0.043,0.223-0.127,0.332c-0.973,1.277-2.082,2.389-3.33,3.332
	c-1.584,1.222-2.986,1.831-4.209,1.831c-2.08,0-3.123-1.709-3.123-5.12c0-2.333,1.15-5.472,3.457-9.415
	c1.887-3.221,3.9-6.011,6.041-8.371C109.104,0.833,110.382,0,111.409,0c0.332,0,0.652,0.188,0.959,0.563
	C112.671,0.937,112.825,1.306,112.825,1.666 M111.034,1.833c0-0.527-0.18-0.792-0.541-0.792c-0.807,0-1.791,0.779-2.957,2.333
	c-1.332,1.805-2.846,4.346-4.541,7.621c-1.859,3.582-2.971,6.262-3.332,8.039c1.529-1.334,3.582-3.775,6.164-7.33
	c2.666-3.721,4.277-6.415,4.832-8.079C110.909,2.847,111.034,2.25,111.034,1.833"/>
<path fill="#3E3B38" d="M123.03,1.666c0,1.889-1.791,5.097-5.373,9.621c-2.834,3.526-5.473,6.429-7.914,8.705
	c0,3.026,0.764,4.539,2.291,4.539c1.525,0,3.691-1.566,6.496-4.705c0.109-0.139,0.223-0.209,0.334-0.209
	c0.139,0,0.211,0.098,0.211,0.293c0,0.109-0.047,0.223-0.127,0.332c-0.973,1.277-2.082,2.389-3.334,3.332
	c-1.582,1.222-2.984,1.831-4.205,1.831c-2.082,0-3.123-1.709-3.123-5.12c0-2.333,1.15-5.472,3.455-9.415
	c1.889-3.221,3.9-6.011,6.039-8.371C119.308,0.833,120.585,0,121.612,0c0.332,0,0.654,0.188,0.959,0.563
	C122.876,0.937,123.03,1.306,123.03,1.666 M121.239,1.833c0-0.527-0.182-0.792-0.543-0.792c-0.805,0-1.789,0.779-2.957,2.333
	c-1.332,1.805-2.846,4.346-4.539,7.621c-1.861,3.582-2.971,6.262-3.332,8.039c1.527-1.334,3.582-3.775,6.164-7.33
	c2.664-3.721,4.275-6.415,4.83-8.079C121.112,2.847,121.239,2.25,121.239,1.833"/>
<path fill="#3E3B38" d="M127.442,19.825c0,0.057-0.027,0.139-0.082,0.248c-0.693,1.084-1.736,2.084-3.123,3
	c-1.471,0.974-2.82,1.457-4.039,1.457c-1.75,0-2.627-1.096-2.627-3.289c0-1.442,0.627-3.027,1.877-4.746
	c1.332-1.834,2.705-2.75,4.123-2.75c0.277,0,0.52,0.124,0.728,0.375c0.209,0.248,0.312,0.512,0.312,0.79
	c0,0.861-0.65,1.902-1.957,3.125c-1.166,1.082-2.234,1.804-3.205,2.166c-0.195,0.692-0.291,1.274-0.291,1.748
	c0,1.139,0.514,1.709,1.539,1.709c0.973,0,2.07-0.402,3.293-1.209c1.053-0.693,1.955-1.482,2.705-2.375
	c0.19-0.274,0.389-0.414,0.582-0.414C127.388,19.659,127.442,19.714,127.442,19.825 M123.362,15.41c0-0.333-0.166-0.5-0.502-0.5
	c-0.414,0-1.025,0.641-1.83,1.917c-0.693,1.082-1.127,1.93-1.289,2.54c0.719-0.306,1.471-0.847,2.246-1.624
	C122.901,16.854,123.362,16.077,123.362,15.41"/>
<g>
	<g>
		<defs>
			<rect id="SVGID_1_" x="27.73" y="32.988" width="73.981" height="5.62"/>
		</defs>
		<clipPath id="SVGID_2_">
			<use xlink:href="#SVGID_1_"  overflow="visible"/>
		</clipPath>
		<polygon clip-path="url(#SVGID_2_)" fill="#3E3B38" points="27.855,33.154 32.212,33.154 32.212,33.935 28.666,33.935 
			28.666,35.321 31.8,35.321 31.8,36.102 28.666,36.102 28.666,37.624 32.212,37.624 32.212,38.404 27.855,38.404 		"/>
		
			<polygon clip-path="url(#SVGID_2_)" fill="none" stroke="#3E3B38" stroke-width="0.25" stroke-linecap="round" stroke-linejoin="round" points="
			27.855,33.154 32.212,33.154 32.212,33.935 28.666,33.935 28.666,35.321 31.8,35.321 31.8,36.102 28.666,36.102 28.666,37.624 
			32.212,37.624 32.212,38.404 27.855,38.404 		"/>
		<path clip-path="url(#SVGID_2_)" fill="#3E3B38" d="M28.012,38.247h4.045V37.78h-3.391c-0.087,0-0.156-0.069-0.156-0.156v-1.522
			c0-0.086,0.069-0.155,0.156-0.155h2.978v-0.469h-2.978c-0.087,0-0.156-0.07-0.156-0.156v-1.387c0-0.086,0.069-0.157,0.156-0.157
			h3.391v-0.467h-4.045V38.247z"/>
		
			<path clip-path="url(#SVGID_2_)" fill="none" stroke="#3E3B38" stroke-width="0.25" stroke-linecap="round" stroke-linejoin="round" d="
			M28.012,38.247h4.045V37.78h-3.391c-0.087,0-0.156-0.069-0.156-0.156v-1.522c0-0.086,0.069-0.155,0.156-0.155h2.978v-0.469h-2.978
			c-0.087,0-0.156-0.07-0.156-0.156v-1.387c0-0.086,0.069-0.157,0.156-0.157h3.391v-0.467h-4.045V38.247z"/>
		<polygon clip-path="url(#SVGID_2_)" fill="#3E3B38" points="43.435,33.154 40.915,36.387 40.915,38.404 40.105,38.404 
			40.105,36.446 37.435,33.154 38.56,33.154 40.518,35.689 42.43,33.154 		"/>
		
			<polygon clip-path="url(#SVGID_2_)" fill="none" stroke="#3E3B38" stroke-width="0.25" stroke-linecap="round" stroke-linejoin="round" points="
			43.435,33.154 40.915,36.387 40.915,38.404 40.105,38.404 40.105,36.446 37.435,33.154 38.56,33.154 40.518,35.689 42.43,33.154 
					"/>
		<path clip-path="url(#SVGID_2_)" fill="#3E3B38" d="M40.262,38.247h0.497v-1.86c0-0.035,0.012-0.069,0.033-0.096l2.324-2.98
			h-0.607l-1.866,2.474c-0.029,0.039-0.075,0.061-0.124,0.062h-0.001c-0.048,0-0.094-0.022-0.124-0.062l-1.91-2.474h-0.721
			l2.464,3.038c0.023,0.028,0.035,0.063,0.035,0.098V38.247z"/>
		
			<path clip-path="url(#SVGID_2_)" fill="none" stroke="#3E3B38" stroke-width="0.25" stroke-linecap="round" stroke-linejoin="round" d="
			M40.262,38.247h0.497v-1.86c0-0.035,0.012-0.069,0.033-0.096l2.324-2.98h-0.607l-1.866,2.474
			c-0.029,0.039-0.075,0.061-0.124,0.062h-0.001c-0.048,0-0.094-0.022-0.124-0.062l-1.91-2.474h-0.721l2.464,3.038
			c0.023,0.028,0.035,0.063,0.035,0.098V38.247z"/>
		<polygon clip-path="url(#SVGID_2_)" fill="#3E3B38" points="48.823,33.154 53.18,33.154 53.18,33.935 49.633,33.935 
			49.633,35.321 52.768,35.321 52.768,36.102 49.633,36.102 49.633,37.624 53.18,37.624 53.18,38.404 48.823,38.404 		"/>
		
			<polygon clip-path="url(#SVGID_2_)" fill="none" stroke="#3E3B38" stroke-width="0.25" stroke-linecap="round" stroke-linejoin="round" points="
			48.823,33.154 53.18,33.154 53.18,33.935 49.633,33.935 49.633,35.321 52.768,35.321 52.768,36.102 49.633,36.102 49.633,37.624 
			53.18,37.624 53.18,38.404 48.823,38.404 		"/>
		<path clip-path="url(#SVGID_2_)" fill="#3E3B38" d="M48.979,38.247h4.044V37.78h-3.391c-0.086,0-0.156-0.069-0.156-0.156v-1.522
			c0-0.086,0.07-0.155,0.156-0.155h2.979v-0.469h-2.979c-0.086,0-0.156-0.07-0.156-0.156v-1.387c0-0.086,0.07-0.157,0.156-0.157
			h3.391v-0.467h-4.044V38.247z"/>
		
			<path clip-path="url(#SVGID_2_)" fill="none" stroke="#3E3B38" stroke-width="0.25" stroke-linecap="round" stroke-linejoin="round" d="
			M48.979,38.247h4.044V37.78h-3.391c-0.086,0-0.156-0.069-0.156-0.156v-1.522c0-0.086,0.07-0.155,0.156-0.155h2.979v-0.469h-2.979
			c-0.086,0-0.156-0.07-0.156-0.156v-1.387c0-0.086,0.07-0.157,0.156-0.157h3.391v-0.467h-4.044V38.247z"/>
		<path clip-path="url(#SVGID_2_)" fill="#3E3B38" d="M69.593,37.624c-0.14,0.115-0.33,0.24-0.569,0.375
			c-0.24,0.135-0.516,0.249-0.826,0.341c-0.31,0.093-0.64,0.14-0.989,0.14c-0.425,0-0.821-0.063-1.189-0.191
			c-0.366-0.128-0.688-0.309-0.964-0.544c-0.274-0.235-0.489-0.519-0.644-0.851c-0.155-0.332-0.233-0.704-0.233-1.114
			c0-0.386,0.08-0.74,0.24-1.065c0.16-0.324,0.381-0.606,0.664-0.847c0.282-0.241,0.606-0.427,0.971-0.56
			c0.365-0.132,0.75-0.198,1.155-0.198c0.34,0,0.665,0.043,0.975,0.128s0.591,0.195,0.845,0.329
			c0.252,0.136,0.453,0.275,0.603,0.421l-0.479,0.682c-0.27-0.22-0.57-0.402-0.9-0.547c-0.329-0.145-0.702-0.218-1.117-0.218
			c-0.266,0-0.525,0.044-0.78,0.131c-0.255,0.088-0.483,0.213-0.686,0.375c-0.202,0.163-0.364,0.358-0.484,0.589
			s-0.18,0.49-0.18,0.78c0,0.315,0.063,0.592,0.188,0.829c0.125,0.236,0.293,0.437,0.506,0.6c0.211,0.163,0.455,0.284,0.727,0.364
			c0.273,0.079,0.554,0.119,0.844,0.119c0.301,0,0.567-0.038,0.803-0.116c0.234-0.077,0.444-0.174,0.629-0.288
			c0.186-0.116,0.354-0.228,0.504-0.338L69.593,37.624z"/>
		
			<path clip-path="url(#SVGID_2_)" fill="none" stroke="#3E3B38" stroke-width="0.25" stroke-linecap="round" stroke-linejoin="round" d="
			M69.593,37.624c-0.14,0.115-0.33,0.24-0.569,0.375c-0.24,0.135-0.516,0.249-0.826,0.341c-0.31,0.093-0.64,0.14-0.989,0.14
			c-0.425,0-0.821-0.063-1.189-0.191c-0.366-0.128-0.688-0.309-0.964-0.544c-0.274-0.235-0.489-0.519-0.644-0.851
			c-0.155-0.332-0.233-0.704-0.233-1.114c0-0.386,0.08-0.74,0.24-1.065c0.16-0.324,0.381-0.606,0.664-0.847
			c0.282-0.241,0.606-0.427,0.971-0.56c0.365-0.132,0.75-0.198,1.155-0.198c0.34,0,0.665,0.043,0.975,0.128s0.591,0.195,0.845,0.329
			c0.252,0.136,0.453,0.275,0.603,0.421l-0.479,0.682c-0.27-0.22-0.57-0.402-0.9-0.547c-0.329-0.145-0.702-0.218-1.117-0.218
			c-0.266,0-0.525,0.044-0.78,0.131c-0.255,0.088-0.483,0.213-0.686,0.375c-0.202,0.163-0.364,0.358-0.484,0.589
			s-0.18,0.49-0.18,0.78c0,0.315,0.063,0.592,0.188,0.829c0.125,0.236,0.293,0.437,0.506,0.6c0.211,0.163,0.455,0.284,0.727,0.364
			c0.273,0.079,0.554,0.119,0.844,0.119c0.301,0,0.567-0.038,0.803-0.116c0.234-0.077,0.444-0.174,0.629-0.288
			c0.186-0.116,0.354-0.228,0.504-0.338L69.593,37.624z"/>
		<path clip-path="url(#SVGID_2_)" fill="#3E3B38" d="M67.207,33.265c-0.383,0-0.754,0.064-1.101,0.19
			c-0.346,0.125-0.657,0.304-0.923,0.531c-0.266,0.225-0.476,0.493-0.625,0.797c-0.149,0.302-0.224,0.637-0.224,0.996
			c0,0.385,0.073,0.738,0.218,1.048c0.144,0.311,0.347,0.579,0.605,0.798c0.258,0.222,0.565,0.395,0.913,0.515
			c0.637,0.222,1.43,0.246,2.083,0.051c0.298-0.088,0.563-0.198,0.793-0.327c0.175-0.099,0.324-0.192,0.443-0.279l-0.236-0.407
			c-0.114,0.078-0.237,0.16-0.37,0.242c-0.195,0.121-0.418,0.225-0.664,0.305c-0.488,0.162-1.156,0.169-1.74-0.002
			c-0.289-0.084-0.551-0.217-0.777-0.39c-0.229-0.175-0.414-0.395-0.549-0.651c-0.137-0.26-0.206-0.563-0.206-0.901
			c0-0.313,0.067-0.601,0.198-0.853c0.129-0.248,0.306-0.463,0.524-0.639c0.217-0.173,0.463-0.308,0.734-0.4
			c0.27-0.093,0.55-0.14,0.83-0.14c0.435,0,0.832,0.077,1.18,0.23c0.289,0.127,0.559,0.284,0.805,0.467l0.305-0.435
			c-0.125-0.104-0.282-0.207-0.469-0.307c-0.24-0.128-0.514-0.234-0.812-0.316C67.846,33.308,67.531,33.265,67.207,33.265"/>
		
			<path clip-path="url(#SVGID_2_)" fill="none" stroke="#3E3B38" stroke-width="0.25" stroke-linecap="round" stroke-linejoin="round" d="
			M67.207,33.265c-0.383,0-0.754,0.064-1.101,0.19c-0.346,0.125-0.657,0.304-0.923,0.531c-0.266,0.225-0.476,0.493-0.625,0.797
			c-0.149,0.302-0.224,0.637-0.224,0.996c0,0.385,0.073,0.738,0.218,1.048c0.144,0.311,0.347,0.579,0.605,0.798
			c0.258,0.222,0.565,0.395,0.913,0.515c0.637,0.222,1.43,0.246,2.083,0.051c0.298-0.088,0.563-0.198,0.793-0.327
			c0.175-0.099,0.324-0.192,0.443-0.279l-0.236-0.407c-0.114,0.078-0.237,0.16-0.37,0.242c-0.195,0.121-0.418,0.225-0.664,0.305
			c-0.488,0.162-1.156,0.169-1.74-0.002c-0.289-0.084-0.551-0.217-0.777-0.39c-0.229-0.175-0.414-0.395-0.549-0.651
			c-0.137-0.26-0.206-0.563-0.206-0.901c0-0.313,0.067-0.601,0.198-0.853c0.129-0.248,0.306-0.463,0.524-0.639
			c0.217-0.173,0.463-0.308,0.734-0.4c0.27-0.093,0.55-0.14,0.83-0.14c0.435,0,0.832,0.077,1.18,0.23
			c0.289,0.127,0.559,0.284,0.805,0.467l0.305-0.435c-0.125-0.104-0.282-0.207-0.469-0.307c-0.24-0.128-0.514-0.234-0.812-0.316
			C67.846,33.308,67.531,33.265,67.207,33.265z"/>
		<path clip-path="url(#SVGID_2_)" fill="#3E3B38" d="M79.855,38.403l-0.6-1.229h-3.112l-0.601,1.229h-0.855l2.565-5.249h0.944
			l2.55,5.249H79.855z M77.291,34.819l-0.766,1.575h2.347l-0.779-1.604c-0.07-0.146-0.138-0.285-0.202-0.416
			c-0.065-0.134-0.13-0.277-0.195-0.433c-0.064,0.161-0.132,0.31-0.199,0.45C77.43,34.531,77.36,34.675,77.291,34.819"/>
		
			<path clip-path="url(#SVGID_2_)" fill="none" stroke="#3E3B38" stroke-width="0.25" stroke-linecap="round" stroke-linejoin="round" d="
			M79.855,38.403l-0.6-1.229h-3.112l-0.601,1.229h-0.855l2.565-5.249h0.944l2.55,5.249H79.855z M77.291,34.819l-0.766,1.575h2.347
			l-0.779-1.604c-0.07-0.146-0.138-0.285-0.202-0.416c-0.065-0.134-0.13-0.277-0.195-0.433c-0.064,0.161-0.132,0.31-0.199,0.45
			C77.43,34.531,77.36,34.675,77.291,34.819z"/>
		<path clip-path="url(#SVGID_2_)" fill="#3E3B38" d="M79.953,38.247h0.545l-2.397-4.937h-0.75l-2.413,4.937h0.508l0.558-1.141
			c0.025-0.054,0.08-0.088,0.141-0.088h3.112c0.059,0,0.113,0.034,0.14,0.088L79.953,38.247z M78.873,36.55h-2.348
			c-0.054,0-0.104-0.027-0.132-0.072c-0.029-0.046-0.032-0.104-0.009-0.152l0.971-2.001c0.066-0.138,0.131-0.284,0.195-0.44
			c0.023-0.06,0.081-0.099,0.144-0.099h0.001c0.063,0,0.119,0.038,0.145,0.097c0.063,0.151,0.127,0.293,0.19,0.422l0.983,2.021
			c0.022,0.049,0.02,0.106-0.009,0.152C78.977,36.522,78.927,36.55,78.873,36.55"/>
		
			<path clip-path="url(#SVGID_2_)" fill="none" stroke="#3E3B38" stroke-width="0.25" stroke-linecap="round" stroke-linejoin="round" d="
			M79.953,38.247h0.545l-2.397-4.937h-0.75l-2.413,4.937h0.508l0.558-1.141c0.025-0.054,0.08-0.088,0.141-0.088h3.112
			c0.059,0,0.113,0.034,0.14,0.088L79.953,38.247z M78.873,36.55h-2.348c-0.054,0-0.104-0.027-0.132-0.072
			c-0.029-0.046-0.032-0.104-0.009-0.152l0.971-2.001c0.066-0.138,0.131-0.284,0.195-0.44c0.023-0.06,0.081-0.099,0.144-0.099h0.001
			c0.063,0,0.119,0.038,0.145,0.097c0.063,0.151,0.127,0.293,0.19,0.422l0.983,2.021c0.022,0.049,0.02,0.106-0.009,0.152
			C78.977,36.522,78.927,36.55,78.873,36.55z"/>
		<path clip-path="url(#SVGID_2_)" fill="#3E3B38" d="M90.995,34.767c0,0.25-0.054,0.481-0.161,0.693
			c-0.107,0.213-0.254,0.398-0.438,0.557c-0.186,0.156-0.396,0.274-0.63,0.355l1.537,2.04l-1.013-0.008l-1.455-1.935h-1.8v1.935
			h-0.81v-5.25h3.066c0.311,0,0.595,0.072,0.853,0.214c0.257,0.143,0.463,0.335,0.618,0.578
			C90.917,34.188,90.995,34.461,90.995,34.767 M89.067,33.935h-2.032v1.755h2.032c0.195,0,0.373-0.043,0.533-0.128
			s0.288-0.197,0.386-0.338c0.098-0.14,0.146-0.291,0.146-0.457c0-0.154-0.049-0.295-0.146-0.42s-0.226-0.226-0.386-0.301
			C89.44,33.972,89.263,33.935,89.067,33.935"/>
		
			<path clip-path="url(#SVGID_2_)" fill="none" stroke="#3E3B38" stroke-width="0.25" stroke-linecap="round" stroke-linejoin="round" d="
			M90.995,34.767c0,0.25-0.054,0.481-0.161,0.693c-0.107,0.213-0.254,0.398-0.438,0.557c-0.186,0.156-0.396,0.274-0.63,0.355
			l1.537,2.04l-1.013-0.008l-1.455-1.935h-1.8v1.935h-0.81v-5.25h3.066c0.311,0,0.595,0.072,0.853,0.214
			c0.257,0.143,0.463,0.335,0.618,0.578C90.917,34.188,90.995,34.461,90.995,34.767z M89.067,33.935h-2.032v1.755h2.032
			c0.195,0,0.373-0.043,0.533-0.128s0.288-0.197,0.386-0.338c0.098-0.14,0.146-0.291,0.146-0.457c0-0.154-0.049-0.295-0.146-0.42
			s-0.226-0.226-0.386-0.301C89.44,33.972,89.263,33.935,89.067,33.935z"/>
		<polygon clip-path="url(#SVGID_2_)" fill="#3E3B38" points="97.229,33.154 101.587,33.154 101.587,33.935 98.04,33.935 
			98.04,35.321 101.175,35.321 101.175,36.102 98.04,36.102 98.04,37.624 101.587,37.624 101.587,38.404 97.229,38.404 		"/>
		
			<polygon clip-path="url(#SVGID_2_)" fill="none" stroke="#3E3B38" stroke-width="0.25" stroke-linecap="round" stroke-linejoin="round" points="
			97.229,33.154 101.587,33.154 101.587,33.935 98.04,33.935 98.04,35.321 101.175,35.321 101.175,36.102 98.04,36.102 
			98.04,37.624 101.587,37.624 101.587,38.404 97.229,38.404 		"/>
		<path clip-path="url(#SVGID_2_)" fill="#3E3B38" d="M97.387,38.247h4.044V37.78h-3.392c-0.086,0-0.156-0.069-0.156-0.156v-1.522
			c0-0.086,0.07-0.155,0.156-0.155h2.979v-0.469h-2.979c-0.086,0-0.156-0.07-0.156-0.156v-1.387c0-0.086,0.07-0.157,0.156-0.157
			h3.392v-0.467h-4.044V38.247z"/>
		
			<path clip-path="url(#SVGID_2_)" fill="none" stroke="#3E3B38" stroke-width="0.25" stroke-linecap="round" stroke-linejoin="round" d="
			M97.387,38.247h4.044V37.78h-3.392c-0.086,0-0.156-0.069-0.156-0.156v-1.522c0-0.086,0.07-0.155,0.156-0.155h2.979v-0.469h-2.979
			c-0.086,0-0.156-0.07-0.156-0.156v-1.387c0-0.086,0.07-0.157,0.156-0.157h3.392v-0.467h-4.044V38.247z"/>
	</g>
</g>
</svg>
