<?xml version="1.0" encoding="utf-8"?>
<!-- Generator: Adobe Illustrator 16.0.0, SVG Export Plug-In . SVG Version: 6.00 Build 0)  -->
<!DOCTYPE svg PUBLIC "-//W3C//DTD SVG 1.1//EN" "http://www.w3.org/Graphics/SVG/1.1/DTD/svg11.dtd">
<svg version="1.1" id="Layer_1" xmlns="http://www.w3.org/2000/svg" xmlns:xlink="http://www.w3.org/1999/xlink" x="0px" y="0px"
	 width="39.583px" height="39.247px" viewBox="0 0 39.583 39.247" enable-background="new 0 0 39.583 39.247" xml:space="preserve">
<path fill="#B9AC31" d="M38.688,25.456V1.544c-0.002-0.065-0.015-0.145-0.042-0.22c-0.026-0.076-0.066-0.151-0.116-0.216
	c-0.046-0.067-0.104-0.119-0.165-0.161c-0.062-0.039-0.126-0.072-0.191-0.099h-0.062l-0.147-0.073
	c-0.09-0.065-0.184-0.113-0.285-0.151H4.597c-0.085,0-0.178,0.016-0.268,0.042l-0.11,0.015c-0.018,0.01-0.094,0.045-0.165,0.092
	c-0.07,0.049-0.123,0.102-0.169,0.163L3.759,1.091C3.749,1.112,3.739,1.136,3.731,1.16C3.678,1.296,3.654,1.422,3.652,1.551v8.544
	l-0.106,0.108c-1.488,1.508-2.373,3.489-2.487,5.579c-0.433,4.48,1.531,9.504,5.39,13.797c3.769,4.189,8.366,7.172,12.94,8.404
	c1.451,0.408,2.95,0.621,4.454,0.633c2.437,0.088,4.801-0.699,6.669-2.207c1.577-1.201,2.227-3.176,1.663-5.033
	c-0.362-1.1-2.104-1.705-3.109-1.963c-3.83-0.939-4.646-1.158-6.429-1.645L22.5,27.731c-0.952-0.266-1.269,0.291-1.854,1.186
	c-0.581,0.883-1.158,1.428-1.431,1.512l-0.105,0.033l-0.107-0.029c-1.449-0.377-3.207-1.561-5.08-3.426l-0.631-0.631h24.451
	C38.263,26.376,38.688,25.962,38.688,25.456 M35.007,2.467l-13.837,10.64L7.333,2.467H35.007z M21.943,30.144
	c0.062-0.104,0.141-0.219,0.218-0.328l0.154-0.221l0.261,0.07c0.996,0.27,1.777,0.467,3.223,0.828l2.818,0.711
	c0.573,0.111,1.132,0.336,1.639,0.662l0.136,0.088l0.028,0.158c0.2,1.123-0.255,2.252-1.186,2.943
	c-1.325,1.141-3.196,1.73-5.377,1.73c-1.234,0-2.567-0.189-3.957-0.568c-4.24-1.16-8.516-3.938-12.037-7.83
	c-3.513-3.879-5.308-8.398-4.927-12.403c0.2-2.065,1.018-3.784,2.243-4.71c0.47-0.354,1.027-0.601,1.607-0.716l0.499-0.096
	c0.398-0.079,0.798-0.158,1.076-0.197l0.308-0.044l0.104,0.285c0.031,0.082,0.059,0.186,0.094,0.316l0.028,0.101
	c0.047,0.174,1.183,4.565,1.792,6.946l0.062,0.248l-0.213,0.144c-1.84,1.277-3.439,2.652-2.68,4.049
	c0.05,0.1,0.105,0.188,0.163,0.275c0.748,1.217,1.587,2.387,2.502,3.477c1.596,1.949,4.754,5.34,8,6.176
	c1.719,0.416,2.766-1.125,3.39-2.045 M36.796,24.534H11.697l-0.26-0.338c-0.147-0.191-0.291-0.377-0.422-0.553l-0.082-0.098
	l-0.972-1.42c-0.125-0.191-0.211-0.322-0.279-0.432L9.54,21.452l0.198-0.203c0.603-0.615,1.282-1.162,2.017-1.623
	c0.712-0.5,1.126-0.826,0.954-1.41l-0.734-2.883c-0.561-2.189-1.214-4.744-1.258-4.941c-0.625-2.314-1.563-2.224-3.811-1.776
	L6.407,8.712C6.292,8.719,6.222,8.744,6.149,8.765L5.542,8.938V3.472l15.04,11.527c0.347,0.266,0.829,0.266,1.174,0L36.796,3.472
	V24.534z"/>
</svg>
