<?xml version="1.0" encoding="utf-8"?>
<!-- Generator: Adobe Illustrator 16.0.0, SVG Export Plug-In . SVG Version: 6.00 Build 0)  -->
<!DOCTYPE svg PUBLIC "-//W3C//DTD SVG 1.1//EN" "http://www.w3.org/Graphics/SVG/1.1/DTD/svg11.dtd">
<svg version="1.1" id="Layer_1" xmlns="http://www.w3.org/2000/svg" xmlns:xlink="http://www.w3.org/1999/xlink" x="0px" y="0px"
	 width="150.711px" height="80.719px" viewBox="0 0 150.711 80.719" enable-background="new 0 0 150.711 80.719"
	 xml:space="preserve">
<g>
	<g>
		<g>
			<defs>
				<rect id="SVGID_1_" x="11.583" y="0.925" width="129.97" height="79.081"/>
			</defs>
			<clipPath id="SVGID_2_">
				<use xlink:href="#SVGID_1_"  overflow="visible"/>
			</clipPath>
			<path clip-path="url(#SVGID_2_)" fill="#3D3A37" d="M47.272,39.922c0.186,0.627,0.771,1.064,1.424,1.064h3.089
				c0.824-0.008,1.486-0.684,1.48-1.501c0-0.113-0.017-0.233-0.043-0.349c-0.781-3.393-0.915-6.854-0.397-10.317
				c0.18-1.839-0.776-3.376-2.434-3.909c-0.368-0.119-0.769-0.184-1.179-0.184c-0.984,0-2.023,0.381-2.837,1.265V36.88
				L47.272,39.922z M48.735,27.879h0.003c0.119-0.129,0.284-0.205,0.463-0.212h0.029c0.158,0,0.323,0.065,0.445,0.178
				c0.162,0.15,0.237,0.37,0.205,0.59c-0.459,3.188-0.435,6.411,0.071,9.584h-0.145l-2.423-8.231
				C47.745,29.093,48.197,28.45,48.735,27.879"/>
		</g>
		<g>
			<defs>
				<rect id="SVGID_3_" x="11.583" y="0.925" width="129.97" height="79.081"/>
			</defs>
			<clipPath id="SVGID_4_">
				<use xlink:href="#SVGID_3_"  overflow="visible"/>
			</clipPath>
			<path clip-path="url(#SVGID_4_)" fill="#3D3A37" d="M40.28,68.666l-0.104-0.391l-12.491,3.344
				c-0.06,0.018-0.119,0.025-0.178,0.025c-0.116,0-0.226-0.033-0.328-0.088c-0.131-0.076-0.231-0.191-0.305-0.378l-2.719-10.153
				c0.878-0.453,1.562-1.197,1.94-2.121c0.428-1.035,0.425-2.178-0.007-3.211c-0.225-0.543-0.562-1.031-0.987-1.435
				c0.963-0.877,1.42-1.995,1.293-3.2c-0.14-1.334-1.001-2.574-2.297-3.353c0.994-0.957,1.415-2.131,1.193-3.358
				c-0.272-1.515-1.478-2.867-3.145-3.582c1.22-1.227,1.19-2.387,0.919-3.184c-0.713-2.08-3.796-3.698-6.226-3.86l-2.267-8.44
				c-0.093-0.358,0.12-0.727,0.473-0.823l25.023-6.704c0.058-0.014,0.117-0.022,0.174-0.022c0.294,0,0.559,0.196,0.652,0.532
				l2.199,7.471v-9.583c-0.281-0.356-0.629-0.666-1.036-0.901c-0.563-0.325-1.187-0.489-1.816-0.489
				c-0.316,0-0.636,0.041-0.949,0.125L14.27,21.592c-1.93,0.528-3.081,2.528-2.566,4.462l2.234,8.318
				c-0.978,0.578-1.703,1.481-2.061,2.57c-0.396,1.195-0.3,2.472,0.266,3.598c0.632,1.249,1.771,2.142,3.113,2.461
				c-0.885,2.006-0.255,4.39,1.523,5.692C15.414,50.68,15.757,53.42,17.641,55c0.26,0.215,0.538,0.402,0.835,0.561
				c-0.402,0.871-0.487,1.842-0.249,2.781c0.278,1.088,0.962,1.998,1.927,2.57c0.319,0.188,0.658,0.332,1.011,0.432l2.828,10.563
				c0.247,0.938,0.845,1.727,1.683,2.215c0.559,0.324,1.181,0.492,1.82,0.492c0.318,0,0.64-0.043,0.962-0.125l4.912-1.318
				c1.277,3.229,2.034,5.604,2.04,5.631c0.179,0.564,0.678,0.97,1.267,1.027c1.206,0.121,2.46,0.182,3.733,0.182
				c6.034-0.059,11.926-1.248,17.526-3.541c0.75-0.342,1.08-1.229,0.739-1.977c-0.073-0.158-0.171-0.302-0.288-0.422
				c-1.815-1.89-3.158-4.21-3.897-6.726l-0.733-2.412l-1.061-0.014l-12.478,3.34 M51.69,68.27c0.673,2.246,1.727,4.334,3.133,6.218
				c-4.745,1.674-9.665,2.516-14.675,2.516c-0.739,0-1.479-0.016-2.22-0.053c-0.318-0.937-0.888-2.558-1.67-4.552L51.69,68.27z
				 M22.259,58.486h-0.026c-0.652-0.014-1.171-0.529-1.188-1.178c0.02-0.636,0.526-1.183,1.151-1.183
				c0.03,0,0.057,0.002,0.087,0.004c0.653,0.015,1.173,0.535,1.188,1.168C23.456,57.959,22.916,58.486,22.259,58.486 M23.471,51.373
				c0,0.738-1.64,1.752-2.825,1.752c-0.469-0.006-0.906-0.195-1.232-0.529c-0.327-0.336-0.502-0.777-0.497-1.246
				c0.016-0.957,0.772-1.713,1.727-1.729C21.835,49.621,23.471,50.637,23.471,51.373 M22.392,44.898
				c0,0.735-1.639,1.752-2.831,1.752c-0.966,0-1.752-0.785-1.752-1.752s0.787-1.752,1.752-1.752
				C20.752,43.146,22.392,44.16,22.392,44.898 M16.324,36.672c1.561,0,3.857,1.298,3.911,1.757c-0.065,0.452-2.37,1.748-3.876,1.748
				h-0.035c-0.964,0-1.752-0.787-1.752-1.753C14.572,37.458,15.359,36.674,16.324,36.672"/>
		</g>
		<g>
			<defs>
				<rect id="SVGID_5_" x="11.583" y="0.925" width="129.97" height="79.081"/>
			</defs>
			<clipPath id="SVGID_6_">
				<use xlink:href="#SVGID_5_"  overflow="visible"/>
			</clipPath>
		</g>
		<g>
			<defs>
				<rect id="SVGID_7_" x="11.583" y="0.925" width="129.97" height="79.081"/>
			</defs>
			<clipPath id="SVGID_8_">
				<use xlink:href="#SVGID_7_"  overflow="visible"/>
			</clipPath>
		</g>
		<g>
			<defs>
				<rect id="SVGID_9_" x="11.583" y="0.925" width="129.97" height="79.081"/>
			</defs>
			<clipPath id="SVGID_10_">
				<use xlink:href="#SVGID_9_"  overflow="visible"/>
			</clipPath>
		</g>
		<g>
			<defs>
				<rect id="SVGID_11_" x="11.583" y="0.925" width="129.97" height="79.081"/>
			</defs>
			<clipPath id="SVGID_12_">
				<use xlink:href="#SVGID_11_"  overflow="visible"/>
			</clipPath>
		</g>
		<g>
			<defs>
				<rect id="SVGID_13_" x="11.583" y="0.925" width="129.97" height="79.081"/>
			</defs>
			<clipPath id="SVGID_14_">
				<use xlink:href="#SVGID_13_"  overflow="visible"/>
			</clipPath>
		</g>
		<g>
			<defs>
				<rect id="SVGID_15_" x="11.583" y="0.925" width="129.97" height="79.081"/>
			</defs>
			<clipPath id="SVGID_16_">
				<use xlink:href="#SVGID_15_"  overflow="visible"/>
			</clipPath>
			<path clip-path="url(#SVGID_16_)" fill="#3D3A37" d="M46.376,36.881V25.992c-0.028,0.03-0.06,0.049-0.088,0.081l-2.534-8.605
				c-0.129-0.485-0.357-0.929-0.66-1.313v9.583L46.376,36.881z"/>
		</g>
		<g>
			<defs>
				<rect id="SVGID_17_" x="11.583" y="0.925" width="129.97" height="79.081"/>
			</defs>
			<clipPath id="SVGID_18_">
				<use xlink:href="#SVGID_17_"  overflow="visible"/>
			</clipPath>
			<path clip-path="url(#SVGID_18_)" fill="#FFFFFF" d="M64.401,41.693l-0.087,0.259h0.206
				C64.475,41.866,64.449,41.775,64.401,41.693"/>
		</g>
		<g>
			<defs>
				<rect id="SVGID_19_" x="11.583" y="0.925" width="129.97" height="79.081"/>
			</defs>
			<clipPath id="SVGID_20_">
				<use xlink:href="#SVGID_19_"  overflow="visible"/>
			</clipPath>
		</g>
		<g>
			<defs>
				<rect id="SVGID_21_" x="11.583" y="0.925" width="129.97" height="79.081"/>
			</defs>
			<clipPath id="SVGID_22_">
				<use xlink:href="#SVGID_21_"  overflow="visible"/>
			</clipPath>
		</g>
		<g>
			<defs>
				<rect id="SVGID_23_" x="11.583" y="0.925" width="129.97" height="79.081"/>
			</defs>
			<clipPath id="SVGID_24_">
				<use xlink:href="#SVGID_23_"  overflow="visible"/>
			</clipPath>
		</g>
		<g>
			<defs>
				<rect id="SVGID_25_" x="11.583" y="0.925" width="129.97" height="79.081"/>
			</defs>
			<clipPath id="SVGID_26_">
				<use xlink:href="#SVGID_25_"  overflow="visible"/>
			</clipPath>
		</g>
		<g>
			<defs>
				<rect id="SVGID_27_" x="11.583" y="0.925" width="129.97" height="79.081"/>
			</defs>
			<clipPath id="SVGID_28_">
				<use xlink:href="#SVGID_27_"  overflow="visible"/>
			</clipPath>
			<path clip-path="url(#SVGID_28_)" fill="#3D3A37" d="M41.065,37.758c0.725,0,1.338,0.54,1.429,1.262l0.496,3.969h16.906
				c0.12,0,0.24,0.016,0.357,0.047c0.374,0.1,0.687,0.336,0.88,0.672c0.195,0.332,0.248,0.721,0.15,1.096l-3.139,11.509
				c-0.097,0.354-0.326,0.631-0.617,0.819c1.012,0.611,1.698,1.716,1.713,2.982c-0.022,1.909-1.59,3.479-3.492,3.5h-0.04
				c-1.931,0-3.507-1.56-3.531-3.492v-0.008c0.014-1.127,0.548-2.105,1.363-2.74H47.4c0.823,0.639,1.368,1.619,1.379,2.74
				c-0.022,1.909-1.587,3.479-3.492,3.5h-0.04c-1.929,0-3.507-1.56-3.532-3.492v-0.008c0.016-1.136,0.554-2.117,1.379-2.75
				c-0.695-0.035-1.28-0.556-1.367-1.255l-1.934-15.472h-1.867c-0.785-0.016-1.405-0.634-1.419-1.411
				c-0.016-0.793,0.619-1.452,1.412-1.468L41.065,37.758 M44.429,54.494h11.227l2.354-8.627H43.351L44.429,54.494 M55.716,60.768
				c0.342-0.004,0.624-0.287,0.63-0.641c0.002-0.176-0.063-0.342-0.185-0.465c-0.121-0.123-0.279-0.195-0.452-0.197
				c-0.353,0.006-0.63,0.289-0.636,0.643c-0.001,0.177,0.061,0.339,0.186,0.466C55.38,60.695,55.544,60.768,55.716,60.768
				 M45.256,60.768c0.343-0.004,0.626-0.287,0.631-0.641c0.002-0.176-0.063-0.342-0.186-0.465c-0.118-0.123-0.279-0.195-0.451-0.197
				c-0.353,0.006-0.63,0.289-0.635,0.643c-0.004,0.177,0.062,0.339,0.183,0.466C44.921,60.695,45.084,60.768,45.256,60.768"/>
		</g>
		<g>
			<defs>
				<rect id="SVGID_29_" x="11.583" y="0.925" width="129.97" height="79.081"/>
			</defs>
			<clipPath id="SVGID_30_">
				<use xlink:href="#SVGID_29_"  overflow="visible"/>
			</clipPath>
			<path clip-path="url(#SVGID_30_)" fill="#AEA230" d="M138.271,44.506v20.418c0,0.906-0.733,1.641-1.642,1.641H97.247
				c-0.907,0-1.644-0.733-1.644-1.641v-1.641h34.461c2.719-0.008,4.916-2.209,4.924-4.924V46.328
				c-1.059,0.377-2.159,0.592-3.28,0.619v11.412c0,0.908-0.733,1.643-1.644,1.643H90.682c-0.904,0-1.641-0.734-1.641-1.643V12.412
				c0-0.906,0.734-1.64,1.641-1.64h39.385c0.908,0,1.643,0.734,1.643,1.64v10.535c1.133,0.051,2.236,0.253,3.28,0.609v-6.222h1.642
				c0.907,0,1.641,0.735,1.641,1.643v6.308c1.316,0.969,2.442,2.181,3.283,3.596v-9.904c-0.009-2.716-2.205-4.916-4.924-4.923
				h-1.642v-1.642c-0.007-2.714-2.205-4.914-4.923-4.922h-8.369c-0.788-3.815-4.146-6.554-8.04-6.564H51.299
				c-4.532,0-8.206,3.673-8.206,8.205v2.004c0.36,0.142,0.716,0.303,1.054,0.499c0.871,0.503,1.623,1.162,2.229,1.93V9.13
				c0.009-2.716,2.208-4.914,4.923-4.922h62.357c2.08,0.01,3.932,1.322,4.626,3.282H90.682c-2.715,0.008-4.912,2.208-4.922,4.922
				v29.536H64.519c0.525,1.013,0.728,2.138,0.59,3.284H85.76v8.205h-22.8l-0.895,3.281h12.207v6.564H70.99
				c-2.716,0.008-4.913,2.207-4.922,4.922v3.283c0,0.906,0.736,1.641,1.642,1.641h32.819c0.904,0,1.641-0.734,1.641-1.641v-1.641
				h34.46c2.718-0.013,4.915-2.21,4.923-4.925V40.78C140.704,42.232,139.578,43.494,138.271,44.506 M77.555,56.719h8.205v1.641
				c0.01,2.716,2.207,4.916,4.922,4.925H77.555V56.719z M69.35,69.848v-1.643c0-0.906,0.736-1.641,1.64-1.641h21.629
				c0.695,1.959,2.548,3.271,4.628,3.283H69.35L69.35,69.848z"/>
		</g>
		<g>
			<defs>
				<rect id="SVGID_31_" x="11.583" y="0.925" width="129.97" height="79.081"/>
			</defs>
			<clipPath id="SVGID_32_">
				<use xlink:href="#SVGID_31_"  overflow="visible"/>
			</clipPath>
			<path clip-path="url(#SVGID_32_)" fill="#3D3A37" d="M125.284,34.936c0.008-3.255,2.661-5.909,5.915-5.915
				c0.174,0,0.337,0.037,0.509,0.052v-2.984c-0.172-0.011-0.335-0.045-0.508-0.045c-3.378,0-6.438,1.916-7.935,4.871
				c-0.858-0.642-1.929-0.961-2.998-0.961c-1.07,0-2.14,0.321-2.998,0.961c-1.498-2.957-4.555-4.871-7.931-4.871
				c-4.332,0-8.049,3.197-8.766,7.401h-1.537v2.978h1.537c0.717,4.206,4.434,7.404,8.766,7.404c4.901,0,8.89-3.99,8.894-8.893
				c0.002-1.119,0.916-2.033,2.035-2.036c1.119,0.003,2.034,0.917,2.039,2.036c0,4.764,3.893,8.667,8.857,8.893
				c0.1,0.004,0.197,0.006,0.303,0.006c0.079,0,0.16-0.024,0.24-0.024v-3.012c-0.172,0.015-0.335,0.053-0.508,0.053
				C127.943,40.844,125.292,38.19,125.284,34.936 M109.339,40.851c-3.254-0.007-5.905-2.66-5.913-5.915
				c0.008-3.255,2.659-5.909,5.91-5.915c3.258,0.005,5.91,2.659,5.919,5.911C115.246,38.19,112.595,40.844,109.339,40.851"/>
		</g>
		<g>
			<defs>
				<rect id="SVGID_33_" x="11.583" y="0.925" width="129.97" height="79.081"/>
			</defs>
			<clipPath id="SVGID_34_">
				<use xlink:href="#SVGID_33_"  overflow="visible"/>
			</clipPath>
			<path clip-path="url(#SVGID_34_)" fill="#3D3A37" d="M134.988,26.942v3.499c1.287,1.087,2.121,2.687,2.125,4.491
				c-0.004,1.81-0.842,3.409-2.125,4.497v3.468c1.271-0.664,2.4-1.644,3.281-2.839V29.618
				C137.41,28.479,136.286,27.564,134.988,26.942"/>
		</g>
		<g>
			<defs>
				<rect id="SVGID_35_" x="11.583" y="0.925" width="129.97" height="79.081"/>
			</defs>
			<clipPath id="SVGID_36_">
				<use xlink:href="#SVGID_35_"  overflow="visible"/>
			</clipPath>
			<path clip-path="url(#SVGID_36_)" fill="#3D3A37" d="M131.708,40.797v3.012c1.136-0.041,2.246-0.373,3.28-0.912v-3.468
				C134.084,40.197,132.956,40.686,131.708,40.797"/>
		</g>
		<g>
			<defs>
				<rect id="SVGID_37_" x="11.583" y="0.925" width="129.97" height="79.081"/>
			</defs>
			<clipPath id="SVGID_38_">
				<use xlink:href="#SVGID_37_"  overflow="visible"/>
			</clipPath>
			<path clip-path="url(#SVGID_38_)" fill="#3D3A37" d="M131.708,29.073c1.248,0.11,2.376,0.603,3.28,1.368v-3.499
				c-1.01-0.485-2.115-0.783-3.28-0.853V29.073z"/>
		</g>
		<g>
			<defs>
				<rect id="SVGID_39_" x="11.583" y="0.925" width="129.97" height="79.081"/>
			</defs>
			<clipPath id="SVGID_40_">
				<use xlink:href="#SVGID_39_"  overflow="visible"/>
			</clipPath>
			<path clip-path="url(#SVGID_40_)" fill="#3D3A37" d="M139.938,36.424h1.563v-2.976h-1.536c-0.242-1.426-0.854-2.722-1.693-3.83
				v10.439C139.063,38.979,139.669,37.75,139.938,36.424"/>
		</g>
		<g>
			<defs>
				<rect id="SVGID_41_" x="11.583" y="0.925" width="129.97" height="79.081"/>
			</defs>
			<clipPath id="SVGID_42_">
				<use xlink:href="#SVGID_41_"  overflow="visible"/>
			</clipPath>
		</g>
		<g>
			<defs>
				<rect id="SVGID_43_" x="11.583" y="0.925" width="129.97" height="79.081"/>
			</defs>
			<clipPath id="SVGID_44_">
				<use xlink:href="#SVGID_43_"  overflow="visible"/>
			</clipPath>
		</g>
		<g>
			<defs>
				<rect id="SVGID_45_" x="11.583" y="0.925" width="129.97" height="79.081"/>
			</defs>
			<clipPath id="SVGID_46_">
				<use xlink:href="#SVGID_45_"  overflow="visible"/>
			</clipPath>
		</g>
		<g>
			<defs>
				<rect id="SVGID_47_" x="11.583" y="0.925" width="129.97" height="79.081"/>
			</defs>
			<clipPath id="SVGID_48_">
				<use xlink:href="#SVGID_47_"  overflow="visible"/>
			</clipPath>
		</g>
		<g>
			<defs>
				<rect id="SVGID_49_" x="11.583" y="0.925" width="129.97" height="79.081"/>
			</defs>
			<clipPath id="SVGID_50_">
				<use xlink:href="#SVGID_49_"  overflow="visible"/>
			</clipPath>
		</g>
		<g>
			<defs>
				<rect id="SVGID_51_" x="11.583" y="0.925" width="129.97" height="79.081"/>
			</defs>
			<clipPath id="SVGID_52_">
				<use xlink:href="#SVGID_51_"  overflow="visible"/>
			</clipPath>
			<path clip-path="url(#SVGID_52_)" fill="#FFFFFF" d="M131.708,39.23v1.566c1.248-0.11,2.376-0.601,3.28-1.367v-2.422
				C134.327,38.209,133.126,39.061,131.708,39.23"/>
		</g>
		<g>
			<defs>
				<rect id="SVGID_53_" x="11.583" y="0.925" width="129.97" height="79.081"/>
			</defs>
			<clipPath id="SVGID_54_">
				<use xlink:href="#SVGID_53_"  overflow="visible"/>
			</clipPath>
		</g>
	</g>
</g>
</svg>
