<?xml version="1.0" encoding="utf-8"?>
<!-- Generator: Adobe Illustrator 16.0.0, SVG Export Plug-In . SVG Version: 6.00 Build 0)  -->
<!DOCTYPE svg PUBLIC "-//W3C//DTD SVG 1.1//EN" "http://www.w3.org/Graphics/SVG/1.1/DTD/svg11.dtd">
<svg version="1.1" id="Layer_1" xmlns="http://www.w3.org/2000/svg" xmlns:xlink="http://www.w3.org/1999/xlink" x="0px" y="0px"
	 width="151.346px" height="135.343px" viewBox="0 0 151.346 135.343" enable-background="new 0 0 151.346 135.343"
	 xml:space="preserve">
<path fill="#010101" d="M104.505,108.547c-0.983-0.98-2.565-0.98-3.549,0c-0.981,0.984-0.981,2.566,0,3.547l4.674,4.677H68.304
	l-5.037-0.017H41.764l4.166-4.168c0.985-0.981,0.985-2.565,0-3.547c-0.979-0.98-2.563-0.98-3.546,0l-8.456,8.46
	c-0.076,0.071-0.095,0.144-0.148,0.218c-0.092,0.108-0.164,0.217-0.217,0.348c-0.109,0.201-0.2,0.399-0.236,0.617
	c-0.019,0.073-0.038,0.127-0.038,0.198c-0.034,0.274-0.034,0.526,0,0.799c0.019,0.073,0.019,0.13,0.038,0.201
	c0.053,0.22,0.127,0.421,0.236,0.619c0.074,0.125,0.146,0.233,0.217,0.349c0.053,0.07,0.09,0.162,0.148,0.217l8.456,8.457
	c0.493,0.489,1.127,0.729,1.781,0.729c0.656,0,1.291-0.239,1.784-0.729c0.985-0.983,0.985-2.565,0-3.549l-4.166-4.164h21.519h5.021
	h37.326l-4.677,4.675c-0.981,0.983-0.981,2.565,0,3.55c0.494,0.488,1.13,0.728,1.785,0.728c0.654,0,1.291-0.239,1.785-0.728
	l8.946-8.952c0.474-0.474,0.729-1.108,0.729-1.783c0-0.668-0.271-1.307-0.729-1.78L104.505,108.547z"/>
<path fill="#83A3AF" d="M68.304,71.876c0-11.933-9.712-21.647-21.644-21.647H21.644C9.711,50.229,0,59.943,0,71.876v59.793
	c0,1.38,1.126,2.511,2.51,2.511c1.383,0,2.509-1.131,2.509-2.511V71.876c0-9.167,7.458-16.628,16.625-16.628h24.995
	c9.169,0,16.625,7.461,16.625,16.628v44.876l5.04,0.019V71.876z"/>
<path fill="#3D3939" d="M34.144,46.555c12.278,0,22.284-10.003,22.284-22.281c0-12.281-10.006-22.286-22.284-22.286
	c-12.278,0-22.284,10.005-22.284,22.286C11.859,36.551,21.866,46.555,34.144,46.555 M34.144,7.008
	c9.515,0,17.262,7.75,17.262,17.265c0,9.511-7.748,17.262-17.262,17.262c-9.514,0-17.262-7.75-17.262-17.262
	C16.881,14.759,24.629,7.008,34.144,7.008"/>
<path fill="#83A3AF" d="M134.793,50.83h-18.357c-9.129,0-16.551,7.421-16.551,16.557v29.648c0,1.381,1.125,2.506,2.506,2.506
	c1.387,0,2.514-1.125,2.514-2.506V67.387c0-6.369,5.166-11.536,11.531-11.536h18.357c6.364,0,11.53,5.167,11.53,11.536v64.445
	c0,1.386,1.128,2.511,2.511,2.511c1.384,0,2.512-1.125,2.512-2.511V67.387C151.346,58.271,143.921,50.83,134.793,50.83"/>
<path fill="#3D3939" d="M125.623,47.101c9.387,0,17.026-7.639,17.026-17.026s-7.64-17.028-17.026-17.028
	s-17.025,7.642-17.025,17.028S116.236,47.101,125.623,47.101 M125.623,18.086c6.621,0,12.004,5.385,12.004,12.005
	c0,6.623-5.383,12.005-12.004,12.005c-6.619,0-12.003-5.382-12.003-12.005C113.62,23.472,119.004,18.086,125.623,18.086"/>
</svg>
