<?xml version="1.0" encoding="utf-8"?>
<!-- Generator: Adobe Illustrator 16.0.0, SVG Export Plug-In . SVG Version: 6.00 Build 0)  -->
<!DOCTYPE svg PUBLIC "-//W3C//DTD SVG 1.1//EN" "http://www.w3.org/Graphics/SVG/1.1/DTD/svg11.dtd">
<svg version="1.1" id="Layer_1" xmlns="http://www.w3.org/2000/svg" xmlns:xlink="http://www.w3.org/1999/xlink" x="0px" y="0px"
	 width="151.346px" height="135.343px" viewBox="0 0 151.346 135.343" enable-background="new 0 0 151.346 135.343"
	 xml:space="preserve">
<path fill="#3D3939" d="M57.359,20.054h5.99v5.989c0,1.202,0.979,2.181,2.184,2.181c1.203,0,2.183-0.979,2.183-2.181v-5.989h5.99
	c1.205,0,2.183-0.979,2.183-2.183c0-1.201-0.979-2.184-2.183-2.184h-5.99v-5.99c0-1.204-0.979-2.187-2.183-2.187
	c-1.205,0-2.184,0.982-2.184,2.187v5.99h-5.99c-1.205,0-2.184,0.982-2.184,2.184C55.176,19.075,56.155,20.054,57.359,20.054"/>
<path fill="#3D3939" d="M83.51,51.105h12.528v12.528c0,1.204,0.979,2.183,2.184,2.183c1.201,0,2.184-0.979,2.184-2.183V51.105
	h12.523c1.204,0,2.184-0.976,2.184-2.181c0-1.204-0.979-2.187-2.184-2.187h-12.523V34.214c0-1.204-0.982-2.18-2.184-2.18
	c-1.204,0-2.184,0.976-2.184,2.18v12.524H83.51c-1.2,0-2.183,0.983-2.183,2.187C81.327,50.129,82.31,51.105,83.51,51.105"/>
<path fill="#3D3939" d="M120.323,99.459c-15.23-0.014-27.639-12.424-27.653-27.654c0-1.2-0.982-2.181-2.185-2.181
	c-1.204,0-2.183,0.98-2.183,2.181c-0.02,15.23-12.424,27.641-27.657,27.654c-1.204,0-2.183,0.985-2.183,2.188
	c0,1.203,0.979,2.183,2.183,2.183c15.233,0.017,27.638,12.421,27.657,27.656c0,1.205,0.979,2.181,2.183,2.181
	c1.202,0,2.185-0.976,2.185-2.181c0.015-15.235,12.423-27.64,27.653-27.656c1.204,0,2.183-0.979,2.183-2.183
	C122.506,100.444,121.527,99.459,120.323,99.459 M90.485,119.867c-3.257-8.297-9.925-14.964-18.221-18.221
	c8.296-3.259,14.964-9.926,18.221-18.22c3.258,8.294,9.923,14.961,18.22,18.22C100.408,104.903,93.743,111.57,90.485,119.867"/>
<path fill="#3D3939" d="M65.533,64.184v-0.002c1.203,0,2.183-0.979,2.183-2.181c0-1.205-0.979-2.184-2.183-2.184
	c-8.7-0.009-15.786-7.095-15.795-15.798c0-1.201-0.979-2.18-2.184-2.18c-1.204,0-2.183,0.979-2.183,2.18
	c-0.013,8.639-7.045,15.726-15.795,15.798c-1.205,0-2.184,0.979-2.184,2.184c0,1.204,0.979,2.183,2.184,2.183
	c8.699,0.009,15.782,7.097,15.795,15.795c0,1.205,0.979,2.184,2.183,2.184c1.205,0,2.184-0.979,2.184-2.184
	c0.01-8.64,7.045-15.721,15.678-15.795H65.533z M47.554,70.86c-1.946-3.821-5.036-6.914-8.857-8.86
	c3.821-1.947,6.912-5.035,8.857-8.861c1.946,3.826,5.039,6.914,8.858,8.861C52.59,63.946,49.5,67.039,47.554,70.86"/>
<path fill="#3D3939" d="M45.919,103.946h-5.986v-5.988c0-1.206-0.983-2.186-2.187-2.186c-1.202,0-2.184,0.979-2.184,2.186v5.988
	h-5.986c-1.205,0-2.184,0.979-2.184,2.181c0,1.204,0.979,2.187,2.184,2.187h5.986v5.989c0,1.205,0.982,2.18,2.184,2.18
	c1.204,0,2.187-0.975,2.187-2.18v-5.989h5.989c1.201,0,2.181-0.982,2.181-2.187C48.103,104.926,47.123,103.946,45.919,103.946"/>
<path fill="#83A3AF" d="M22.779,83.047l1.778-1.824c0.849-0.89,0.849-2.337,0-3.225c-0.422-0.438-0.983-0.679-1.583-0.691h-0.021
	c-0.59,0-1.147,0.234-1.573,0.665l-1.774,1.819l-1.771-1.819c-0.872-0.88-2.288-0.88-3.153,0c-0.878,0.892-0.883,2.353-0.015,3.258
	l1.771,1.817l-1.797,1.848c-0.418,0.433-0.646,1.014-0.64,1.628c0.007,0.615,0.244,1.191,0.672,1.623
	c0.434,0.439,1.004,0.659,1.568,0.659c0.583,0,1.16-0.225,1.594-0.685l1.771-1.818l1.791,1.83c0.421,0.436,0.982,0.666,1.575,0.666
	c0.64,0.063,1.172-0.241,1.593-0.678c0.872-0.904,0.863-2.364-0.012-3.253L22.779,83.047z"/>
<path fill="#83A3AF" d="M118.453,8.962l3.451-3.55c0.855-0.887,0.855-2.333,0-3.219c-0.418-0.444-0.977-0.685-1.576-0.691
	c-0.005,0-0.011,0-0.021,0c-0.59,0-1.146,0.235-1.571,0.666l-3.458,3.539l-3.447-3.546c-0.873-0.884-2.285-0.878-3.15,0
	c-0.882,0.893-0.888,2.355-0.016,3.258l3.447,3.543l-3.447,3.54l0.394,0.408l-0.419-0.379c-0.418,0.438-0.649,1.017-0.644,1.635
	c0.007,0.612,0.245,1.186,0.671,1.616c0.422,0.424,0.98,0.659,1.573,0.659h0.018c0.601-0.006,1.16-0.247,1.575-0.685l3.445-3.543
	l3.473,3.562c0.875,0.894,2.299,0.884,3.171-0.019c0.87-0.906,0.858-2.364-0.02-3.254L118.453,8.962z"/>
<path fill="#83A3AF" d="M137.011,79.697l-1.771-1.819l1.777-1.823c0.851-0.89,0.851-2.335,0-3.223
	c-0.874-0.912-2.291-0.918-3.178-0.028l-1.769,1.821l-1.777-1.824c-0.869-0.881-2.278-0.881-3.15,0
	c-0.885,0.894-0.887,2.351-0.016,3.258l1.771,1.819l-1.8,1.844c-0.418,0.438-0.646,1.021-0.64,1.636
	c0.007,0.611,0.244,1.188,0.673,1.621c0.42,0.426,0.979,0.657,1.57,0.657h0.022c0.601-0.006,1.157-0.25,1.573-0.686l1.773-1.821
	l1.787,1.839c0.422,0.432,0.979,0.664,1.575,0.664h0.014c0.599-0.002,1.159-0.246,1.582-0.684
	C137.896,82.048,137.89,80.583,137.011,79.697"/>
<path fill="#83A3AF" d="M29.681,31.171l1.784,1.832c0.881,0.888,2.304,0.882,3.176-0.019c0.418-0.438,0.652-1.014,0.646-1.632
	c-0.004-0.612-0.241-1.192-0.663-1.62l-1.771-1.818l1.775-1.822c0.849-0.892,0.849-2.343,0-3.227
	c-0.872-0.91-2.295-0.916-3.175-0.025l-1.772,1.822l-1.775-1.822c-0.871-0.884-2.285-0.884-3.153,0
	c-0.424,0.428-0.662,1.005-0.665,1.623c-0.003,0.619,0.228,1.195,0.65,1.635l1.771,1.817l-1.797,1.844
	c-0.865,0.907-0.853,2.365,0.035,3.255c0.416,0.428,0.973,0.659,1.563,0.659h0.022c0.599-0.003,1.163-0.25,1.578-0.685
	L29.681,31.171z"/>
</svg>
