<?xml version="1.0" encoding="utf-8"?>
<!-- Generator: Adobe Illustrator 16.0.0, SVG Export Plug-In . SVG Version: 6.00 Build 0)  -->
<!DOCTYPE svg PUBLIC "-//W3C//DTD SVG 1.1//EN" "http://www.w3.org/Graphics/SVG/1.1/DTD/svg11.dtd">
<svg version="1.1" id="Layer_1" xmlns="http://www.w3.org/2000/svg" xmlns:xlink="http://www.w3.org/1999/xlink" x="0px" y="0px"
	 width="39.583px" height="39.247px" viewBox="0 0 39.583 39.247" enable-background="new 0 0 39.583 39.247" xml:space="preserve">
<g>
	<path fill="#B9AC31" d="M19.79,0.818c-10.295,0-18.665,8.37-18.665,18.666c0,10.298,8.37,18.667,18.665,18.667
		c10.296,0,18.667-8.369,18.667-18.667C38.457,9.188,30.086,0.818,19.79,0.818 M19.79,36.461c-9.354,0-16.976-7.624-16.976-16.978
		c0-9.352,7.623-16.977,16.976-16.977s16.978,7.625,16.978,16.977C36.768,28.837,29.144,36.461,19.79,36.461"/>
	<path fill="#B9AC31" d="M19.79,8.441c0.471,0,0.867-0.39,0.867-0.864V5.494c0-0.472-0.396-0.866-0.867-0.866
		c-0.469,0-0.864,0.395-0.864,0.866v2.083C18.926,8.087,19.321,8.441,19.79,8.441"/>
	<path fill="#B9AC31" d="M13.109,9.619c0.157,0.276,0.433,0.433,0.749,0.433c0.157,0,0.272-0.037,0.432-0.115
		c0.391-0.238,0.548-0.749,0.313-1.143l-1.021-1.807c-0.237-0.392-0.749-0.549-1.141-0.314c-0.391,0.234-0.548,0.748-0.313,1.141
		L13.109,9.619z"/>
	<path fill="#B9AC31" d="M9.926,12.802l-1.806-1.02c-0.394-0.235-0.907-0.078-1.141,0.315C6.744,12.488,6.901,13,7.295,13.235
		l1.806,1.023c0.119,0.079,0.278,0.117,0.435,0.117c0.272,0,0.588-0.157,0.745-0.434C10.477,13.552,10.321,13.038,9.926,12.802"/>
	<path fill="#B9AC31" d="M8.749,19.483c0-0.469-0.395-0.863-0.867-0.863h-2.08c-0.473,0-0.864,0.395-0.864,0.863
		c0,0.473,0.391,0.865,0.864,0.865h2.08C8.395,20.349,8.749,19.956,8.749,19.483"/>
	<path fill="#B9AC31" d="M9.062,24.71l-1.808,1.021c-0.392,0.235-0.548,0.745-0.313,1.142c0.157,0.273,0.433,0.433,0.746,0.433
		c0.159,0,0.275-0.043,0.433-0.122l1.807-1.02c0.395-0.235,0.551-0.745,0.316-1.139C10.005,24.59,9.495,24.476,9.062,24.71"/>
	<path fill="#B9AC31" d="M14.29,29.033c-0.394-0.236-0.905-0.079-1.139,0.315l-1.023,1.809c-0.235,0.391-0.078,0.902,0.316,1.139
		c0.117,0.078,0.273,0.115,0.431,0.115c0.276,0,0.588-0.157,0.745-0.431l1.024-1.809C14.8,29.781,14.681,29.267,14.29,29.033"/>
	<path fill="#B9AC31" d="M19.79,30.527c-0.469,0-0.864,0.393-0.864,0.862v2.083c0,0.473,0.396,0.865,0.864,0.865
		c0.471,0,0.867-0.393,0.867-0.865V31.39C20.618,30.879,20.261,30.527,19.79,30.527"/>
	<path fill="#B9AC31" d="M26.472,29.348c-0.234-0.394-0.748-0.551-1.139-0.314c-0.395,0.233-0.553,0.748-0.316,1.141l1.024,1.807
		c0.155,0.273,0.431,0.431,0.745,0.431c0.157,0,0.275-0.037,0.432-0.115c0.393-0.236,0.551-0.748,0.313-1.144L26.472,29.348z"/>
	<path fill="#B9AC31" d="M32.288,25.733l-1.808-1.021c-0.395-0.236-0.903-0.08-1.14,0.313c-0.236,0.394-0.079,0.903,0.314,1.139
		l1.804,1.021c0.122,0.08,0.279,0.122,0.437,0.122c0.273,0,0.59-0.16,0.747-0.436C32.836,26.477,32.68,25.967,32.288,25.733"/>
	<path fill="#B9AC31" d="M33.741,18.657h-2.083c-0.471,0-0.863,0.396-0.863,0.866c0,0.472,0.393,0.865,0.863,0.865h2.083
		c0.472,0,0.864-0.394,0.864-0.865C34.605,19.053,34.213,18.657,33.741,18.657"/>
	<path fill="#B9AC31" d="M30.086,14.376c0.16,0,0.276-0.041,0.433-0.12l1.81-1.021c0.392-0.236,0.549-0.747,0.314-1.139
		c-0.237-0.393-0.747-0.55-1.141-0.315l-1.847,1.023c-0.395,0.233-0.551,0.746-0.315,1.139
		C29.498,14.219,29.772,14.376,30.086,14.376"/>
	<path fill="#B9AC31" d="M27.18,6.673c-0.394-0.235-0.905-0.078-1.139,0.314l-1.024,1.809c-0.236,0.392-0.078,0.902,0.316,1.141
		c0.118,0.079,0.274,0.115,0.431,0.115c0.277,0,0.589-0.157,0.746-0.433l1.021-1.808C27.729,7.421,27.61,6.907,27.18,6.673"/>
	<path fill="#B9AC31" d="M20.657,19.483V11.35c0-0.472-0.396-0.867-0.867-0.867c-0.472,0-0.864,0.395-0.864,0.867v7.27h-5.068
		c-0.473,0-0.865,0.395-0.865,0.863c0,0.473,0.392,0.865,0.865,0.865h5.893C20.225,20.349,20.615,19.956,20.657,19.483"/>
</g>
</svg>
