<?xml version="1.0" encoding="utf-8"?>
<!-- Generator: Adobe Illustrator 16.0.0, SVG Export Plug-In . SVG Version: 6.00 Build 0)  -->
<!DOCTYPE svg PUBLIC "-//W3C//DTD SVG 1.1//EN" "http://www.w3.org/Graphics/SVG/1.1/DTD/svg11.dtd">
<svg version="1.1" id="Layer_1" xmlns="http://www.w3.org/2000/svg" xmlns:xlink="http://www.w3.org/1999/xlink" x="0px" y="0px"
	 width="151.346px" height="135.343px" viewBox="0 0 151.346 135.343" enable-background="new 0 0 151.346 135.343"
	 xml:space="preserve">
<path fill="#3D3939" d="M45.056,56.054c0.116,0.016,0.234,0.025,0.35,0.025c0.54,0,1.059-0.183,1.49-0.521
	c0.502-0.4,0.832-0.984,0.92-1.624c0.011-0.05,0.894-4.839,5.878-11.71c3.92-5.375,10.124-5.302,12.666-5.032
	c20.024,4.557,29.573,3.385,34.102,1.406c0.903,2.479,2.788,7.151,5.141,10.333c3.11,4.195,3.983,5.758,3.983,5.758
	c0.388,0.78,1.321,1.37,2.176,1.37c0.323,0,0.726,0,1.156-0.212c1.166-0.584,1.632-2.106,1.019-3.336
	c-0.131-0.266-0.969-1.824-4.393-6.389c-3.003-4.052-5.305-11.341-5.457-12c-0.212-1.065-1.078-1.795-1.959-1.821
	c-0.925-0.175-1.779,0.161-2.339,0.912c-0.053,0.048-5.426,5.132-32.205-0.886c-0.104-0.035-11.097-2.344-17.696,6.956
	c-5.435,7.371-6.747,12.874-6.838,13.996c-0.151,0.596-0.052,1.202,0.279,1.709C43.703,55.563,44.328,55.949,45.056,56.054"/>
<path d="M101.313,85.355l-12.831-2.247c-6.511-1.22-13.235-1.269-20.005-0.135l-14.103,2.374c-0.173,0.049-0.358,0.077-0.543,0.077
	c-0.402,0-0.811-0.122-1.175-0.354c-0.573-0.374-0.962-1.003-1.064-1.729c-0.105-0.614,0.06-1.28,0.446-1.816
	c-0.002,0.006-0.011,0.011-0.016,0.017c-0.391,0.537-0.56,1.211-0.455,1.827c0.105,0.726,0.494,1.359,1.064,1.73
	c0.362,0.235,0.77,0.351,1.172,0.351c0.188,0,0.375-0.025,0.549-0.076l14.097-2.371c6.773-1.13,13.5-1.082,20.007,0.133l12.83,2.249
	h0.28c0.616,0,1.171-0.22,1.595-0.59c-0.422,0.354-0.971,0.561-1.571,0.561H101.313z"/>
<path d="M89.091,95.405c-3.396,0.656-7.006,0.981-10.959,0.981c-3.506,0-7.069-0.284-10.585-0.848L55.999,94.43
	c-1.423-0.206-2.366-1.424-2.173-2.771c0.044-0.329,0.15-0.644,0.31-0.919c-0.166,0.286-0.282,0.605-0.334,0.947
	c-0.19,1.351,0.753,2.564,2.175,2.768l11.546,1.115c3.519,0.56,7.078,0.843,10.582,0.843c3.959,0,7.564-0.322,10.961-0.979
	l10.37-0.981c0.686-0.099,1.262-0.447,1.646-0.932c-0.385,0.471-0.949,0.808-1.625,0.901L89.091,95.405z"/>
<path fill="#3D3939" d="M123.239,56.988c-1.119-1.164-2.567-1.803-4.077-1.803h-0.155c0.103-0.766,0.204-1.585,0.307-2.415
	l0.046-0.381c0.974-8.341,2.303-19.764-1.113-25.887c-2.004-3.476-7.614-6.426-11.018-7.963c-0.534-2.697-2.298-8.55-7.896-12.508
	c-6.669-4.784-16.167-5.713-28.226-2.769c-1.826,0.423-3.372,0.806-4.707,1.14c-1.313,0.328-2.412,0.604-3.391,0.813l-0.301,0.068
	c-5.304,1.193-5.629,1.265-9.296,3.806L52.77,9.521c-1.208,0.813-2.859,1.923-5.197,3.326c-15.107,9.351-13.062,24.83-11.088,39.791
	l0.325,2.702c-3.143,0.231-5.636,3.212-5.636,6.849v12.286c0,3.787,2.703,6.859,6.022,6.859h0.684
	c0.149,8.117,2.798,15.918,7.747,22.695l5.795,6.468v7.543c0,4.025-2.602,7.51-6.473,8.668l-8.786,2.652
	c-0.662,0.192-1.189,0.629-1.481,1.236c-0.267,0.562-0.314,1.229-0.105,1.951c0.403,1.01,1.365,1.709,2.341,1.709
	c0.229,0,0.483-0.017,0.759-0.17l8.943-2.652c5.9-1.771,9.864-7.152,9.864-13.395v-2.078l0.452,0.491
	c0.393,0.391,0.786,0.573,1.351,0.754c6.816,1.308,13.582,1.969,20.102,1.969c6.469,0,13.045-0.645,20.19-1.989
	c0.316-0.105,0.596-0.222,0.876-0.414v1.268c0,6.242,3.965,11.624,9.871,13.395l9.044,2.679c0.122,0.05,0.343,0.144,0.651,0.144
	c1.079,0,2.001-0.688,2.366-1.775c0.372-1.301-0.338-2.696-1.611-3.121l-9.204-2.652c-3.875-1.158-6.472-4.643-6.472-8.668v-6.564
	l6.492-7.168l0.211-0.226c0.003-0.005,0.005-0.008,0.008-0.012l-0.193,0.207l-1.835,2.026l-4.661,5.142l-4.642,5.299
	c-0.278,0.188-0.56,0.31-0.877,0.414c-0.273,0.049-0.535,0.083-0.811,0.133c-6.83,1.24-13.161,1.853-19.378,1.853
	c-6.524,0-13.29-0.656-20.103-1.963c-0.565-0.183-0.959-0.365-1.353-0.756l-5.512-5.96l-5.798-6.469
	c-0.174-0.239-0.323-0.487-0.491-0.731L45.02,92.852V75.014l-6.093-14.275l3.962-3.965c-0.139-0.396-0.375-0.75-0.688-0.998
	c-0.126-1.279-0.264-2.591-0.529-3.89c-2.095-13.898-4.075-27.029,8.602-34.886c2.391-1.434,4.069-2.56,5.289-3.381l0.595-0.398
	c3.103-2.027,3.103-2.027,7.858-3.111c2.141-0.46,4.607-1.014,8.116-1.962c10.584-2.572,18.704-1.96,24.131,1.841
	c5.509,3.938,6.118,10.443,6.122,10.449c0,0.988,0.588,1.809,1.573,2.204c3.331,1.305,8.587,4.148,9.829,6.382
	c2.854,5.14,1.187,17.766,0.47,23.254c0,1.521-0.119,2.78-0.248,4.09c-0.037,0.043-0.072,0.097-0.106,0.148l-6.471,15.153
	l0.013,0.005l5.96-13.967l3.813,3.811l0.602-1.407h1.48c0.496,0,1.101,0.894,1.101,1.936v12.429c0,1.042-0.604,1.936-1.101,1.936
	h-2.234c-0.106,0-0.282,0-0.479,0.071c-0.1-0.036-0.218-0.071-0.362-0.071c-1.367,0-2.528,1.163-2.528,2.533v1.396
	c0,4.212-0.746,8.41-2.178,12.328v0.048l0.092-0.144v10.311c4.22-6.258,6.595-13.604,6.851-21.404h0.701
	c3.319,0,6.021-3.077,6.021-6.859V62.354C125.26,60.308,124.552,58.353,123.239,56.988 M44.998,75.042V92.88
	c-1.445-3.933-2.195-8.162-2.195-12.402v-0.815h0.138v-0.72c0-1.37-1.164-2.533-2.534-2.533h-3.211
	c-0.491,0-1.098-0.894-1.098-1.936V62.188c0-1.045,0.607-1.935,1.098-1.935h1.48L44.998,75.042z"/>
<path fill="#83A3AF" d="M111.521,92.711v-0.047V74.871l5.701-13.347l-0.005-0.009l-3.81-3.811l-5.963,13.965l-0.013-0.003
	l-9.059-1.837c-13.361-2.53-26.84-2.53-40.07,0.005l-9.06,1.835l-6.315-14.908c-0.003-0.005-0.009-0.01-0.012-0.016l-0.03,0.027
	l-3.962,3.965l6.096,14.275v17.835l0.136,10.413c0.17,0.243,0.316,0.494,0.496,0.733l5.798,6.471l5.511,5.958
	c0.389,0.386,0.786,0.573,1.348,0.751c6.815,1.312,13.581,1.968,20.105,1.968c6.217,0,12.548-0.606,19.378-1.853
	c0.275-0.05,0.537-0.084,0.811-0.139c0.317-0.104,0.599-0.221,0.877-0.408l4.642-5.299l4.661-5.144l1.835-2.024l0.193-0.21
	l0.018-0.017c0.273-0.38,0.52-0.773,0.782-1.163v-0.006V92.57L111.521,92.711z M106.46,101.538l-0.025,0.026l-9.822,10.899
	c-12.17,2.294-24.51,2.294-36.677,0l-9.854-10.928V76.458v-0.026l9.059-1.701c12.615-2.379,25.433-1.928,38.268,0l9.051,1.701
	V101.538z"/>
<path fill="#83A3AF" d="M101.993,80.584L89.292,78.35c-7.361-1.323-14.634-1.371-21.614-0.138l-14.083,2.365
	c-0.618,0.094-1.169,0.422-1.543,0.938l-0.012,0.011c-0.386,0.536-0.551,1.202-0.452,1.816c0.11,0.726,0.497,1.354,1.069,1.729
	c0.359,0.232,0.772,0.354,1.169,0.354c0.191,0,0.375-0.028,0.549-0.08l14.103-2.371c6.766-1.134,13.495-1.085,20.005,0.135
	l12.831,2.247h0.277c0.604,0,1.149-0.207,1.571-0.561c0.072-0.061,0.116-0.148,0.183-0.22c0.112-0.121,0.235-0.237,0.319-0.386
	c0.148-0.254,0.26-0.536,0.312-0.845c0.097-0.662-0.049-1.298-0.399-1.809C103.207,81.013,102.64,80.677,101.993,80.584"/>
<path fill="#83A3AF" d="M99.135,89.51l-10.507,0.988c-6.887,1.146-13.666,1.189-20.203,0.13l-11.83-1.115
	c-0.673-0.091-1.324,0.086-1.842,0.499c-0.254,0.201-0.46,0.446-0.618,0.729c-0.157,0.276-0.262,0.59-0.31,0.92
	c-0.193,1.349,0.75,2.563,2.179,2.77l11.546,1.112c3.512,0.557,7.075,0.845,10.581,0.845c3.953,0,7.563-0.325,10.959-0.981
	l10.366-0.982c0.676-0.094,1.24-0.431,1.625-0.901c0.394-0.479,0.6-1.101,0.534-1.765c0.058-0.617-0.148-1.207-0.576-1.639
	C100.56,89.639,99.844,89.428,99.135,89.51"/>
<path fill="#83A3AF" d="M99.045,99.404c-0.677-0.224-1.394-0.196-1.962,0.092l-8.841,4.422c-6.287,1.06-12.807,1.103-19.385,0.132
	l-8.975-4.554c-0.621-0.313-1.343-0.345-1.982-0.113c-0.32,0.119-0.598,0.307-0.835,0.538c-0.223,0.214-0.411,0.474-0.537,0.771
	c-0.295,0.695-0.326,1.418-0.078,2.03c0.229,0.576,0.678,1.022,1.252,1.265l9.274,4.71c0.316,0.253,0.653,0.256,0.849,0.245
	c3.506,0.563,7.063,0.85,10.587,0.85c3.993,0,7.752-0.332,11.03-0.976c0.239,0,0.421-0.095,0.419-0.142l9.533-4.685
	c0.29-0.144,0.547-0.35,0.759-0.598c0.223-0.257,0.396-0.561,0.511-0.891c0.208-0.631,0.171-1.29-0.109-1.847
	C100.272,100.089,99.722,99.631,99.045,99.404"/>
</svg>
